{"glyphs":{"0":{"ha":960,"x_min":53,"x_max":879,"o":"m 376 -19 q 139 83 225 -19 q 53 361 53 185 q 116 669 53 524 q 294 903 179 814 q 554 992 408 992 q 793 891 707 992 q 879 619 879 790 q 815 310 879 457 q 637 72 751 163 q 376 -19 522 -19 m 404 140 q 564 211 497 140 q 665 390 631 282 q 700 607 700 499 q 653 777 700 719 q 526 835 607 835 q 365 766 432 835 q 265 590 299 697 q 231 369 231 482 q 277 197 231 254 q 404 140 324 140 z "},"1":{"ha":504,"x_min":89,"x_max":443,"o":"m 221 721 q 89 671 154 682 l 100 821 q 214 877 149 831 q 307 972 279 924 l 443 972 l 271 0 l 93 0 l 221 721 z "},"2":{"ha":722,"x_min":-42,"x_max":653,"o":"m 283 393 q 433 590 393 526 q 472 714 472 653 q 445 796 472 767 q 368 825 418 825 q 246 795 304 825 q 117 707 188 765 l 126 886 q 272 965 199 939 q 428 992 344 992 q 595 931 538 992 q 653 774 653 871 q 622 624 653 697 q 538 479 592 551 q 393 301 485 407 l 276 167 l 590 167 l 561 0 l -42 0 l 283 393 z "},"3":{"ha":728,"x_min":-42,"x_max":658,"o":"m 474 521 q 575 438 539 494 q 611 299 611 381 q 563 132 611 204 q 433 20 515 60 q 250 -19 351 -19 q -42 64 90 -19 l 28 214 q 254 133 136 133 q 384 176 336 133 q 432 296 432 219 q 276 424 432 424 l 190 424 l 219 590 l 303 590 q 435 629 385 590 q 486 732 486 668 q 453 810 486 781 q 361 839 421 839 q 132 767 260 839 l 133 924 q 404 992 263 992 q 591 931 524 992 q 658 771 658 871 q 608 620 658 688 q 474 521 558 553 z "},"4":{"ha":821,"x_min":-36,"x_max":751,"o":"m 751 367 l 725 222 l 614 222 l 575 0 l 410 0 l 449 222 l -36 222 l 626 972 l 747 972 l 640 367 l 751 367 m 475 367 l 526 663 l 268 367 l 475 367 z "},"5":{"ha":704,"x_min":-42,"x_max":676,"o":"m 329 800 l 269 608 q 329 611 308 611 q 530 540 456 611 q 604 344 604 469 q 552 156 604 239 q 413 28 500 74 q 225 -18 326 -18 q -42 63 68 -18 l 40 213 q 238 142 138 142 q 374 190 319 142 q 428 317 428 238 q 383 426 428 388 q 254 465 339 465 q 71 446 164 465 l 226 972 l 676 972 l 635 800 l 329 800 z "},"6":{"ha":800,"x_min":42,"x_max":708,"o":"m 457 585 q 634 515 567 585 q 701 331 701 446 q 653 152 701 232 q 522 26 606 72 q 336 -19 439 -19 q 182 16 249 -19 q 78 117 115 51 q 42 271 42 183 q 122 556 42 414 q 333 811 203 697 q 608 992 464 925 l 708 881 q 470 741 597 832 q 272 535 343 650 q 457 585 351 585 m 351 128 q 483 180 431 128 q 536 310 536 232 q 499 401 536 365 q 406 438 463 438 q 273 385 326 438 q 219 256 219 333 q 257 164 219 200 q 351 128 294 128 z "},"7":{"ha":719,"x_min":28,"x_max":775,"o":"m 775 972 l 214 0 l 28 0 l 490 806 l 124 806 l 153 972 l 775 972 z "},"8":{"ha":822,"x_min":33,"x_max":739,"o":"m 604 529 q 683 446 656 496 q 710 332 710 396 q 658 151 710 232 q 519 26 607 71 q 328 -19 432 -19 q 113 48 192 -19 q 33 226 33 115 q 86 407 33 328 q 229 531 139 486 q 158 685 161 589 q 203 842 158 772 q 326 952 249 913 q 496 992 403 992 q 678 932 618 992 q 739 779 739 872 q 703 635 739 700 q 604 529 667 569 m 474 853 q 360 810 404 853 q 315 706 315 768 q 346 631 317 660 q 429 601 375 601 q 539 645 496 601 q 582 751 582 689 q 555 826 582 799 q 474 853 528 853 m 346 133 q 490 184 433 133 q 546 314 546 235 q 508 408 546 372 q 401 444 471 444 q 258 392 314 444 q 201 257 201 339 q 239 167 201 200 q 346 133 276 133 z "},"9":{"ha":811,"x_min":83,"x_max":750,"o":"m 456 992 q 610 956 543 992 q 713 855 676 921 q 750 701 750 789 q 669 417 750 558 q 458 161 589 275 q 183 -19 328 47 l 83 92 q 322 231 194 140 q 519 438 449 322 q 335 388 440 388 q 158 457 225 388 q 90 642 90 526 q 138 820 90 740 q 269 946 186 900 q 456 992 353 992 m 256 663 q 292 571 256 607 q 386 535 329 535 q 519 587 465 535 q 572 717 572 639 q 535 808 572 772 q 440 844 497 844 q 308 792 361 844 q 256 663 256 740 z "},"\r":{"ha":300,"x_min":0,"x_max":0,"o":""}," ":{"ha":300,"x_min":0,"x_max":0,"o":""},"A":{"ha":843,"x_min":-60,"x_max":769,"o":"m 443 972 l 610 972 l 769 0 l 585 0 l 547 235 l 244 235 l 125 0 l -60 0 l 443 972 m 517 407 l 476 692 l 336 407 l 517 407 z "},"Á":{"ha":843,"x_min":-60,"x_max":769,"o":"m 443 972 l 610 972 l 769 0 l 585 0 l 547 235 l 244 235 l 125 0 l -60 0 l 443 972 m 517 407 l 476 692 l 336 407 l 517 407 m 433 1185 l 714 1335 l 688 1161 l 410 1069 l 433 1185 z "},"Ă":{"ha":843,"x_min":-60,"x_max":799,"o":"m 443 972 l 610 972 l 769 0 l 585 0 l 547 235 l 244 235 l 125 0 l -60 0 l 443 972 m 517 407 l 476 692 l 336 407 l 517 407 m 553 1093 q 417 1137 467 1093 q 367 1247 367 1181 q 371 1286 367 1269 l 482 1286 q 479 1264 479 1272 q 501 1215 479 1232 q 560 1197 522 1197 q 635 1221 604 1197 q 674 1286 665 1244 l 799 1286 q 714 1144 776 1196 q 553 1093 651 1093 z "},"Ắ":{"ha":843,"x_min":-60,"x_max":790,"o":"m 443 972 l 610 972 l 769 0 l 585 0 l 547 235 l 244 235 l 125 0 l -60 0 l 443 972 m 517 407 l 476 692 l 336 407 l 517 407 m 544 1063 q 409 1106 458 1063 q 360 1214 360 1149 q 363 1246 360 1224 l 481 1246 q 478 1224 478 1235 q 500 1174 478 1192 q 560 1157 522 1157 q 633 1181 603 1157 q 669 1246 663 1204 l 790 1246 q 710 1113 776 1163 q 544 1063 643 1063 m 501 1404 l 769 1536 l 744 1381 l 485 1300 l 501 1404 z "},"Ặ":{"ha":843,"x_min":-60,"x_max":779,"o":"m 443 972 l 610 972 l 769 0 l 585 0 l 547 235 l 244 235 l 125 0 l -60 0 l 443 972 m 517 407 l 476 692 l 336 407 l 517 407 m 533 1063 q 398 1106 447 1063 q 349 1214 349 1149 q 351 1246 349 1224 l 469 1246 q 467 1224 467 1235 q 489 1174 467 1192 q 549 1157 511 1157 q 622 1181 592 1157 q 658 1246 651 1204 l 779 1246 q 699 1113 765 1163 q 533 1063 632 1063 m 269 -112 l 408 -112 l 383 -247 l 244 -247 l 269 -112 z "},"Ằ":{"ha":843,"x_min":-60,"x_max":778,"o":"m 443 972 l 610 972 l 769 0 l 585 0 l 547 235 l 244 235 l 125 0 l -60 0 l 443 972 m 517 407 l 476 692 l 336 407 l 517 407 m 532 1063 q 397 1106 446 1063 q 347 1214 347 1149 q 350 1246 347 1224 l 468 1246 q 465 1224 465 1235 q 488 1174 465 1192 q 547 1157 510 1157 q 620 1181 590 1157 q 657 1246 650 1204 l 778 1246 q 697 1113 764 1163 q 532 1063 631 1063 m 476 1381 l 504 1528 l 742 1396 l 722 1300 l 476 1381 z "},"Ẳ":{"ha":843,"x_min":-60,"x_max":803,"o":"m 443 972 l 610 972 l 769 0 l 585 0 l 547 235 l 244 235 l 125 0 l -60 0 l 443 972 m 517 407 l 476 692 l 336 407 l 517 407 m 557 1076 q 422 1119 471 1076 q 372 1228 372 1163 q 375 1260 372 1238 l 493 1260 q 490 1238 490 1249 q 513 1188 490 1206 q 572 1171 535 1171 q 645 1194 615 1171 q 682 1260 675 1218 l 803 1260 q 722 1126 789 1176 q 557 1076 656 1076 m 599 1342 q 658 1393 658 1356 q 614 1428 658 1428 q 526 1406 578 1428 l 517 1490 q 632 1513 575 1513 q 719 1488 686 1513 q 751 1418 751 1463 q 603 1281 751 1317 l 599 1342 z "},"Ẵ":{"ha":843,"x_min":-60,"x_max":850,"o":"m 443 972 l 610 972 l 769 0 l 585 0 l 547 235 l 244 235 l 125 0 l -60 0 l 443 972 m 517 407 l 476 692 l 336 407 l 517 407 m 553 1063 q 417 1106 467 1063 q 368 1214 368 1149 q 371 1246 368 1224 l 489 1246 q 486 1224 486 1235 q 508 1174 486 1192 q 568 1157 531 1157 q 641 1181 611 1157 q 678 1246 671 1204 l 799 1246 q 718 1113 785 1163 q 553 1063 651 1063 m 714 1314 q 670 1321 693 1314 q 617 1342 647 1328 q 574 1359 596 1351 q 538 1367 553 1367 q 492 1324 500 1367 l 386 1324 q 525 1469 414 1469 q 619 1442 558 1469 q 662 1424 640 1432 q 699 1417 683 1417 q 744 1463 736 1417 l 850 1463 q 804 1351 839 1389 q 714 1314 769 1314 z "},"Â":{"ha":843,"x_min":-60,"x_max":769,"o":"m 443 972 l 610 972 l 769 0 l 585 0 l 547 235 l 244 235 l 125 0 l -60 0 l 443 972 m 517 407 l 476 692 l 336 407 l 517 407 m 400 1176 l 583 1313 l 736 1157 l 714 1047 l 554 1163 l 376 1064 l 400 1176 z "},"Ấ":{"ha":843,"x_min":-60,"x_max":908,"o":"m 443 972 l 610 972 l 769 0 l 585 0 l 547 235 l 244 235 l 125 0 l -60 0 l 443 972 m 517 407 l 476 692 l 336 407 l 517 407 m 749 1421 l 908 1421 l 754 1258 l 644 1258 l 749 1421 m 732 1151 l 714 1049 l 549 1149 l 379 1065 l 397 1168 l 572 1279 l 732 1151 z "},"Ậ":{"ha":843,"x_min":-60,"x_max":769,"o":"m 443 972 l 610 972 l 769 0 l 585 0 l 547 235 l 244 235 l 125 0 l -60 0 l 443 972 m 517 407 l 476 692 l 336 407 l 517 407 m 729 1138 l 711 1035 l 546 1135 l 376 1051 l 394 1154 l 569 1265 l 729 1138 m 269 -112 l 408 -112 l 383 -247 l 244 -247 l 269 -112 z "},"Ầ":{"ha":843,"x_min":-60,"x_max":772,"o":"m 443 972 l 610 972 l 769 0 l 585 0 l 547 235 l 244 235 l 125 0 l -60 0 l 443 972 m 517 407 l 476 692 l 336 407 l 517 407 m 667 1258 l 583 1435 l 732 1435 l 772 1258 l 667 1258 m 731 1151 l 713 1049 l 547 1149 l 378 1065 l 396 1168 l 571 1279 l 731 1151 z "},"Ẩ":{"ha":843,"x_min":-60,"x_max":821,"o":"m 443 972 l 610 972 l 769 0 l 585 0 l 547 235 l 244 235 l 125 0 l -60 0 l 443 972 m 517 407 l 476 692 l 336 407 l 517 407 m 729 1138 l 711 1035 l 546 1135 l 376 1051 l 394 1154 l 569 1265 l 729 1138 m 668 1272 q 728 1324 728 1286 q 683 1358 728 1358 q 596 1336 647 1358 l 586 1421 q 701 1443 644 1443 q 788 1418 756 1443 q 821 1349 821 1393 q 672 1211 821 1247 l 668 1272 z "},"Ẫ":{"ha":843,"x_min":-60,"x_max":829,"o":"m 443 972 l 610 972 l 769 0 l 585 0 l 547 235 l 244 235 l 125 0 l -60 0 l 443 972 m 517 407 l 476 692 l 336 407 l 517 407 m 729 1138 l 711 1035 l 546 1135 l 376 1051 l 394 1154 l 569 1265 l 729 1138 m 693 1301 q 649 1308 672 1301 q 596 1329 626 1315 q 553 1347 575 1339 q 517 1354 532 1354 q 471 1311 479 1354 l 365 1311 q 504 1457 393 1457 q 599 1429 538 1457 q 641 1412 619 1419 q 678 1404 663 1404 q 724 1450 715 1404 l 829 1450 q 783 1339 818 1376 q 693 1301 749 1301 z "},"Ȁ":{"ha":843,"x_min":-60,"x_max":769,"o":"m 443 972 l 610 972 l 769 0 l 585 0 l 547 235 l 244 235 l 125 0 l -60 0 l 443 972 m 517 407 l 476 692 l 336 407 l 517 407 m 382 1094 l 282 1313 l 439 1313 l 489 1094 l 382 1094 m 583 1094 l 494 1313 l 651 1313 l 690 1094 l 583 1094 z "},"Ä":{"ha":843,"x_min":-60,"x_max":769,"o":"m 443 972 l 610 972 l 769 0 l 585 0 l 547 235 l 244 235 l 125 0 l -60 0 l 443 972 m 517 407 l 476 692 l 336 407 l 517 407 m 363 1224 l 493 1224 l 468 1099 l 338 1099 l 363 1224 m 638 1224 l 768 1224 l 743 1099 l 613 1099 l 638 1224 z "},"Ạ":{"ha":843,"x_min":-60,"x_max":769,"o":"m 443 972 l 610 972 l 769 0 l 585 0 l 547 235 l 244 235 l 125 0 l -60 0 l 443 972 m 517 407 l 476 692 l 336 407 l 517 407 m 269 -112 l 408 -112 l 383 -247 l 244 -247 l 269 -112 z "},"À":{"ha":843,"x_min":-60,"x_max":769,"o":"m 443 972 l 610 972 l 769 0 l 585 0 l 547 235 l 244 235 l 125 0 l -60 0 l 443 972 m 517 407 l 476 692 l 336 407 l 517 407 m 421 1175 l 449 1335 l 683 1179 l 664 1069 l 421 1175 z "},"Ả":{"ha":843,"x_min":-60,"x_max":769,"o":"m 443 972 l 610 972 l 769 0 l 585 0 l 547 235 l 244 235 l 125 0 l -60 0 l 443 972 m 517 407 l 476 692 l 336 407 l 517 407 m 506 1071 q 563 1121 543 1099 q 583 1168 583 1143 q 572 1196 583 1186 q 542 1206 561 1206 q 451 1181 507 1206 l 444 1263 q 558 1288 504 1288 q 642 1262 610 1288 q 674 1190 674 1236 q 641 1098 674 1138 q 547 1019 608 1058 l 506 1071 z "},"Ȃ":{"ha":843,"x_min":-60,"x_max":769,"o":"m 443 972 l 610 972 l 769 0 l 585 0 l 547 235 l 244 235 l 125 0 l -60 0 l 443 972 m 517 407 l 476 692 l 336 407 l 517 407 m 569 1267 q 704 1224 656 1267 q 753 1117 753 1182 q 750 1083 753 1106 l 632 1083 q 635 1104 635 1097 q 613 1155 635 1138 q 553 1172 590 1172 q 481 1149 510 1172 q 444 1083 451 1125 l 326 1083 q 407 1214 340 1161 q 569 1267 474 1267 z "},"Ā":{"ha":843,"x_min":-60,"x_max":781,"o":"m 443 972 l 610 972 l 769 0 l 585 0 l 547 235 l 244 235 l 125 0 l -60 0 l 443 972 m 517 407 l 476 692 l 336 407 l 517 407 m 336 1207 l 781 1207 l 761 1101 l 317 1101 l 336 1207 z "},"Ą":{"ha":843,"x_min":-60,"x_max":778,"o":"m 443 972 l 610 972 l 769 0 l 585 0 l 547 235 l 244 235 l 125 0 l -60 0 l 443 972 m 517 407 l 476 692 l 336 407 l 517 407 m 769 0 q 635 -158 635 -87 q 648 -196 635 -183 q 686 -208 661 -208 q 768 -192 726 -208 l 778 -268 q 657 -293 722 -293 q 574 -267 606 -293 q 540 -196 542 -242 q 581 -89 540 -140 q 683 0 622 -37 l 769 0 z "},"Å":{"ha":843,"x_min":-60,"x_max":769,"o":"m 443 972 l 610 972 l 769 0 l 585 0 l 547 235 l 244 235 l 125 0 l -60 0 l 443 972 m 517 407 l 476 692 l 336 407 l 517 407 m 536 1069 q 449 1100 481 1069 q 418 1178 418 1131 q 442 1258 418 1221 q 504 1318 465 1296 q 589 1340 543 1340 q 676 1310 644 1340 q 707 1232 707 1279 q 656 1117 707 1164 q 536 1069 606 1069 m 550 1142 q 601 1164 581 1142 q 622 1218 622 1186 q 609 1253 622 1240 q 575 1267 596 1267 q 524 1244 546 1267 q 503 1190 503 1221 q 515 1155 503 1168 q 550 1142 528 1142 z "},"Ǻ":{"ha":843,"x_min":-60,"x_max":769,"o":"m 443 972 l 610 972 l 769 0 l 585 0 l 547 235 l 244 235 l 125 0 l -60 0 l 443 972 m 517 407 l 476 692 l 336 407 l 517 407 m 535 1047 q 446 1078 478 1047 q 414 1158 414 1110 q 462 1272 414 1225 q 575 1318 510 1318 q 663 1286 632 1318 q 694 1206 694 1254 q 648 1093 694 1139 q 535 1047 601 1047 m 543 1119 q 591 1142 571 1119 q 611 1190 611 1164 q 599 1230 611 1215 q 565 1244 586 1244 q 517 1222 538 1244 q 497 1169 497 1200 q 510 1133 497 1147 q 543 1119 524 1119 m 479 1458 l 747 1590 l 722 1435 l 463 1354 l 479 1458 z "},"Ã":{"ha":843,"x_min":-60,"x_max":803,"o":"m 443 972 l 610 972 l 769 0 l 585 0 l 547 235 l 244 235 l 125 0 l -60 0 l 443 972 m 517 407 l 476 692 l 336 407 l 517 407 m 664 1081 q 622 1088 643 1081 q 563 1113 601 1096 q 515 1132 539 1124 q 475 1140 492 1140 q 436 1127 451 1140 q 417 1092 421 1114 l 308 1092 q 357 1217 319 1174 q 453 1260 394 1260 q 501 1251 476 1260 q 556 1226 525 1242 q 636 1200 611 1200 q 689 1253 681 1200 l 803 1253 q 755 1123 789 1165 q 664 1081 721 1081 z "},"Æ":{"ha":1171,"x_min":-78,"x_max":1210,"o":"m 549 972 l 1210 972 l 1179 800 l 788 800 l 751 593 l 1053 593 l 1022 421 l 721 421 l 676 172 l 1081 172 l 1050 0 l 468 0 l 510 235 l 256 235 l 108 0 l -78 0 l 549 972 m 540 407 l 608 796 l 368 407 l 540 407 z "},"Ǽ":{"ha":1171,"x_min":-78,"x_max":1210,"o":"m 549 972 l 1210 972 l 1179 800 l 788 800 l 751 593 l 1053 593 l 1022 421 l 721 421 l 676 172 l 1081 172 l 1050 0 l 468 0 l 510 235 l 256 235 l 108 0 l -78 0 l 549 972 m 540 407 l 608 796 l 368 407 l 540 407 m 789 1158 l 1057 1290 l 1032 1135 l 772 1054 l 789 1158 z "},"B":{"ha":856,"x_min":36,"x_max":793,"o":"m 207 972 l 496 972 q 708 922 631 972 q 786 753 786 872 q 751 615 786 676 q 653 515 715 553 q 758 443 722 492 q 793 322 793 394 q 742 149 793 222 q 604 38 690 76 q 415 0 518 0 l 36 0 l 207 972 m 464 582 q 563 621 524 582 q 603 726 603 660 q 579 799 603 776 q 507 821 556 821 l 358 821 l 317 582 l 464 582 m 408 151 q 543 195 490 151 q 596 318 596 239 q 561 410 596 378 q 458 442 526 442 l 292 442 l 240 151 l 408 151 z "},"C":{"ha":824,"x_min":58,"x_max":874,"o":"m 444 -19 q 239 31 326 -19 q 105 174 151 81 q 58 399 58 268 q 134 702 58 567 q 338 915 210 838 q 621 992 467 992 q 758 976 689 992 q 874 935 826 961 l 824 765 q 597 821 700 821 q 410 766 488 821 q 294 619 333 711 q 254 415 254 526 q 481 151 254 151 q 725 207 583 151 l 715 38 q 585 -4 660 11 q 444 -19 511 -19 z "},"Ć":{"ha":824,"x_min":58,"x_max":874,"o":"m 444 -19 q 239 31 326 -19 q 105 174 151 81 q 58 399 58 268 q 134 702 58 567 q 338 915 210 838 q 621 992 467 992 q 758 976 689 992 q 874 935 826 961 l 824 765 q 597 821 700 821 q 410 766 488 821 q 294 619 333 711 q 254 415 254 526 q 481 151 254 151 q 725 207 583 151 l 715 38 q 585 -4 660 11 q 444 -19 511 -19 m 544 1158 l 813 1290 l 788 1135 l 528 1054 l 544 1158 z "},"Č":{"ha":824,"x_min":58,"x_max":874,"o":"m 444 -19 q 239 31 326 -19 q 105 174 151 81 q 58 399 58 268 q 134 702 58 567 q 338 915 210 838 q 621 992 467 992 q 758 976 689 992 q 874 935 826 961 l 824 765 q 597 821 700 821 q 410 766 488 821 q 294 619 333 711 q 254 415 254 526 q 481 151 254 151 q 725 207 583 151 l 715 38 q 585 -4 660 11 q 444 -19 511 -19 m 482 1163 l 500 1265 l 661 1157 l 833 1263 l 813 1144 l 642 1035 l 482 1163 z "},"Ç":{"ha":824,"x_min":58,"x_max":874,"o":"m 597 821 q 410 766 488 821 q 294 619 333 711 q 254 415 254 526 q 481 151 254 151 q 725 207 583 151 l 715 38 q 607 1 667 15 q 488 -18 547 -14 l 460 -75 l 468 -75 q 547 -101 518 -75 q 575 -175 575 -128 q 523 -288 575 -244 q 392 -332 471 -332 q 282 -306 329 -332 l 324 -224 q 410 -247 368 -247 q 465 -233 444 -247 q 485 -194 485 -218 q 421 -153 485 -153 q 351 -162 389 -153 l 411 -18 q 153 103 247 -7 q 58 399 58 213 q 134 702 58 567 q 338 915 210 838 q 621 992 467 992 q 758 976 689 992 q 874 935 826 961 l 824 765 q 597 821 700 821 z "},"Ḉ":{"ha":824,"x_min":58,"x_max":874,"o":"m 788 1135 l 528 1054 l 544 1158 l 813 1290 l 788 1135 m 597 821 q 410 766 488 821 q 294 619 333 711 q 254 415 254 526 q 481 151 254 151 q 725 207 583 151 l 715 38 q 607 1 667 15 q 488 -18 547 -14 l 460 -75 l 468 -75 q 547 -101 518 -75 q 575 -175 575 -128 q 523 -288 575 -244 q 392 -332 471 -332 q 282 -306 329 -332 l 324 -224 q 410 -247 368 -247 q 465 -233 444 -247 q 485 -194 485 -218 q 421 -153 485 -153 q 351 -162 389 -153 l 411 -18 q 153 103 247 -7 q 58 399 58 213 q 134 702 58 567 q 338 915 210 838 q 621 992 467 992 q 758 976 689 992 q 874 935 826 961 l 824 765 q 597 821 700 821 z "},"Ĉ":{"ha":824,"x_min":58,"x_max":874,"o":"m 444 -19 q 239 31 326 -19 q 105 174 151 81 q 58 399 58 268 q 134 702 58 567 q 338 915 210 838 q 621 992 467 992 q 758 976 689 992 q 874 935 826 961 l 824 765 q 597 821 700 821 q 410 766 488 821 q 294 619 333 711 q 254 415 254 526 q 481 151 254 151 q 725 207 583 151 l 715 38 q 585 -4 660 11 q 444 -19 511 -19 m 847 1138 l 829 1035 l 664 1135 l 494 1051 l 513 1154 l 688 1265 l 847 1138 z "},"Ċ":{"ha":824,"x_min":58,"x_max":874,"o":"m 444 -19 q 239 31 326 -19 q 105 174 151 81 q 58 399 58 268 q 134 702 58 567 q 338 915 210 838 q 621 992 467 992 q 758 976 689 992 q 874 935 826 961 l 824 765 q 597 821 700 821 q 410 766 488 821 q 294 619 333 711 q 254 415 254 526 q 481 151 254 151 q 725 207 583 151 l 715 38 q 585 -4 660 11 q 444 -19 511 -19 m 611 1235 l 753 1235 l 728 1100 l 586 1100 l 611 1235 z "},"D":{"ha":975,"x_min":36,"x_max":942,"o":"m 207 972 l 557 972 q 838 867 735 972 q 942 567 942 761 q 867 274 942 403 q 666 72 793 144 q 386 0 539 0 l 36 0 l 207 972 m 417 171 q 595 222 521 171 q 708 358 669 272 q 746 550 746 444 q 691 738 746 674 q 528 801 636 801 l 356 801 l 244 171 l 417 171 z "},"Ǆ":{"ha":1700,"x_min":36,"x_max":1783,"o":"m 207 972 l 557 972 q 838 867 735 972 q 942 567 942 761 q 867 274 942 403 q 666 72 793 144 q 386 0 539 0 l 36 0 l 207 972 m 417 171 q 595 222 521 171 q 708 358 669 272 q 746 550 746 444 q 691 738 746 674 q 528 801 636 801 l 356 801 l 244 171 l 417 171 m 1460 800 l 1103 800 l 1133 972 l 1783 972 l 1225 172 l 1582 172 l 1551 0 l 901 0 l 1460 800 m 1321 1210 l 1343 1319 l 1503 1204 l 1701 1319 l 1679 1197 l 1474 1054 l 1321 1210 z "},"Ð":{"ha":994,"x_min":39,"x_max":961,"o":"m 576 972 q 779 925 692 972 q 914 789 867 878 q 961 578 961 700 q 887 274 961 406 q 685 72 813 143 q 404 0 558 0 l 54 0 l 129 429 l 39 429 l 63 560 l 153 560 l 225 972 l 576 972 m 435 171 q 614 221 540 171 q 726 359 688 271 q 764 561 764 447 q 709 738 764 675 q 546 801 654 801 l 374 801 l 331 560 l 508 560 l 486 429 l 308 429 l 263 171 l 435 171 z "},"Ď":{"ha":975,"x_min":36,"x_max":942,"o":"m 207 972 l 557 972 q 838 867 735 972 q 942 567 942 761 q 867 274 942 403 q 666 72 793 144 q 386 0 539 0 l 36 0 l 207 972 m 417 171 q 595 222 521 171 q 708 358 669 272 q 746 550 746 444 q 691 738 746 674 q 528 801 636 801 l 356 801 l 244 171 l 417 171 m 446 1163 l 464 1265 l 625 1157 l 797 1263 l 776 1144 l 606 1035 l 446 1163 z "},"Đ":{"ha":994,"x_min":39,"x_max":961,"o":"m 576 972 q 779 925 692 972 q 914 789 867 878 q 961 578 961 700 q 887 274 961 406 q 685 72 813 143 q 404 0 558 0 l 54 0 l 129 429 l 39 429 l 63 560 l 153 560 l 225 972 l 576 972 m 435 171 q 614 221 540 171 q 726 359 688 271 q 764 561 764 447 q 709 738 764 675 q 546 801 654 801 l 374 801 l 331 560 l 508 560 l 486 429 l 308 429 l 263 171 l 435 171 z "},"Ḍ":{"ha":975,"x_min":36,"x_max":942,"o":"m 207 972 l 557 972 q 838 867 735 972 q 942 567 942 761 q 867 274 942 403 q 666 72 793 144 q 386 0 539 0 l 36 0 l 207 972 m 417 171 q 595 222 521 171 q 708 358 669 272 q 746 550 746 444 q 691 738 746 674 q 528 801 636 801 l 356 801 l 244 171 l 417 171 m 401 -112 l 540 -112 l 515 -247 l 376 -247 l 401 -112 z "},"Ḏ":{"ha":975,"x_min":36,"x_max":942,"o":"m 207 972 l 557 972 q 838 867 735 972 q 942 567 942 761 q 867 274 942 403 q 666 72 793 144 q 386 0 539 0 l 36 0 l 207 972 m 417 171 q 595 222 521 171 q 708 358 669 272 q 746 550 746 444 q 691 738 746 674 q 528 801 636 801 l 356 801 l 244 171 l 417 171 m 243 -126 l 688 -126 l 665 -239 l 221 -239 l 243 -126 z "},"ǅ":{"ha":1606,"x_min":36,"x_max":1625,"o":"m 207 972 l 557 972 q 838 867 735 972 q 942 567 942 761 q 867 274 942 403 q 666 72 793 144 q 386 0 539 0 l 36 0 l 207 972 m 417 171 q 595 222 521 171 q 708 358 669 272 q 746 550 746 444 q 691 738 746 674 q 528 801 636 801 l 356 801 l 244 171 l 417 171 m 1308 542 l 1035 542 l 1063 694 l 1625 694 l 1243 153 l 1514 153 l 1486 0 l 926 0 l 1308 542 m 1207 932 l 1229 1042 l 1389 926 l 1588 1042 l 1565 919 l 1360 776 l 1207 932 z "},"E":{"ha":771,"x_min":36,"x_max":810,"o":"m 207 972 l 810 972 l 779 800 l 360 800 l 324 593 l 647 593 l 617 421 l 293 421 l 249 172 l 682 172 l 651 0 l 36 0 l 207 972 z "},"É":{"ha":771,"x_min":36,"x_max":810,"o":"m 207 972 l 810 972 l 779 800 l 360 800 l 324 593 l 647 593 l 617 421 l 293 421 l 249 172 l 682 172 l 651 0 l 36 0 l 207 972 m 426 1185 l 707 1335 l 681 1161 l 403 1069 l 426 1185 z "},"Ĕ":{"ha":771,"x_min":36,"x_max":810,"o":"m 207 972 l 810 972 l 779 800 l 360 800 l 324 593 l 647 593 l 617 421 l 293 421 l 249 172 l 682 172 l 651 0 l 36 0 l 207 972 m 526 1063 q 391 1106 440 1063 q 342 1214 342 1149 q 344 1246 342 1224 l 463 1246 q 460 1224 460 1235 q 482 1174 460 1192 q 542 1157 504 1157 q 615 1181 585 1157 q 651 1246 644 1204 l 772 1246 q 692 1113 758 1163 q 526 1063 625 1063 z "},"Ě":{"ha":771,"x_min":36,"x_max":810,"o":"m 207 972 l 810 972 l 779 800 l 360 800 l 324 593 l 647 593 l 617 421 l 293 421 l 249 172 l 682 172 l 651 0 l 36 0 l 207 972 m 357 1163 l 375 1265 l 536 1157 l 708 1263 l 688 1144 l 517 1035 l 357 1163 z "},"Ḝ":{"ha":771,"x_min":36,"x_max":810,"o":"m 207 972 l 810 972 l 779 800 l 360 800 l 324 593 l 647 593 l 617 421 l 293 421 l 249 172 l 682 172 l 651 0 l 36 0 l 207 972 m 372 -75 q 451 -101 422 -75 q 479 -175 479 -128 q 427 -288 479 -244 q 296 -332 375 -332 q 186 -306 233 -332 l 228 -224 q 314 -247 272 -247 q 369 -233 349 -247 q 389 -194 389 -218 q 325 -153 389 -153 q 256 -162 293 -153 l 324 0 l 400 0 l 364 -75 l 372 -75 m 526 1063 q 391 1106 440 1063 q 342 1214 342 1149 q 344 1246 342 1224 l 463 1246 q 460 1224 460 1235 q 482 1174 460 1192 q 542 1157 504 1157 q 615 1181 585 1157 q 651 1246 644 1204 l 772 1246 q 692 1113 758 1163 q 526 1063 625 1063 z "},"Ê":{"ha":771,"x_min":36,"x_max":810,"o":"m 207 972 l 810 972 l 779 800 l 360 800 l 324 593 l 647 593 l 617 421 l 293 421 l 249 172 l 682 172 l 651 0 l 36 0 l 207 972 m 393 1176 l 576 1313 l 729 1157 l 707 1047 l 547 1163 l 369 1064 l 393 1176 z "},"Ế":{"ha":771,"x_min":36,"x_max":901,"o":"m 207 972 l 810 972 l 779 800 l 360 800 l 324 593 l 647 593 l 617 421 l 293 421 l 249 172 l 682 172 l 651 0 l 36 0 l 207 972 m 742 1421 l 901 1421 l 747 1258 l 638 1258 l 742 1421 m 725 1151 l 707 1049 l 542 1149 l 372 1065 l 390 1168 l 565 1279 l 725 1151 z "},"Ệ":{"ha":771,"x_min":36,"x_max":810,"o":"m 207 972 l 810 972 l 779 800 l 360 800 l 324 593 l 647 593 l 617 421 l 293 421 l 249 172 l 682 172 l 651 0 l 36 0 l 207 972 m 722 1138 l 704 1035 l 539 1135 l 369 1051 l 388 1154 l 563 1265 l 722 1138 m 272 -112 l 411 -112 l 386 -247 l 247 -247 l 272 -112 z "},"Ề":{"ha":771,"x_min":36,"x_max":810,"o":"m 207 972 l 810 972 l 779 800 l 360 800 l 324 593 l 647 593 l 617 421 l 293 421 l 249 172 l 682 172 l 651 0 l 36 0 l 207 972 m 660 1258 l 576 1435 l 725 1435 l 765 1258 l 660 1258 m 724 1151 l 706 1049 l 540 1149 l 371 1065 l 389 1168 l 564 1279 l 724 1151 z "},"Ể":{"ha":771,"x_min":36,"x_max":814,"o":"m 207 972 l 810 972 l 779 800 l 360 800 l 324 593 l 647 593 l 617 421 l 293 421 l 249 172 l 682 172 l 651 0 l 36 0 l 207 972 m 722 1138 l 704 1035 l 539 1135 l 369 1051 l 388 1154 l 563 1265 l 722 1138 m 661 1272 q 721 1324 721 1286 q 676 1358 721 1358 q 589 1336 640 1358 l 579 1421 q 694 1443 638 1443 q 781 1418 749 1443 q 814 1349 814 1393 q 665 1211 814 1247 l 661 1272 z "},"Ễ":{"ha":771,"x_min":36,"x_max":822,"o":"m 207 972 l 810 972 l 779 800 l 360 800 l 324 593 l 647 593 l 617 421 l 293 421 l 249 172 l 682 172 l 651 0 l 36 0 l 207 972 m 722 1138 l 704 1035 l 539 1135 l 369 1051 l 388 1154 l 563 1265 l 722 1138 m 686 1301 q 642 1308 665 1301 q 589 1329 619 1315 q 547 1347 568 1339 q 510 1354 525 1354 q 464 1311 472 1354 l 358 1311 q 497 1457 386 1457 q 592 1429 531 1457 q 634 1412 613 1419 q 671 1404 656 1404 q 717 1450 708 1404 l 822 1450 q 776 1339 811 1376 q 686 1301 742 1301 z "},"Ȅ":{"ha":771,"x_min":36,"x_max":810,"o":"m 207 972 l 810 972 l 779 800 l 360 800 l 324 593 l 647 593 l 617 421 l 293 421 l 249 172 l 682 172 l 651 0 l 36 0 l 207 972 m 375 1094 l 275 1313 l 432 1313 l 482 1094 l 375 1094 m 576 1094 l 488 1313 l 644 1313 l 683 1094 l 576 1094 z "},"Ë":{"ha":771,"x_min":36,"x_max":810,"o":"m 207 972 l 810 972 l 779 800 l 360 800 l 324 593 l 647 593 l 617 421 l 293 421 l 249 172 l 682 172 l 651 0 l 36 0 l 207 972 m 356 1224 l 486 1224 l 461 1099 l 331 1099 l 356 1224 m 631 1224 l 761 1224 l 736 1099 l 606 1099 l 631 1224 z "},"Ė":{"ha":771,"x_min":36,"x_max":810,"o":"m 207 972 l 810 972 l 779 800 l 360 800 l 324 593 l 647 593 l 617 421 l 293 421 l 249 172 l 682 172 l 651 0 l 36 0 l 207 972 m 486 1235 l 628 1235 l 603 1100 l 461 1100 l 486 1235 z "},"Ẹ":{"ha":771,"x_min":36,"x_max":810,"o":"m 207 972 l 810 972 l 779 800 l 360 800 l 324 593 l 647 593 l 617 421 l 293 421 l 249 172 l 682 172 l 651 0 l 36 0 l 207 972 m 272 -112 l 411 -112 l 386 -247 l 247 -247 l 272 -112 z "},"È":{"ha":771,"x_min":36,"x_max":810,"o":"m 207 972 l 810 972 l 779 800 l 360 800 l 324 593 l 647 593 l 617 421 l 293 421 l 249 172 l 682 172 l 651 0 l 36 0 l 207 972 m 414 1175 l 442 1335 l 676 1179 l 657 1069 l 414 1175 z "},"Ẻ":{"ha":771,"x_min":36,"x_max":810,"o":"m 207 972 l 810 972 l 779 800 l 360 800 l 324 593 l 647 593 l 617 421 l 293 421 l 249 172 l 682 172 l 651 0 l 36 0 l 207 972 m 499 1071 q 556 1121 536 1099 q 576 1168 576 1143 q 565 1196 576 1186 q 535 1206 554 1206 q 444 1181 500 1206 l 438 1263 q 551 1288 497 1288 q 635 1262 603 1288 q 667 1190 667 1236 q 634 1098 667 1138 q 540 1019 601 1058 l 499 1071 z "},"Ȇ":{"ha":771,"x_min":36,"x_max":810,"o":"m 207 972 l 810 972 l 779 800 l 360 800 l 324 593 l 647 593 l 617 421 l 293 421 l 249 172 l 682 172 l 651 0 l 36 0 l 207 972 m 563 1267 q 697 1224 649 1267 q 746 1117 746 1182 q 743 1083 746 1106 l 625 1083 q 628 1104 628 1097 q 606 1155 628 1138 q 546 1172 583 1172 q 474 1149 503 1172 q 438 1083 444 1125 l 319 1083 q 400 1214 333 1161 q 563 1267 467 1267 z "},"Ē":{"ha":771,"x_min":36,"x_max":810,"o":"m 207 972 l 810 972 l 779 800 l 360 800 l 324 593 l 647 593 l 617 421 l 293 421 l 249 172 l 682 172 l 651 0 l 36 0 l 207 972 m 329 1207 l 774 1207 l 754 1101 l 310 1101 l 329 1207 z "},"Ḗ":{"ha":771,"x_min":36,"x_max":810,"o":"m 207 972 l 810 972 l 779 800 l 360 800 l 324 593 l 647 593 l 617 421 l 293 421 l 249 172 l 682 172 l 651 0 l 36 0 l 207 972 m 329 1207 l 774 1207 l 754 1101 l 310 1101 l 329 1207 m 464 1394 l 732 1526 l 707 1371 l 447 1290 l 464 1394 z "},"Ḕ":{"ha":771,"x_min":36,"x_max":810,"o":"m 207 972 l 810 972 l 779 800 l 360 800 l 324 593 l 647 593 l 617 421 l 293 421 l 249 172 l 682 172 l 651 0 l 36 0 l 207 972 m 329 1207 l 774 1207 l 754 1101 l 310 1101 l 329 1207 m 451 1371 l 479 1518 l 717 1386 l 697 1290 l 451 1371 z "},"Ę":{"ha":771,"x_min":36,"x_max":810,"o":"m 207 972 l 810 972 l 779 800 l 360 800 l 324 593 l 647 593 l 617 421 l 293 421 l 249 172 l 682 172 l 651 0 l 36 0 l 207 972 m 651 0 q 517 -158 517 -87 q 530 -196 517 -183 q 568 -208 543 -208 q 650 -192 608 -208 l 660 -268 q 539 -293 604 -293 q 456 -267 488 -293 q 422 -196 424 -242 q 463 -89 422 -140 q 565 0 504 -37 l 651 0 z "},"Ẽ":{"ha":771,"x_min":36,"x_max":810,"o":"m 207 972 l 810 972 l 779 800 l 360 800 l 324 593 l 647 593 l 617 421 l 293 421 l 249 172 l 682 172 l 651 0 l 36 0 l 207 972 m 657 1081 q 615 1088 636 1081 q 556 1113 594 1096 q 508 1132 532 1124 q 468 1140 485 1140 q 429 1127 444 1140 q 410 1092 414 1114 l 301 1092 q 350 1217 313 1174 q 446 1260 388 1260 q 494 1251 469 1260 q 549 1226 518 1242 q 629 1200 604 1200 q 682 1253 674 1200 l 796 1253 q 748 1123 782 1165 q 657 1081 714 1081 z "},"F":{"ha":713,"x_min":36,"x_max":783,"o":"m 207 972 l 783 972 l 753 800 l 356 800 l 318 593 l 626 593 l 596 421 l 288 421 l 214 0 l 36 0 l 207 972 z "},"G":{"ha":897,"x_min":58,"x_max":893,"o":"m 438 -19 q 238 31 324 -19 q 105 177 151 82 q 58 401 58 272 q 133 702 58 567 q 337 915 208 838 q 619 992 465 992 q 770 976 692 992 q 893 935 849 960 l 843 765 q 724 805 792 789 q 597 821 657 821 q 410 765 488 821 q 294 617 333 708 q 256 422 256 526 q 314 223 256 294 q 486 151 372 151 q 611 167 538 151 l 642 340 l 546 340 l 572 488 l 844 488 l 768 54 q 615 2 714 24 q 438 -19 517 -19 z "},"Ğ":{"ha":897,"x_min":58,"x_max":893,"o":"m 438 -19 q 238 31 324 -19 q 105 177 151 82 q 58 401 58 272 q 133 702 58 567 q 337 915 208 838 q 619 992 465 992 q 770 976 692 992 q 893 935 849 960 l 843 765 q 724 805 792 789 q 597 821 657 821 q 410 765 488 821 q 294 617 333 708 q 256 422 256 526 q 314 223 256 294 q 486 151 372 151 q 611 167 538 151 l 642 340 l 546 340 l 572 488 l 844 488 l 768 54 q 615 2 714 24 q 438 -19 517 -19 m 633 1063 q 498 1106 547 1063 q 449 1214 449 1149 q 451 1246 449 1224 l 569 1246 q 567 1224 567 1235 q 589 1174 567 1192 q 649 1157 611 1157 q 722 1181 692 1157 q 758 1246 751 1204 l 879 1246 q 799 1113 865 1163 q 633 1063 732 1063 z "},"Ǧ":{"ha":897,"x_min":58,"x_max":893,"o":"m 438 -19 q 238 31 324 -19 q 105 177 151 82 q 58 401 58 272 q 133 702 58 567 q 337 915 208 838 q 619 992 465 992 q 770 976 692 992 q 893 935 849 960 l 843 765 q 724 805 792 789 q 597 821 657 821 q 410 765 488 821 q 294 617 333 708 q 256 422 256 526 q 314 223 256 294 q 486 151 372 151 q 611 167 538 151 l 642 340 l 546 340 l 572 488 l 844 488 l 768 54 q 615 2 714 24 q 438 -19 517 -19 m 464 1163 l 482 1265 l 643 1157 l 815 1263 l 794 1144 l 624 1035 l 464 1163 z "},"Ĝ":{"ha":897,"x_min":58,"x_max":893,"o":"m 438 -19 q 238 31 324 -19 q 105 177 151 82 q 58 401 58 272 q 133 702 58 567 q 337 915 208 838 q 619 992 465 992 q 770 976 692 992 q 893 935 849 960 l 843 765 q 724 805 792 789 q 597 821 657 821 q 410 765 488 821 q 294 617 333 708 q 256 422 256 526 q 314 223 256 294 q 486 151 372 151 q 611 167 538 151 l 642 340 l 546 340 l 572 488 l 844 488 l 768 54 q 615 2 714 24 q 438 -19 517 -19 m 829 1138 l 811 1035 l 646 1135 l 476 1051 l 494 1154 l 669 1265 l 829 1138 z "},"Ģ":{"ha":897,"x_min":58,"x_max":893,"o":"m 438 -19 q 238 31 324 -19 q 105 177 151 82 q 58 401 58 272 q 133 702 58 567 q 337 915 208 838 q 619 992 465 992 q 770 976 692 992 q 893 935 849 960 l 843 765 q 724 805 792 789 q 597 821 657 821 q 410 765 488 821 q 294 617 333 708 q 256 422 256 526 q 314 223 256 294 q 486 151 372 151 q 611 167 538 151 l 642 340 l 546 340 l 572 488 l 844 488 l 768 54 q 615 2 714 24 q 438 -19 517 -19 m 317 -385 l 386 -261 l 332 -261 l 356 -126 l 500 -126 l 476 -261 l 376 -385 l 317 -385 z "},"Ġ":{"ha":897,"x_min":58,"x_max":893,"o":"m 438 -19 q 238 31 324 -19 q 105 177 151 82 q 58 401 58 272 q 133 702 58 567 q 337 915 208 838 q 619 992 465 992 q 770 976 692 992 q 893 935 849 960 l 843 765 q 724 805 792 789 q 597 821 657 821 q 410 765 488 821 q 294 617 333 708 q 256 422 256 526 q 314 223 256 294 q 486 151 372 151 q 611 167 538 151 l 642 340 l 546 340 l 572 488 l 844 488 l 768 54 q 615 2 714 24 q 438 -19 517 -19 m 593 1235 l 735 1235 l 710 1100 l 568 1100 l 593 1235 z "},"Ḡ":{"ha":897,"x_min":58,"x_max":893,"o":"m 438 -19 q 238 31 324 -19 q 105 177 151 82 q 58 401 58 272 q 133 702 58 567 q 337 915 208 838 q 619 992 465 992 q 770 976 692 992 q 893 935 849 960 l 843 765 q 724 805 792 789 q 597 821 657 821 q 410 765 488 821 q 294 617 333 708 q 256 422 256 526 q 314 223 256 294 q 486 151 372 151 q 611 167 538 151 l 642 340 l 546 340 l 572 488 l 844 488 l 768 54 q 615 2 714 24 q 438 -19 517 -19 m 436 1207 l 881 1207 l 861 1101 l 417 1101 l 436 1207 z "},"H":{"ha":997,"x_min":36,"x_max":989,"o":"m 207 972 l 385 972 l 318 593 l 744 593 l 811 972 l 989 972 l 818 0 l 640 0 l 714 421 l 288 421 l 214 0 l 36 0 l 207 972 z "},"Ħ":{"ha":1006,"x_min":36,"x_max":1036,"o":"m 1014 678 l 938 678 l 818 0 l 640 0 l 714 421 l 288 421 l 214 0 l 36 0 l 156 678 l 79 678 l 100 803 l 178 803 l 207 972 l 385 972 l 356 803 l 782 803 l 811 972 l 989 972 l 960 803 l 1036 803 l 1014 678 m 760 678 l 333 678 l 318 593 l 744 593 l 760 678 z "},"Ḫ":{"ha":997,"x_min":36,"x_max":989,"o":"m 207 972 l 385 972 l 318 593 l 744 593 l 811 972 l 989 972 l 818 0 l 640 0 l 714 421 l 288 421 l 214 0 l 36 0 l 207 972 m 388 -319 q 251 -276 301 -319 q 201 -165 201 -232 q 206 -126 201 -143 l 317 -126 q 314 -149 314 -140 q 335 -198 314 -181 q 394 -215 357 -215 q 469 -192 439 -215 q 508 -126 500 -168 l 633 -126 q 549 -268 611 -217 q 388 -319 486 -319 z "},"Ĥ":{"ha":997,"x_min":36,"x_max":989,"o":"m 207 972 l 385 972 l 318 593 l 744 593 l 811 972 l 989 972 l 818 0 l 640 0 l 714 421 l 288 421 l 214 0 l 36 0 l 207 972 m 811 1138 l 793 1035 l 628 1135 l 458 1051 l 476 1154 l 651 1265 l 811 1138 z "},"Ḥ":{"ha":997,"x_min":36,"x_max":989,"o":"m 207 972 l 385 972 l 318 593 l 744 593 l 811 972 l 989 972 l 818 0 l 640 0 l 714 421 l 288 421 l 214 0 l 36 0 l 207 972 m 342 -112 l 481 -112 l 456 -247 l 317 -247 l 342 -112 z "},"I":{"ha":393,"x_min":36,"x_max":385,"o":"m 207 972 l 385 972 l 214 0 l 36 0 l 207 972 z "},"Ĳ":{"ha":965,"x_min":88,"x_max":969,"o":"m 408 -19 q 172 58 251 -19 q 88 278 92 135 l 272 322 q 315 195 276 239 q 438 151 353 151 q 617 237 558 151 q 704 476 676 322 l 792 972 l 969 972 l 871 417 q 717 97 835 213 q 408 -19 600 -19 m 197 972 l 374 972 l 286 476 q 278 421 281 449 l 99 421 l 197 972 z "},"Í":{"ha":393,"x_min":36,"x_max":496,"o":"m 207 972 l 385 972 l 214 0 l 36 0 l 207 972 m 215 1185 l 496 1335 l 469 1161 l 192 1069 l 215 1185 z "},"Ĭ":{"ha":393,"x_min":36,"x_max":561,"o":"m 207 972 l 385 972 l 214 0 l 36 0 l 207 972 m 315 1063 q 180 1106 229 1063 q 131 1214 131 1149 q 133 1246 131 1224 l 251 1246 q 249 1224 249 1235 q 271 1174 249 1192 q 331 1157 293 1157 q 403 1181 374 1157 q 440 1246 433 1204 l 561 1246 q 481 1113 547 1163 q 315 1063 414 1063 z "},"Î":{"ha":393,"x_min":36,"x_max":518,"o":"m 207 972 l 385 972 l 214 0 l 36 0 l 207 972 m 182 1176 l 365 1313 l 518 1157 l 496 1047 l 336 1163 l 158 1064 l 182 1176 z "},"Ȉ":{"ha":393,"x_min":36,"x_max":472,"o":"m 207 972 l 385 972 l 214 0 l 36 0 l 207 972 m 164 1094 l 64 1313 l 221 1313 l 271 1094 l 164 1094 m 365 1094 l 276 1313 l 433 1313 l 472 1094 l 365 1094 z "},"Ï":{"ha":393,"x_min":36,"x_max":550,"o":"m 207 972 l 385 972 l 214 0 l 36 0 l 207 972 m 144 1224 l 275 1224 l 250 1099 l 119 1099 l 144 1224 m 419 1224 l 550 1224 l 525 1099 l 394 1099 l 419 1224 z "},"Ḯ":{"ha":393,"x_min":36,"x_max":542,"o":"m 207 972 l 385 972 l 214 0 l 36 0 l 207 972 m 139 1207 l 269 1207 l 247 1088 l 117 1088 l 139 1207 m 411 1207 l 542 1207 l 519 1088 l 389 1088 l 411 1207 m 244 1367 l 513 1499 l 488 1343 l 228 1263 l 244 1367 z "},"İ":{"ha":393,"x_min":36,"x_max":417,"o":"m 207 972 l 385 972 l 214 0 l 36 0 l 207 972 m 275 1235 l 417 1235 l 392 1100 l 250 1100 l 275 1235 z "},"Ị":{"ha":393,"x_min":14,"x_max":385,"o":"m 207 972 l 385 972 l 214 0 l 36 0 l 207 972 m 39 -112 l 178 -112 l 153 -247 l 14 -247 l 39 -112 z "},"Ì":{"ha":393,"x_min":36,"x_max":465,"o":"m 207 972 l 385 972 l 214 0 l 36 0 l 207 972 m 203 1175 l 231 1335 l 465 1179 l 446 1069 l 203 1175 z "},"Ỉ":{"ha":393,"x_min":36,"x_max":456,"o":"m 207 972 l 385 972 l 214 0 l 36 0 l 207 972 m 288 1071 q 345 1121 325 1099 q 365 1168 365 1143 q 354 1196 365 1186 q 324 1206 343 1206 q 233 1181 289 1206 l 226 1263 q 340 1288 286 1288 q 424 1262 392 1288 q 456 1190 456 1236 q 423 1098 456 1138 q 329 1019 390 1058 l 288 1071 z "},"Ȋ":{"ha":393,"x_min":36,"x_max":535,"o":"m 207 972 l 385 972 l 214 0 l 36 0 l 207 972 m 351 1267 q 486 1224 438 1267 q 535 1117 535 1182 q 532 1083 535 1106 l 414 1083 q 417 1104 417 1097 q 394 1155 417 1138 q 335 1172 372 1172 q 263 1149 292 1172 q 226 1083 233 1125 l 108 1083 q 189 1214 122 1161 q 351 1267 256 1267 z "},"Ī":{"ha":393,"x_min":36,"x_max":563,"o":"m 207 972 l 385 972 l 214 0 l 36 0 l 207 972 m 118 1207 l 563 1207 l 543 1101 l 99 1101 l 118 1207 z "},"Į":{"ha":393,"x_min":-15,"x_max":385,"o":"m 207 972 l 385 972 l 214 0 l 36 0 l 207 972 m 214 0 q 79 -158 79 -87 q 92 -196 79 -183 q 131 -208 106 -208 q 213 -192 171 -208 l 222 -268 q 101 -293 167 -293 q 18 -267 50 -293 q -15 -196 -14 -242 q 26 -89 -15 -140 q 128 0 67 -37 l 214 0 z "},"Ĩ":{"ha":393,"x_min":36,"x_max":585,"o":"m 207 972 l 385 972 l 214 0 l 36 0 l 207 972 m 446 1081 q 404 1088 425 1081 q 344 1113 383 1096 q 297 1132 321 1124 q 257 1140 274 1140 q 218 1127 233 1140 q 199 1092 203 1114 l 90 1092 q 139 1217 101 1174 q 235 1260 176 1260 q 283 1251 258 1260 q 338 1226 307 1242 q 418 1200 393 1200 q 471 1253 463 1200 l 585 1253 q 537 1123 571 1165 q 446 1081 503 1081 z "},"J":{"ha":393,"x_min":-97,"x_max":385,"o":"m -87 -106 l -46 -106 q 6 -79 -12 -106 q 36 6 25 -53 l 207 972 l 385 972 l 207 -33 q 122 -187 189 -135 q -44 -239 56 -239 l -97 -239 l -87 -106 z "},"Ĵ":{"ha":393,"x_min":-97,"x_max":508,"o":"m -87 -106 l -46 -106 q 6 -79 -12 -106 q 36 6 25 -53 l 207 972 l 385 972 l 207 -33 q 122 -187 189 -135 q -44 -239 56 -239 l -97 -239 l -87 -106 m 508 1138 l 490 1035 l 325 1135 l 156 1051 l 174 1154 l 349 1265 l 508 1138 z "},"K":{"ha":842,"x_min":36,"x_max":925,"o":"m 207 972 l 385 972 l 214 0 l 36 0 l 207 972 m 317 514 l 710 972 l 925 972 l 508 514 l 751 0 l 558 0 l 317 514 z "},"Ķ":{"ha":842,"x_min":36,"x_max":925,"o":"m 207 972 l 385 972 l 214 0 l 36 0 l 207 972 m 317 514 l 710 972 l 925 972 l 508 514 l 751 0 l 558 0 l 317 514 m 253 -385 l 322 -261 l 268 -261 l 292 -126 l 436 -126 l 413 -261 l 313 -385 l 253 -385 z "},"L":{"ha":681,"x_min":36,"x_max":621,"o":"m 207 972 l 385 972 l 244 172 l 621 172 l 590 0 l 36 0 l 207 972 z "},"Ǉ":{"ha":1074,"x_min":36,"x_max":1065,"o":"m 207 972 l 385 972 l 244 172 l 621 172 l 590 0 l 36 0 l 207 972 m 593 -106 l 635 -106 q 687 -79 668 -106 q 717 6 706 -53 l 888 972 l 1065 972 l 888 -33 q 803 -187 869 -135 q 636 -239 736 -239 l 583 -239 l 593 -106 z "},"Ĺ":{"ha":681,"x_min":36,"x_max":621,"o":"m 207 972 l 385 972 l 244 172 l 621 172 l 590 0 l 36 0 l 207 972 m 206 1158 l 474 1290 l 449 1135 l 189 1054 l 206 1158 z "},"Ľ":{"ha":681,"x_min":36,"x_max":769,"o":"m 207 972 l 385 972 l 244 172 l 621 172 l 590 0 l 36 0 l 207 972 m 635 972 l 769 972 l 685 726 l 590 726 l 635 972 z "},"Ļ":{"ha":681,"x_min":36,"x_max":621,"o":"m 207 972 l 385 972 l 244 172 l 621 172 l 590 0 l 36 0 l 207 972 m 208 -385 l 278 -261 l 224 -261 l 247 -126 l 392 -126 l 368 -261 l 268 -385 l 208 -385 z "},"Ŀ":{"ha":681,"x_min":36,"x_max":646,"o":"m 207 972 l 385 972 l 244 172 l 621 172 l 590 0 l 36 0 l 207 972 m 479 635 l 646 635 l 615 454 l 449 454 l 479 635 z "},"Ḷ":{"ha":681,"x_min":36,"x_max":621,"o":"m 207 972 l 385 972 l 244 172 l 621 172 l 590 0 l 36 0 l 207 972 m 256 -112 l 394 -112 l 369 -247 l 231 -247 l 256 -112 z "},"ǈ":{"ha":1018,"x_min":36,"x_max":1035,"o":"m 207 972 l 385 972 l 244 172 l 621 172 l 590 0 l 36 0 l 207 972 m 863 972 l 1035 972 l 1004 800 l 832 800 l 863 972 m 579 -194 q 633 -188 617 -194 q 658 -160 649 -182 q 676 -83 667 -139 l 814 694 l 986 694 l 836 -154 q 772 -286 821 -236 q 633 -336 722 -336 l 569 -336 l 579 -194 z "},"Ḻ":{"ha":681,"x_min":36,"x_max":621,"o":"m 207 972 l 385 972 l 244 172 l 621 172 l 590 0 l 36 0 l 207 972 m 97 -126 l 542 -126 l 519 -239 l 75 -239 l 97 -126 z "},"Ł":{"ha":681,"x_min":24,"x_max":621,"o":"m 621 172 l 590 0 l 36 0 l 121 482 l 24 446 l 49 585 l 146 621 l 207 972 l 385 972 l 336 693 l 599 792 l 574 653 l 311 554 l 244 172 l 621 172 z "},"M":{"ha":1124,"x_min":-11,"x_max":1029,"o":"m 290 972 l 444 972 l 582 529 l 876 972 l 1029 972 l 989 0 l 804 0 l 843 646 l 525 204 l 365 646 l 174 0 l -11 0 l 290 972 z "},"Ṃ":{"ha":1124,"x_min":-11,"x_max":1029,"o":"m 290 972 l 444 972 l 582 529 l 876 972 l 1029 972 l 989 0 l 804 0 l 843 646 l 525 204 l 365 646 l 174 0 l -11 0 l 290 972 m 403 -112 l 542 -112 l 517 -247 l 378 -247 l 403 -112 z "},"N":{"ha":956,"x_min":36,"x_max":947,"o":"m 207 972 l 381 972 l 658 344 l 769 972 l 947 972 l 775 0 l 631 0 l 332 667 l 214 0 l 36 0 l 207 972 z "},"Ǌ":{"ha":1349,"x_min":36,"x_max":1340,"o":"m 207 972 l 381 972 l 658 344 l 769 972 l 947 972 l 775 0 l 631 0 l 332 667 l 214 0 l 36 0 l 207 972 m 868 -106 l 910 -106 q 962 -79 943 -106 q 992 6 981 -53 l 1163 972 l 1340 972 l 1163 -33 q 1078 -187 1144 -135 q 911 -239 1011 -239 l 858 -239 l 868 -106 z "},"Ń":{"ha":956,"x_min":36,"x_max":947,"o":"m 207 972 l 381 972 l 658 344 l 769 972 l 947 972 l 775 0 l 631 0 l 332 667 l 214 0 l 36 0 l 207 972 m 485 1158 l 753 1290 l 728 1135 l 468 1054 l 485 1158 z "},"Ň":{"ha":956,"x_min":36,"x_max":947,"o":"m 207 972 l 381 972 l 658 344 l 769 972 l 947 972 l 775 0 l 631 0 l 332 667 l 214 0 l 36 0 l 207 972 m 422 1163 l 440 1265 l 601 1157 l 774 1263 l 753 1144 l 582 1035 l 422 1163 z "},"Ņ":{"ha":956,"x_min":36,"x_max":947,"o":"m 207 972 l 381 972 l 658 344 l 769 972 l 947 972 l 775 0 l 631 0 l 332 667 l 214 0 l 36 0 l 207 972 m 289 -385 l 358 -261 l 304 -261 l 328 -126 l 472 -126 l 449 -261 l 349 -385 l 289 -385 z "},"Ṅ":{"ha":956,"x_min":36,"x_max":947,"o":"m 207 972 l 381 972 l 658 344 l 769 972 l 947 972 l 775 0 l 631 0 l 332 667 l 214 0 l 36 0 l 207 972 m 551 1235 l 693 1235 l 668 1100 l 526 1100 l 551 1235 z "},"Ṇ":{"ha":956,"x_min":36,"x_max":947,"o":"m 207 972 l 381 972 l 658 344 l 769 972 l 947 972 l 775 0 l 631 0 l 332 667 l 214 0 l 36 0 l 207 972 m 336 -112 l 475 -112 l 450 -247 l 311 -247 l 336 -112 z "},"Ŋ":{"ha":968,"x_min":44,"x_max":913,"o":"m 810 53 q 681 -199 782 -114 q 433 -285 579 -285 q 283 -260 353 -285 l 331 -96 q 451 -114 385 -114 q 569 -76 522 -114 q 629 42 615 -39 l 718 553 q 726 643 726 606 q 685 774 726 728 q 565 821 644 821 q 444 794 499 821 q 350 721 389 768 l 222 0 l 44 0 l 217 972 l 368 972 l 360 879 q 491 963 419 935 q 639 992 563 992 q 843 912 774 992 q 913 699 913 832 q 901 581 913 640 l 810 53 z "},"ǋ":{"ha":1279,"x_min":36,"x_max":1296,"o":"m 207 972 l 381 972 l 658 344 l 769 972 l 947 972 l 775 0 l 631 0 l 332 667 l 214 0 l 36 0 l 207 972 m 1124 972 l 1296 972 l 1265 800 l 1093 800 l 1124 972 m 840 -194 q 894 -188 878 -194 q 919 -160 910 -182 q 938 -83 928 -139 l 1075 694 l 1247 694 l 1097 -154 q 1033 -286 1082 -236 q 894 -336 983 -336 l 831 -336 l 840 -194 z "},"Ṉ":{"ha":956,"x_min":36,"x_max":947,"o":"m 207 972 l 381 972 l 658 344 l 769 972 l 947 972 l 775 0 l 631 0 l 332 667 l 214 0 l 36 0 l 207 972 m 178 -126 l 622 -126 l 600 -239 l 156 -239 l 178 -126 z "},"Ñ":{"ha":956,"x_min":36,"x_max":947,"o":"m 207 972 l 381 972 l 658 344 l 769 972 l 947 972 l 775 0 l 631 0 l 332 667 l 214 0 l 36 0 l 207 972 m 722 1081 q 681 1088 701 1081 q 621 1113 660 1096 q 574 1132 597 1124 q 533 1140 550 1140 q 494 1127 510 1140 q 475 1092 479 1114 l 367 1092 q 415 1217 378 1174 q 511 1260 453 1260 q 559 1251 535 1260 q 614 1226 583 1242 q 694 1200 669 1200 q 747 1253 739 1200 l 861 1253 q 813 1123 847 1165 q 722 1081 779 1081 z "},"O":{"ha":1031,"x_min":58,"x_max":1000,"o":"m 446 -19 q 240 31 328 -19 q 106 175 153 81 q 58 399 58 269 q 134 701 58 565 q 337 914 210 836 q 613 992 464 992 q 818 942 731 992 q 953 797 906 892 q 1000 574 1000 703 q 924 272 1000 407 q 722 58 849 136 q 446 -19 594 -19 m 474 151 q 649 208 574 151 q 763 357 724 264 q 803 558 803 450 q 748 752 803 683 q 583 821 693 821 q 408 765 483 821 q 294 615 333 708 q 254 414 254 522 q 309 220 254 289 q 474 151 364 151 z "},"Ó":{"ha":1031,"x_min":58,"x_max":1000,"o":"m 446 -19 q 240 31 328 -19 q 106 175 153 81 q 58 399 58 269 q 134 701 58 565 q 337 914 210 836 q 613 992 464 992 q 818 942 731 992 q 953 797 906 892 q 1000 574 1000 703 q 924 272 1000 407 q 722 58 849 136 q 446 -19 594 -19 m 474 151 q 649 208 574 151 q 763 357 724 264 q 803 558 803 450 q 748 752 803 683 q 583 821 693 821 q 408 765 483 821 q 294 615 333 708 q 254 414 254 522 q 309 220 254 289 q 474 151 364 151 m 538 1185 l 818 1335 l 792 1161 l 514 1069 l 538 1185 z "},"Ŏ":{"ha":1031,"x_min":58,"x_max":1000,"o":"m 446 -19 q 240 31 328 -19 q 106 175 153 81 q 58 399 58 269 q 134 701 58 565 q 337 914 210 836 q 613 992 464 992 q 818 942 731 992 q 953 797 906 892 q 1000 574 1000 703 q 924 272 1000 407 q 722 58 849 136 q 446 -19 594 -19 m 474 151 q 649 208 574 151 q 763 357 724 264 q 803 558 803 450 q 748 752 803 683 q 583 821 693 821 q 408 765 483 821 q 294 615 333 708 q 254 414 254 522 q 309 220 254 289 q 474 151 364 151 m 638 1063 q 502 1106 551 1063 q 453 1214 453 1149 q 456 1246 453 1224 l 574 1246 q 571 1224 571 1235 q 593 1174 571 1192 q 653 1157 615 1157 q 726 1181 696 1157 q 763 1246 756 1204 l 883 1246 q 803 1113 869 1163 q 638 1063 736 1063 z "},"Ô":{"ha":1031,"x_min":58,"x_max":1000,"o":"m 446 -19 q 240 31 328 -19 q 106 175 153 81 q 58 399 58 269 q 134 701 58 565 q 337 914 210 836 q 613 992 464 992 q 818 942 731 992 q 953 797 906 892 q 1000 574 1000 703 q 924 272 1000 407 q 722 58 849 136 q 446 -19 594 -19 m 474 151 q 649 208 574 151 q 763 357 724 264 q 803 558 803 450 q 748 752 803 683 q 583 821 693 821 q 408 765 483 821 q 294 615 333 708 q 254 414 254 522 q 309 220 254 289 q 474 151 364 151 m 504 1176 l 688 1313 l 840 1157 l 818 1047 l 658 1163 l 481 1064 l 504 1176 z "},"Ố":{"ha":1031,"x_min":58,"x_max":1013,"o":"m 446 -19 q 240 31 328 -19 q 106 175 153 81 q 58 399 58 269 q 134 701 58 565 q 337 914 210 836 q 613 992 464 992 q 818 942 731 992 q 953 797 906 892 q 1000 574 1000 703 q 924 272 1000 407 q 722 58 849 136 q 446 -19 594 -19 m 474 151 q 649 208 574 151 q 763 357 724 264 q 803 558 803 450 q 748 752 803 683 q 583 821 693 821 q 408 765 483 821 q 294 615 333 708 q 254 414 254 522 q 309 220 254 289 q 474 151 364 151 m 853 1421 l 1013 1421 l 858 1258 l 749 1258 l 853 1421 m 836 1151 l 818 1049 l 653 1149 l 483 1065 l 501 1168 l 676 1279 l 836 1151 z "},"Ộ":{"ha":1031,"x_min":58,"x_max":1000,"o":"m 446 -19 q 240 31 328 -19 q 106 175 153 81 q 58 399 58 269 q 134 701 58 565 q 337 914 210 836 q 613 992 464 992 q 818 942 731 992 q 953 797 906 892 q 1000 574 1000 703 q 924 272 1000 407 q 722 58 849 136 q 446 -19 594 -19 m 474 151 q 649 208 574 151 q 763 357 724 264 q 803 558 803 450 q 748 752 803 683 q 583 821 693 821 q 408 765 483 821 q 294 615 333 708 q 254 414 254 522 q 309 220 254 289 q 474 151 364 151 m 833 1138 l 815 1035 l 650 1135 l 481 1051 l 499 1154 l 674 1265 l 833 1138 m 343 -112 l 482 -112 l 457 -247 l 318 -247 l 343 -112 z "},"Ồ":{"ha":1031,"x_min":58,"x_max":1000,"o":"m 446 -19 q 240 31 328 -19 q 106 175 153 81 q 58 399 58 269 q 134 701 58 565 q 337 914 210 836 q 613 992 464 992 q 818 942 731 992 q 953 797 906 892 q 1000 574 1000 703 q 924 272 1000 407 q 722 58 849 136 q 446 -19 594 -19 m 474 151 q 649 208 574 151 q 763 357 724 264 q 803 558 803 450 q 748 752 803 683 q 583 821 693 821 q 408 765 483 821 q 294 615 333 708 q 254 414 254 522 q 309 220 254 289 q 474 151 364 151 m 771 1258 l 688 1435 l 836 1435 l 876 1258 l 771 1258 m 835 1151 l 817 1049 l 651 1149 l 482 1065 l 500 1168 l 675 1279 l 835 1151 z "},"Ổ":{"ha":1031,"x_min":58,"x_max":1000,"o":"m 446 -19 q 240 31 328 -19 q 106 175 153 81 q 58 399 58 269 q 134 701 58 565 q 337 914 210 836 q 613 992 464 992 q 818 942 731 992 q 953 797 906 892 q 1000 574 1000 703 q 924 272 1000 407 q 722 58 849 136 q 446 -19 594 -19 m 474 151 q 649 208 574 151 q 763 357 724 264 q 803 558 803 450 q 748 752 803 683 q 583 821 693 821 q 408 765 483 821 q 294 615 333 708 q 254 414 254 522 q 309 220 254 289 q 474 151 364 151 m 833 1138 l 815 1035 l 650 1135 l 481 1051 l 499 1154 l 674 1265 l 833 1138 m 772 1272 q 832 1324 832 1286 q 788 1358 832 1358 q 700 1336 751 1358 l 690 1421 q 806 1443 749 1443 q 892 1418 860 1443 q 925 1349 925 1393 q 776 1211 925 1247 l 772 1272 z "},"Ỗ":{"ha":1031,"x_min":58,"x_max":1000,"o":"m 446 -19 q 240 31 328 -19 q 106 175 153 81 q 58 399 58 269 q 134 701 58 565 q 337 914 210 836 q 613 992 464 992 q 818 942 731 992 q 953 797 906 892 q 1000 574 1000 703 q 924 272 1000 407 q 722 58 849 136 q 446 -19 594 -19 m 474 151 q 649 208 574 151 q 763 357 724 264 q 803 558 803 450 q 748 752 803 683 q 583 821 693 821 q 408 765 483 821 q 294 615 333 708 q 254 414 254 522 q 309 220 254 289 q 474 151 364 151 m 833 1138 l 815 1035 l 650 1135 l 481 1051 l 499 1154 l 674 1265 l 833 1138 m 797 1301 q 753 1308 776 1301 q 700 1329 731 1315 q 658 1347 679 1339 q 621 1354 636 1354 q 575 1311 583 1354 l 469 1311 q 608 1457 497 1457 q 703 1429 642 1457 q 745 1412 724 1419 q 782 1404 767 1404 q 828 1450 819 1404 l 933 1450 q 888 1339 922 1376 q 797 1301 853 1301 z "},"Ȍ":{"ha":1031,"x_min":58,"x_max":1000,"o":"m 446 -19 q 240 31 328 -19 q 106 175 153 81 q 58 399 58 269 q 134 701 58 565 q 337 914 210 836 q 613 992 464 992 q 818 942 731 992 q 953 797 906 892 q 1000 574 1000 703 q 924 272 1000 407 q 722 58 849 136 q 446 -19 594 -19 m 474 151 q 649 208 574 151 q 763 357 724 264 q 803 558 803 450 q 748 752 803 683 q 583 821 693 821 q 408 765 483 821 q 294 615 333 708 q 254 414 254 522 q 309 220 254 289 q 474 151 364 151 m 486 1094 l 386 1313 l 543 1313 l 593 1094 l 486 1094 m 688 1094 l 599 1313 l 756 1313 l 794 1094 l 688 1094 z "},"Ö":{"ha":1031,"x_min":58,"x_max":1000,"o":"m 446 -19 q 240 31 328 -19 q 106 175 153 81 q 58 399 58 269 q 134 701 58 565 q 337 914 210 836 q 613 992 464 992 q 818 942 731 992 q 953 797 906 892 q 1000 574 1000 703 q 924 272 1000 407 q 722 58 849 136 q 446 -19 594 -19 m 474 151 q 649 208 574 151 q 763 357 724 264 q 803 558 803 450 q 748 752 803 683 q 583 821 693 821 q 408 765 483 821 q 294 615 333 708 q 254 414 254 522 q 309 220 254 289 q 474 151 364 151 m 467 1224 l 597 1224 l 572 1099 l 442 1099 l 467 1224 m 742 1224 l 872 1224 l 847 1099 l 717 1099 l 742 1224 z "},"Ȫ":{"ha":1031,"x_min":58,"x_max":1000,"o":"m 446 -19 q 240 31 328 -19 q 106 175 153 81 q 58 399 58 269 q 134 701 58 565 q 337 914 210 836 q 613 992 464 992 q 818 942 731 992 q 953 797 906 892 q 1000 574 1000 703 q 924 272 1000 407 q 722 58 849 136 q 446 -19 594 -19 m 474 151 q 649 208 574 151 q 763 357 724 264 q 803 558 803 450 q 748 752 803 683 q 583 821 693 821 q 408 765 483 821 q 294 615 333 708 q 254 414 254 522 q 309 220 254 289 q 474 151 364 151 m 461 1207 l 592 1207 l 569 1088 l 439 1088 l 461 1207 m 733 1207 l 864 1207 l 842 1088 l 711 1088 l 733 1207 m 476 1415 l 921 1415 l 901 1310 l 457 1310 l 476 1415 z "},"Ȱ":{"ha":1031,"x_min":58,"x_max":1000,"o":"m 446 -19 q 240 31 328 -19 q 106 175 153 81 q 58 399 58 269 q 134 701 58 565 q 337 914 210 836 q 613 992 464 992 q 818 942 731 992 q 953 797 906 892 q 1000 574 1000 703 q 924 272 1000 407 q 722 58 849 136 q 446 -19 594 -19 m 474 151 q 649 208 574 151 q 763 357 724 264 q 803 558 803 450 q 748 752 803 683 q 583 821 693 821 q 408 765 483 821 q 294 615 333 708 q 254 414 254 522 q 309 220 254 289 q 474 151 364 151 m 597 1235 l 739 1235 l 714 1100 l 572 1100 l 597 1235 m 485 1457 l 929 1457 l 910 1351 l 465 1351 l 485 1457 z "},"Ọ":{"ha":1031,"x_min":58,"x_max":1000,"o":"m 446 -19 q 240 31 328 -19 q 106 175 153 81 q 58 399 58 269 q 134 701 58 565 q 337 914 210 836 q 613 992 464 992 q 818 942 731 992 q 953 797 906 892 q 1000 574 1000 703 q 924 272 1000 407 q 722 58 849 136 q 446 -19 594 -19 m 474 151 q 649 208 574 151 q 763 357 724 264 q 803 558 803 450 q 748 752 803 683 q 583 821 693 821 q 408 765 483 821 q 294 615 333 708 q 254 414 254 522 q 309 220 254 289 q 474 151 364 151 m 343 -112 l 482 -112 l 457 -247 l 318 -247 l 343 -112 z "},"Ò":{"ha":1031,"x_min":58,"x_max":1000,"o":"m 446 -19 q 240 31 328 -19 q 106 175 153 81 q 58 399 58 269 q 134 701 58 565 q 337 914 210 836 q 613 992 464 992 q 818 942 731 992 q 953 797 906 892 q 1000 574 1000 703 q 924 272 1000 407 q 722 58 849 136 q 446 -19 594 -19 m 474 151 q 649 208 574 151 q 763 357 724 264 q 803 558 803 450 q 748 752 803 683 q 583 821 693 821 q 408 765 483 821 q 294 615 333 708 q 254 414 254 522 q 309 220 254 289 q 474 151 364 151 m 525 1175 l 553 1335 l 788 1179 l 768 1069 l 525 1175 z "},"Ỏ":{"ha":1031,"x_min":58,"x_max":1000,"o":"m 446 -19 q 240 31 328 -19 q 106 175 153 81 q 58 399 58 269 q 134 701 58 565 q 337 914 210 836 q 613 992 464 992 q 818 942 731 992 q 953 797 906 892 q 1000 574 1000 703 q 924 272 1000 407 q 722 58 849 136 q 446 -19 594 -19 m 474 151 q 649 208 574 151 q 763 357 724 264 q 803 558 803 450 q 748 752 803 683 q 583 821 693 821 q 408 765 483 821 q 294 615 333 708 q 254 414 254 522 q 309 220 254 289 q 474 151 364 151 m 610 1071 q 667 1121 647 1099 q 688 1168 688 1143 q 676 1196 688 1186 q 646 1206 665 1206 q 556 1181 611 1206 l 549 1263 q 663 1288 608 1288 q 746 1262 714 1288 q 778 1190 778 1236 q 745 1098 778 1138 q 651 1019 713 1058 l 610 1071 z "},"Ơ":{"ha":1031,"x_min":58,"x_max":1008,"o":"m 875 901 q 967 763 935 846 q 1000 574 1000 679 q 924 272 1000 407 q 722 58 849 136 q 446 -19 594 -19 q 240 31 328 -19 q 106 175 153 81 q 58 399 58 269 q 134 701 58 565 q 337 914 210 836 q 613 992 464 992 q 746 972 683 992 q 861 1075 843 979 l 1008 1075 q 963 975 999 1019 q 875 901 928 931 m 474 151 q 649 208 574 151 q 763 357 724 264 q 803 558 803 450 q 748 752 803 683 q 583 821 693 821 q 408 765 483 821 q 294 615 333 708 q 254 414 254 522 q 309 220 254 289 q 474 151 364 151 z "},"Ớ":{"ha":1031,"x_min":58,"x_max":1008,"o":"m 875 901 q 967 763 935 846 q 1000 574 1000 679 q 924 272 1000 407 q 722 58 849 136 q 446 -19 594 -19 q 240 31 328 -19 q 106 175 153 81 q 58 399 58 269 q 134 701 58 565 q 337 914 210 836 q 613 992 464 992 q 746 972 683 992 q 861 1075 843 979 l 1008 1075 q 963 975 999 1019 q 875 901 928 931 m 474 151 q 649 208 574 151 q 763 357 724 264 q 803 558 803 450 q 748 752 803 683 q 583 821 693 821 q 408 765 483 821 q 294 615 333 708 q 254 414 254 522 q 309 220 254 289 q 474 151 364 151 m 538 1185 l 818 1335 l 792 1161 l 514 1069 l 538 1185 z "},"Ợ":{"ha":1031,"x_min":58,"x_max":1008,"o":"m 875 901 q 967 763 935 846 q 1000 574 1000 679 q 924 272 1000 407 q 722 58 849 136 q 446 -19 594 -19 q 240 31 328 -19 q 106 175 153 81 q 58 399 58 269 q 134 701 58 565 q 337 914 210 836 q 613 992 464 992 q 746 972 683 992 q 861 1075 843 979 l 1008 1075 q 963 975 999 1019 q 875 901 928 931 m 474 151 q 649 208 574 151 q 763 357 724 264 q 803 558 803 450 q 748 752 803 683 q 583 821 693 821 q 408 765 483 821 q 294 615 333 708 q 254 414 254 522 q 309 220 254 289 q 474 151 364 151 m 343 -112 l 482 -112 l 457 -247 l 318 -247 l 343 -112 z "},"Ờ":{"ha":1031,"x_min":58,"x_max":1008,"o":"m 875 901 q 967 763 935 846 q 1000 574 1000 679 q 924 272 1000 407 q 722 58 849 136 q 446 -19 594 -19 q 240 31 328 -19 q 106 175 153 81 q 58 399 58 269 q 134 701 58 565 q 337 914 210 836 q 613 992 464 992 q 746 972 683 992 q 861 1075 843 979 l 1008 1075 q 963 975 999 1019 q 875 901 928 931 m 474 151 q 649 208 574 151 q 763 357 724 264 q 803 558 803 450 q 748 752 803 683 q 583 821 693 821 q 408 765 483 821 q 294 615 333 708 q 254 414 254 522 q 309 220 254 289 q 474 151 364 151 m 525 1175 l 553 1335 l 788 1179 l 768 1069 l 525 1175 z "},"Ở":{"ha":1031,"x_min":58,"x_max":1008,"o":"m 875 901 q 967 763 935 846 q 1000 574 1000 679 q 924 272 1000 407 q 722 58 849 136 q 446 -19 594 -19 q 240 31 328 -19 q 106 175 153 81 q 58 399 58 269 q 134 701 58 565 q 337 914 210 836 q 613 992 464 992 q 746 972 683 992 q 861 1075 843 979 l 1008 1075 q 963 975 999 1019 q 875 901 928 931 m 474 151 q 649 208 574 151 q 763 357 724 264 q 803 558 803 450 q 748 752 803 683 q 583 821 693 821 q 408 765 483 821 q 294 615 333 708 q 254 414 254 522 q 309 220 254 289 q 474 151 364 151 m 610 1071 q 667 1121 647 1099 q 688 1168 688 1143 q 676 1196 688 1186 q 646 1206 665 1206 q 556 1181 611 1206 l 549 1263 q 663 1288 608 1288 q 746 1262 714 1288 q 778 1190 778 1236 q 745 1098 778 1138 q 651 1019 713 1058 l 610 1071 z "},"Ỡ":{"ha":1031,"x_min":58,"x_max":1008,"o":"m 875 901 q 967 763 935 846 q 1000 574 1000 679 q 924 272 1000 407 q 722 58 849 136 q 446 -19 594 -19 q 240 31 328 -19 q 106 175 153 81 q 58 399 58 269 q 134 701 58 565 q 337 914 210 836 q 613 992 464 992 q 746 972 683 992 q 861 1075 843 979 l 1008 1075 q 963 975 999 1019 q 875 901 928 931 m 474 151 q 649 208 574 151 q 763 357 724 264 q 803 558 803 450 q 748 752 803 683 q 583 821 693 821 q 408 765 483 821 q 294 615 333 708 q 254 414 254 522 q 309 220 254 289 q 474 151 364 151 m 768 1081 q 726 1088 747 1081 q 667 1113 706 1096 q 619 1132 643 1124 q 579 1140 596 1140 q 540 1127 556 1140 q 521 1092 525 1114 l 413 1092 q 461 1217 424 1174 q 557 1260 499 1260 q 605 1251 581 1260 q 660 1226 629 1242 q 740 1200 715 1200 q 793 1253 785 1200 l 907 1253 q 859 1123 893 1165 q 768 1081 825 1081 z "},"Ő":{"ha":1031,"x_min":58,"x_max":1000,"o":"m 446 -19 q 240 31 328 -19 q 106 175 153 81 q 58 399 58 269 q 134 701 58 565 q 337 914 210 836 q 613 992 464 992 q 818 942 731 992 q 953 797 906 892 q 1000 574 1000 703 q 924 272 1000 407 q 722 58 849 136 q 446 -19 594 -19 m 474 151 q 649 208 574 151 q 763 357 724 264 q 803 558 803 450 q 748 752 803 683 q 583 821 693 821 q 408 765 483 821 q 294 615 333 708 q 254 414 254 522 q 309 220 254 289 q 474 151 364 151 m 596 1313 l 756 1313 l 589 1094 l 479 1094 l 596 1313 m 811 1313 l 971 1313 l 793 1094 l 683 1094 l 811 1313 z "},"Ȏ":{"ha":1031,"x_min":58,"x_max":1000,"o":"m 446 -19 q 240 31 328 -19 q 106 175 153 81 q 58 399 58 269 q 134 701 58 565 q 337 914 210 836 q 613 992 464 992 q 818 942 731 992 q 953 797 906 892 q 1000 574 1000 703 q 924 272 1000 407 q 722 58 849 136 q 446 -19 594 -19 m 474 151 q 649 208 574 151 q 763 357 724 264 q 803 558 803 450 q 748 752 803 683 q 583 821 693 821 q 408 765 483 821 q 294 615 333 708 q 254 414 254 522 q 309 220 254 289 q 474 151 364 151 m 674 1267 q 808 1224 760 1267 q 857 1117 857 1182 q 854 1083 857 1106 l 736 1083 q 739 1104 739 1097 q 717 1155 739 1138 q 657 1172 694 1172 q 585 1149 614 1172 q 549 1083 556 1125 l 431 1083 q 511 1214 444 1161 q 674 1267 578 1267 z "},"Ō":{"ha":1031,"x_min":58,"x_max":1000,"o":"m 446 -19 q 240 31 328 -19 q 106 175 153 81 q 58 399 58 269 q 134 701 58 565 q 337 914 210 836 q 613 992 464 992 q 818 942 731 992 q 953 797 906 892 q 1000 574 1000 703 q 924 272 1000 407 q 722 58 849 136 q 446 -19 594 -19 m 474 151 q 649 208 574 151 q 763 357 724 264 q 803 558 803 450 q 748 752 803 683 q 583 821 693 821 q 408 765 483 821 q 294 615 333 708 q 254 414 254 522 q 309 220 254 289 q 474 151 364 151 m 440 1207 l 885 1207 l 865 1101 l 421 1101 l 440 1207 z "},"Ṓ":{"ha":1031,"x_min":58,"x_max":1000,"o":"m 446 -19 q 240 31 328 -19 q 106 175 153 81 q 58 399 58 269 q 134 701 58 565 q 337 914 210 836 q 613 992 464 992 q 818 942 731 992 q 953 797 906 892 q 1000 574 1000 703 q 924 272 1000 407 q 722 58 849 136 q 446 -19 594 -19 m 474 151 q 649 208 574 151 q 763 357 724 264 q 803 558 803 450 q 748 752 803 683 q 583 821 693 821 q 408 765 483 821 q 294 615 333 708 q 254 414 254 522 q 309 220 254 289 q 474 151 364 151 m 440 1207 l 885 1207 l 865 1101 l 421 1101 l 440 1207 m 575 1394 l 843 1526 l 818 1371 l 558 1290 l 575 1394 z "},"Ṑ":{"ha":1031,"x_min":58,"x_max":1000,"o":"m 446 -19 q 240 31 328 -19 q 106 175 153 81 q 58 399 58 269 q 134 701 58 565 q 337 914 210 836 q 613 992 464 992 q 818 942 731 992 q 953 797 906 892 q 1000 574 1000 703 q 924 272 1000 407 q 722 58 849 136 q 446 -19 594 -19 m 474 151 q 649 208 574 151 q 763 357 724 264 q 803 558 803 450 q 748 752 803 683 q 583 821 693 821 q 408 765 483 821 q 294 615 333 708 q 254 414 254 522 q 309 220 254 289 q 474 151 364 151 m 440 1207 l 885 1207 l 865 1101 l 421 1101 l 440 1207 m 563 1371 l 590 1518 l 828 1386 l 808 1290 l 563 1371 z "},"Ǫ":{"ha":1031,"x_min":58,"x_max":1000,"o":"m 514 -15 q 401 -158 401 -94 q 415 -196 401 -183 q 453 -208 428 -208 q 535 -192 493 -208 l 544 -268 q 424 -293 489 -293 q 340 -267 372 -293 q 307 -196 308 -242 q 339 -102 307 -147 q 422 -19 371 -57 q 156 99 253 -11 q 58 399 58 210 q 134 701 58 565 q 337 914 210 836 q 613 992 464 992 q 818 942 731 992 q 953 797 906 892 q 1000 574 1000 703 q 935 292 1000 421 q 760 83 871 164 q 514 -15 649 1 m 254 414 q 309 220 254 289 q 474 151 364 151 q 649 208 574 151 q 763 357 724 264 q 803 558 803 450 q 748 752 803 683 q 583 821 693 821 q 408 765 483 821 q 294 615 333 708 q 254 414 254 522 z "},"Ø":{"ha":1031,"x_min":33,"x_max":1015,"o":"m 897 879 q 974 747 947 824 q 1000 574 1000 669 q 924 272 1000 407 q 722 58 849 136 q 446 -19 594 -19 q 243 29 329 -19 l 174 -61 l 33 -61 l 157 99 q 58 399 58 210 q 134 701 58 565 q 337 914 210 836 q 613 992 464 992 q 807 947 725 992 l 874 1033 l 1015 1033 l 897 879 m 254 414 q 282 264 254 326 l 692 797 q 583 821 647 821 q 408 765 483 821 q 294 615 333 708 q 254 414 254 522 m 803 558 q 771 715 803 656 l 358 179 q 474 151 406 151 q 649 208 574 151 q 763 357 724 264 q 803 558 803 450 z "},"Ǿ":{"ha":1031,"x_min":33,"x_max":1015,"o":"m 897 879 q 974 747 947 824 q 1000 574 1000 669 q 924 272 1000 407 q 722 58 849 136 q 446 -19 594 -19 q 243 29 329 -19 l 174 -61 l 33 -61 l 157 99 q 58 399 58 210 q 134 701 58 565 q 337 914 210 836 q 613 992 464 992 q 807 947 725 992 l 874 1033 l 1015 1033 l 897 879 m 254 414 q 282 264 254 326 l 692 797 q 583 821 647 821 q 408 765 483 821 q 294 615 333 708 q 254 414 254 522 m 803 558 q 771 715 803 656 l 358 179 q 474 151 406 151 q 649 208 574 151 q 763 357 724 264 q 803 558 803 450 m 531 1158 l 799 1290 l 774 1135 l 514 1054 l 531 1158 z "},"Õ":{"ha":1031,"x_min":58,"x_max":1000,"o":"m 446 -19 q 240 31 328 -19 q 106 175 153 81 q 58 399 58 269 q 134 701 58 565 q 337 914 210 836 q 613 992 464 992 q 818 942 731 992 q 953 797 906 892 q 1000 574 1000 703 q 924 272 1000 407 q 722 58 849 136 q 446 -19 594 -19 m 474 151 q 649 208 574 151 q 763 357 724 264 q 803 558 803 450 q 748 752 803 683 q 583 821 693 821 q 408 765 483 821 q 294 615 333 708 q 254 414 254 522 q 309 220 254 289 q 474 151 364 151 m 768 1081 q 726 1088 747 1081 q 667 1113 706 1096 q 619 1132 643 1124 q 579 1140 596 1140 q 540 1127 556 1140 q 521 1092 525 1114 l 413 1092 q 461 1217 424 1174 q 557 1260 499 1260 q 605 1251 581 1260 q 660 1226 629 1242 q 740 1200 715 1200 q 793 1253 785 1200 l 907 1253 q 859 1123 893 1165 q 768 1081 825 1081 z "},"Ṍ":{"ha":1031,"x_min":58,"x_max":1000,"o":"m 446 -19 q 240 31 328 -19 q 106 175 153 81 q 58 399 58 269 q 134 701 58 565 q 337 914 210 836 q 613 992 464 992 q 818 942 731 992 q 953 797 906 892 q 1000 574 1000 703 q 924 272 1000 407 q 722 58 849 136 q 446 -19 594 -19 m 474 151 q 649 208 574 151 q 763 357 724 264 q 803 558 803 450 q 748 752 803 683 q 583 821 693 821 q 408 765 483 821 q 294 615 333 708 q 254 414 254 522 q 309 220 254 289 q 474 151 364 151 m 749 1079 q 705 1086 728 1079 q 651 1107 682 1093 q 609 1124 631 1117 q 572 1132 588 1132 q 526 1089 535 1132 l 421 1089 q 560 1235 449 1235 q 654 1207 593 1235 q 697 1190 675 1197 q 733 1182 718 1182 q 779 1228 771 1182 l 885 1228 q 839 1117 874 1154 q 749 1079 804 1079 m 569 1386 l 838 1518 l 813 1363 l 553 1282 l 569 1386 z "},"Ṏ":{"ha":1031,"x_min":58,"x_max":1000,"o":"m 446 -19 q 240 31 328 -19 q 106 175 153 81 q 58 399 58 269 q 134 701 58 565 q 337 914 210 836 q 613 992 464 992 q 818 942 731 992 q 953 797 906 892 q 1000 574 1000 703 q 924 272 1000 407 q 722 58 849 136 q 446 -19 594 -19 m 474 151 q 649 208 574 151 q 763 357 724 264 q 803 558 803 450 q 748 752 803 683 q 583 821 693 821 q 408 765 483 821 q 294 615 333 708 q 254 414 254 522 q 309 220 254 289 q 474 151 364 151 m 749 1079 q 705 1086 728 1079 q 651 1107 682 1093 q 609 1124 631 1117 q 572 1132 588 1132 q 526 1089 535 1132 l 421 1089 q 560 1235 449 1235 q 654 1207 593 1235 q 697 1190 675 1197 q 733 1182 718 1182 q 779 1228 771 1182 l 885 1228 q 839 1117 874 1154 q 749 1079 804 1079 m 500 1435 l 631 1435 l 608 1315 l 478 1315 l 500 1435 m 772 1435 l 903 1435 l 881 1315 l 750 1315 l 772 1435 z "},"Ȭ":{"ha":1031,"x_min":58,"x_max":1000,"o":"m 446 -19 q 240 31 328 -19 q 106 175 153 81 q 58 399 58 269 q 134 701 58 565 q 337 914 210 836 q 613 992 464 992 q 818 942 731 992 q 953 797 906 892 q 1000 574 1000 703 q 924 272 1000 407 q 722 58 849 136 q 446 -19 594 -19 m 474 151 q 649 208 574 151 q 763 357 724 264 q 803 558 803 450 q 748 752 803 683 q 583 821 693 821 q 408 765 483 821 q 294 615 333 708 q 254 414 254 522 q 309 220 254 289 q 474 151 364 151 m 749 1079 q 705 1086 728 1079 q 651 1107 682 1093 q 609 1124 631 1117 q 572 1132 588 1132 q 526 1089 535 1132 l 421 1089 q 560 1235 449 1235 q 654 1207 593 1235 q 697 1190 675 1197 q 733 1182 718 1182 q 779 1228 771 1182 l 885 1228 q 839 1117 874 1154 q 749 1079 804 1079 m 479 1435 l 924 1435 l 904 1329 l 460 1329 l 479 1435 z "},"Œ":{"ha":1428,"x_min":58,"x_max":1467,"o":"m 1017 800 l 981 593 l 1304 593 l 1274 421 l 950 421 l 906 172 l 1339 172 l 1308 0 l 718 0 l 736 107 q 589 13 669 46 q 422 -19 508 -19 q 233 29 315 -19 q 105 172 151 78 q 58 399 58 267 q 128 701 58 565 q 315 914 197 836 q 572 992 433 992 q 740 949 665 992 q 864 831 815 906 l 889 972 l 1467 972 l 1436 800 l 1017 800 m 471 151 q 653 209 578 151 q 765 363 728 267 q 803 572 803 458 q 747 756 803 690 q 582 821 692 821 q 408 765 483 821 q 294 615 333 708 q 254 414 254 522 q 308 221 254 290 q 471 151 363 151 z "},"P":{"ha":815,"x_min":36,"x_max":833,"o":"m 207 972 l 538 972 q 757 900 681 972 q 833 701 833 828 q 783 493 833 579 q 641 363 732 407 q 431 319 550 319 l 269 319 l 213 0 l 36 0 l 207 972 m 457 486 q 597 537 544 486 q 649 688 649 588 q 617 790 649 756 q 518 824 586 824 l 358 824 l 299 486 l 457 486 z "},"Þ":{"ha":746,"x_min":22,"x_max":760,"o":"m 194 972 l 371 972 l 335 771 l 490 771 q 691 713 622 771 q 760 549 760 656 q 660 314 760 399 q 394 229 561 229 l 239 229 l 199 0 l 22 0 l 194 972 m 399 378 q 575 522 575 378 q 543 598 575 574 q 442 622 511 622 l 308 622 l 265 378 l 399 378 z "},"Q":{"ha":1031,"x_min":58,"x_max":1000,"o":"m 442 -19 q 239 31 325 -19 q 106 176 153 82 q 58 399 58 271 q 134 700 58 564 q 337 914 210 836 q 613 992 464 992 q 819 941 731 992 q 953 797 907 890 q 1000 581 1000 704 q 856 181 1000 369 l 925 110 l 800 -14 l 721 65 q 589 2 661 24 q 442 -19 517 -19 m 471 151 q 597 183 542 151 l 507 282 l 633 406 l 728 303 q 782 429 763 365 q 801 567 801 493 q 747 752 801 683 q 583 821 693 821 q 409 765 483 821 q 294 617 335 710 q 254 415 254 524 q 308 222 254 292 q 471 151 363 151 z "},"R":{"ha":851,"x_min":36,"x_max":833,"o":"m 207 972 l 528 972 q 753 912 672 972 q 833 724 833 851 q 619 408 833 526 l 758 0 l 574 0 l 446 361 l 276 361 l 213 0 l 36 0 l 207 972 m 444 528 q 587 576 531 528 q 643 707 643 624 q 510 824 643 824 l 358 824 l 306 528 l 444 528 z "},"Ŕ":{"ha":851,"x_min":36,"x_max":833,"o":"m 207 972 l 528 972 q 753 912 672 972 q 833 724 833 851 q 619 408 833 526 l 758 0 l 574 0 l 446 361 l 276 361 l 213 0 l 36 0 l 207 972 m 444 528 q 587 576 531 528 q 643 707 643 624 q 510 824 643 824 l 358 824 l 306 528 l 444 528 m 443 1158 l 711 1290 l 686 1135 l 426 1054 l 443 1158 z "},"Ř":{"ha":851,"x_min":36,"x_max":833,"o":"m 207 972 l 528 972 q 753 912 672 972 q 833 724 833 851 q 619 408 833 526 l 758 0 l 574 0 l 446 361 l 276 361 l 213 0 l 36 0 l 207 972 m 444 528 q 587 576 531 528 q 643 707 643 624 q 510 824 643 824 l 358 824 l 306 528 l 444 528 m 381 1163 l 399 1265 l 560 1157 l 732 1263 l 711 1144 l 540 1035 l 381 1163 z "},"Ŗ":{"ha":851,"x_min":36,"x_max":833,"o":"m 207 972 l 528 972 q 753 912 672 972 q 833 724 833 851 q 619 408 833 526 l 758 0 l 574 0 l 446 361 l 276 361 l 213 0 l 36 0 l 207 972 m 444 528 q 587 576 531 528 q 643 707 643 624 q 510 824 643 824 l 358 824 l 306 528 l 444 528 m 260 -385 l 329 -261 l 275 -261 l 299 -126 l 443 -126 l 419 -261 l 319 -385 l 260 -385 z "},"Ȑ":{"ha":851,"x_min":36,"x_max":833,"o":"m 207 972 l 528 972 q 753 912 672 972 q 833 724 833 851 q 619 408 833 526 l 758 0 l 574 0 l 446 361 l 276 361 l 213 0 l 36 0 l 207 972 m 444 528 q 587 576 531 528 q 643 707 643 624 q 510 824 643 824 l 358 824 l 306 528 l 444 528 m 399 1094 l 299 1313 l 456 1313 l 506 1094 l 399 1094 m 600 1094 l 511 1313 l 668 1313 l 707 1094 l 600 1094 z "},"Ṛ":{"ha":851,"x_min":36,"x_max":833,"o":"m 207 972 l 528 972 q 753 912 672 972 q 833 724 833 851 q 619 408 833 526 l 758 0 l 574 0 l 446 361 l 276 361 l 213 0 l 36 0 l 207 972 m 444 528 q 587 576 531 528 q 643 707 643 624 q 510 824 643 824 l 358 824 l 306 528 l 444 528 m 307 -112 l 446 -112 l 421 -247 l 282 -247 l 307 -112 z "},"Ȓ":{"ha":851,"x_min":36,"x_max":833,"o":"m 207 972 l 528 972 q 753 912 672 972 q 833 724 833 851 q 619 408 833 526 l 758 0 l 574 0 l 446 361 l 276 361 l 213 0 l 36 0 l 207 972 m 444 528 q 587 576 531 528 q 643 707 643 624 q 510 824 643 824 l 358 824 l 306 528 l 444 528 m 586 1267 q 721 1224 672 1267 q 769 1117 769 1182 q 767 1083 769 1106 l 649 1083 q 651 1104 651 1097 q 629 1155 651 1138 q 569 1172 607 1172 q 497 1149 526 1172 q 461 1083 468 1125 l 343 1083 q 424 1214 357 1161 q 586 1267 490 1267 z "},"Ṟ":{"ha":851,"x_min":36,"x_max":833,"o":"m 207 972 l 528 972 q 753 912 672 972 q 833 724 833 851 q 619 408 833 526 l 758 0 l 574 0 l 446 361 l 276 361 l 213 0 l 36 0 l 207 972 m 444 528 q 587 576 531 528 q 643 707 643 624 q 510 824 643 824 l 358 824 l 306 528 l 444 528 m 149 -126 l 593 -126 l 571 -239 l 126 -239 l 149 -126 z "},"S":{"ha":786,"x_min":7,"x_max":782,"o":"m 317 -19 q 7 51 146 -19 l 63 254 q 183 181 113 210 q 338 151 253 151 q 517 269 517 151 q 476 362 517 329 q 332 431 435 394 q 204 490 253 458 q 130 569 156 521 q 104 689 104 617 q 151 845 104 776 q 281 953 197 914 q 476 992 365 992 q 651 969 571 992 q 782 917 732 947 l 732 735 q 594 801 656 781 q 463 822 533 822 q 337 794 385 822 q 289 708 289 767 q 328 634 289 660 q 451 579 367 608 q 592 522 538 550 q 683 442 646 494 q 721 307 721 390 q 681 149 721 224 q 551 28 642 75 q 317 -19 460 -19 z "},"Ś":{"ha":786,"x_min":7,"x_max":782,"o":"m 317 -19 q 7 51 146 -19 l 63 254 q 183 181 113 210 q 338 151 253 151 q 517 269 517 151 q 476 362 517 329 q 332 431 435 394 q 204 490 253 458 q 130 569 156 521 q 104 689 104 617 q 151 845 104 776 q 281 953 197 914 q 476 992 365 992 q 651 969 571 992 q 782 917 732 947 l 732 735 q 594 801 656 781 q 463 822 533 822 q 337 794 385 822 q 289 708 289 767 q 328 634 289 660 q 451 579 367 608 q 592 522 538 550 q 683 442 646 494 q 721 307 721 390 q 681 149 721 224 q 551 28 642 75 q 317 -19 460 -19 m 408 1158 l 676 1290 l 651 1135 l 392 1054 l 408 1158 z "},"Ṥ":{"ha":786,"x_min":7,"x_max":782,"o":"m 317 -19 q 7 51 146 -19 l 63 254 q 183 181 113 210 q 338 151 253 151 q 517 269 517 151 q 476 362 517 329 q 332 431 435 394 q 204 490 253 458 q 130 569 156 521 q 104 689 104 617 q 151 845 104 776 q 281 953 197 914 q 476 992 365 992 q 651 969 571 992 q 782 917 732 947 l 732 735 q 594 801 656 781 q 463 822 533 822 q 337 794 385 822 q 289 708 289 767 q 328 634 289 660 q 451 579 367 608 q 592 522 538 550 q 683 442 646 494 q 721 307 721 390 q 681 149 721 224 q 551 28 642 75 q 317 -19 460 -19 m 408 1158 l 676 1290 l 651 1135 l 392 1054 l 408 1158 m 524 1488 l 665 1488 l 640 1353 l 499 1353 l 524 1488 z "},"Š":{"ha":786,"x_min":7,"x_max":782,"o":"m 317 -19 q 7 51 146 -19 l 63 254 q 183 181 113 210 q 338 151 253 151 q 517 269 517 151 q 476 362 517 329 q 332 431 435 394 q 204 490 253 458 q 130 569 156 521 q 104 689 104 617 q 151 845 104 776 q 281 953 197 914 q 476 992 365 992 q 651 969 571 992 q 782 917 732 947 l 732 735 q 594 801 656 781 q 463 822 533 822 q 337 794 385 822 q 289 708 289 767 q 328 634 289 660 q 451 579 367 608 q 592 522 538 550 q 683 442 646 494 q 721 307 721 390 q 681 149 721 224 q 551 28 642 75 q 317 -19 460 -19 m 361 1210 l 383 1319 l 543 1204 l 742 1319 l 719 1197 l 514 1054 l 361 1210 z "},"Ṧ":{"ha":786,"x_min":7,"x_max":782,"o":"m 317 -19 q 7 51 146 -19 l 63 254 q 183 181 113 210 q 338 151 253 151 q 517 269 517 151 q 476 362 517 329 q 332 431 435 394 q 204 490 253 458 q 130 569 156 521 q 104 689 104 617 q 151 845 104 776 q 281 953 197 914 q 476 992 365 992 q 651 969 571 992 q 782 917 732 947 l 732 735 q 594 801 656 781 q 463 822 533 822 q 337 794 385 822 q 289 708 289 767 q 328 634 289 660 q 451 579 367 608 q 592 522 538 550 q 683 442 646 494 q 721 307 721 390 q 681 149 721 224 q 551 28 642 75 q 317 -19 460 -19 m 346 1163 l 364 1265 l 525 1157 l 697 1263 l 676 1144 l 506 1035 l 346 1163 m 501 1442 l 643 1442 l 618 1307 l 476 1307 l 501 1442 z "},"Ş":{"ha":786,"x_min":7,"x_max":782,"o":"m 463 822 q 337 794 385 822 q 289 708 289 767 q 328 634 289 660 q 451 579 367 608 q 592 522 538 550 q 683 442 646 494 q 721 307 721 390 q 686 159 721 229 q 574 40 651 89 q 372 -18 496 -8 l 344 -75 l 353 -75 q 431 -101 403 -75 q 460 -175 460 -128 q 408 -288 460 -244 q 276 -332 356 -332 q 167 -306 214 -332 l 208 -224 q 294 -247 253 -247 q 349 -233 329 -247 q 369 -194 369 -218 q 306 -153 369 -153 q 236 -162 274 -153 l 296 -19 q 7 51 132 -14 l 63 254 q 183 181 113 210 q 338 151 253 151 q 517 269 517 151 q 476 362 517 329 q 332 431 435 394 q 204 490 253 458 q 130 569 156 521 q 104 689 104 617 q 151 845 104 776 q 281 953 197 914 q 476 992 365 992 q 651 969 571 992 q 782 917 732 947 l 732 735 q 594 801 656 781 q 463 822 533 822 z "},"Ŝ":{"ha":786,"x_min":7,"x_max":782,"o":"m 317 -19 q 7 51 146 -19 l 63 254 q 183 181 113 210 q 338 151 253 151 q 517 269 517 151 q 476 362 517 329 q 332 431 435 394 q 204 490 253 458 q 130 569 156 521 q 104 689 104 617 q 151 845 104 776 q 281 953 197 914 q 476 992 365 992 q 651 969 571 992 q 782 917 732 947 l 732 735 q 594 801 656 781 q 463 822 533 822 q 337 794 385 822 q 289 708 289 767 q 328 634 289 660 q 451 579 367 608 q 592 522 538 550 q 683 442 646 494 q 721 307 721 390 q 681 149 721 224 q 551 28 642 75 q 317 -19 460 -19 m 711 1138 l 693 1035 l 528 1135 l 358 1051 l 376 1154 l 551 1265 l 711 1138 z "},"Ș":{"ha":786,"x_min":7,"x_max":782,"o":"m 317 -19 q 7 51 146 -19 l 63 254 q 183 181 113 210 q 338 151 253 151 q 517 269 517 151 q 476 362 517 329 q 332 431 435 394 q 204 490 253 458 q 130 569 156 521 q 104 689 104 617 q 151 845 104 776 q 281 953 197 914 q 476 992 365 992 q 651 969 571 992 q 782 917 732 947 l 732 735 q 594 801 656 781 q 463 822 533 822 q 337 794 385 822 q 289 708 289 767 q 328 634 289 660 q 451 579 367 608 q 592 522 538 550 q 683 442 646 494 q 721 307 721 390 q 681 149 721 224 q 551 28 642 75 q 317 -19 460 -19 m 206 -385 l 275 -261 l 221 -261 l 244 -126 l 389 -126 l 365 -261 l 265 -385 l 206 -385 z "},"Ṡ":{"ha":786,"x_min":7,"x_max":782,"o":"m 317 -19 q 7 51 146 -19 l 63 254 q 183 181 113 210 q 338 151 253 151 q 517 269 517 151 q 476 362 517 329 q 332 431 435 394 q 204 490 253 458 q 130 569 156 521 q 104 689 104 617 q 151 845 104 776 q 281 953 197 914 q 476 992 365 992 q 651 969 571 992 q 782 917 732 947 l 732 735 q 594 801 656 781 q 463 822 533 822 q 337 794 385 822 q 289 708 289 767 q 328 634 289 660 q 451 579 367 608 q 592 522 538 550 q 683 442 646 494 q 721 307 721 390 q 681 149 721 224 q 551 28 642 75 q 317 -19 460 -19 m 475 1235 l 617 1235 l 592 1100 l 450 1100 l 475 1235 z "},"Ṣ":{"ha":786,"x_min":7,"x_max":782,"o":"m 317 -19 q 7 51 146 -19 l 63 254 q 183 181 113 210 q 338 151 253 151 q 517 269 517 151 q 476 362 517 329 q 332 431 435 394 q 204 490 253 458 q 130 569 156 521 q 104 689 104 617 q 151 845 104 776 q 281 953 197 914 q 476 992 365 992 q 651 969 571 992 q 782 917 732 947 l 732 735 q 594 801 656 781 q 463 822 533 822 q 337 794 385 822 q 289 708 289 767 q 328 634 289 660 q 451 579 367 608 q 592 522 538 550 q 683 442 646 494 q 721 307 721 390 q 681 149 721 224 q 551 28 642 75 q 317 -19 460 -19 m 253 -112 l 392 -112 l 367 -247 l 228 -247 l 253 -112 z "},"Ṩ":{"ha":786,"x_min":7,"x_max":782,"o":"m 317 -19 q 7 51 146 -19 l 63 254 q 183 181 113 210 q 338 151 253 151 q 517 269 517 151 q 476 362 517 329 q 332 431 435 394 q 204 490 253 458 q 130 569 156 521 q 104 689 104 617 q 151 845 104 776 q 281 953 197 914 q 476 992 365 992 q 651 969 571 992 q 782 917 732 947 l 732 735 q 594 801 656 781 q 463 822 533 822 q 337 794 385 822 q 289 708 289 767 q 328 634 289 660 q 451 579 367 608 q 592 522 538 550 q 683 442 646 494 q 721 307 721 390 q 681 149 721 224 q 551 28 642 75 q 317 -19 460 -19 m 475 1235 l 617 1235 l 592 1100 l 450 1100 l 475 1235 m 253 -112 l 392 -112 l 367 -247 l 228 -247 l 253 -112 z "},"ẞ":{"ha":871,"x_min":25,"x_max":854,"o":"m 822 776 l 631 549 q 760 457 715 519 q 806 304 806 394 q 760 131 806 204 q 637 19 715 57 q 461 -19 558 -19 q 310 0 385 -19 l 339 167 q 446 151 390 151 q 563 190 517 151 q 608 300 608 228 q 569 398 608 364 q 458 435 531 432 l 431 436 l 457 575 l 664 815 q 558 829 613 829 q 394 772 458 829 q 308 597 329 715 l 203 0 l 25 0 l 139 642 q 282 905 169 818 q 564 992 394 992 q 854 921 719 992 l 822 776 z "},"Ə":{"ha":969,"x_min":39,"x_max":942,"o":"m 538 992 q 759 940 668 992 q 896 797 850 889 q 942 588 942 706 q 872 287 942 426 q 678 64 801 147 q 403 -19 554 -19 q 137 74 235 -19 q 39 328 39 167 q 50 428 39 375 q 79 522 61 481 l 746 522 q 747 565 747 536 q 682 754 747 688 q 492 821 617 821 q 175 743 342 821 l 193 910 q 358 969 269 947 q 538 992 447 992 m 426 151 q 600 209 528 151 q 711 364 672 267 l 228 364 q 226 335 226 354 q 277 201 226 251 q 426 151 328 151 z "},"T":{"ha":783,"x_min":110,"x_max":843,"o":"m 372 800 l 110 800 l 140 972 l 843 972 l 813 800 l 550 800 l 410 0 l 232 0 l 372 800 z "},"Ŧ":{"ha":783,"x_min":110,"x_max":843,"o":"m 550 800 l 504 540 l 686 540 l 665 425 l 485 425 l 410 0 l 232 0 l 307 425 l 125 425 l 146 540 l 326 540 l 372 800 l 110 800 l 140 972 l 843 972 l 813 800 l 550 800 z "},"Ť":{"ha":783,"x_min":110,"x_max":843,"o":"m 372 800 l 110 800 l 140 972 l 843 972 l 813 800 l 550 800 l 410 0 l 232 0 l 372 800 m 339 1163 l 357 1265 l 518 1157 l 690 1263 l 669 1144 l 499 1035 l 339 1163 z "},"Ţ":{"ha":783,"x_min":110,"x_max":843,"o":"m 372 800 l 110 800 l 140 972 l 843 972 l 813 800 l 550 800 l 410 0 l 232 0 l 372 800 m 335 -75 q 413 -101 385 -75 q 442 -175 442 -128 q 390 -288 442 -244 q 258 -332 338 -332 q 149 -306 196 -332 l 190 -224 q 276 -247 235 -247 q 331 -233 311 -247 q 351 -194 351 -218 q 288 -153 351 -153 q 218 -162 256 -153 l 286 0 l 363 0 l 326 -75 l 335 -75 z "},"Ț":{"ha":783,"x_min":110,"x_max":843,"o":"m 372 800 l 110 800 l 140 972 l 843 972 l 813 800 l 550 800 l 410 0 l 232 0 l 372 800 m 188 -385 l 257 -261 l 203 -261 l 226 -126 l 371 -126 l 347 -261 l 247 -385 l 188 -385 z "},"Ṭ":{"ha":783,"x_min":110,"x_max":843,"o":"m 372 800 l 110 800 l 140 972 l 843 972 l 813 800 l 550 800 l 410 0 l 232 0 l 372 800 m 235 -112 l 374 -112 l 349 -247 l 210 -247 l 235 -112 z "},"Ṯ":{"ha":783,"x_min":54,"x_max":843,"o":"m 372 800 l 110 800 l 140 972 l 843 972 l 813 800 l 550 800 l 410 0 l 232 0 l 372 800 m 76 -126 l 521 -126 l 499 -239 l 54 -239 l 76 -126 z "},"U":{"ha":965,"x_min":88,"x_max":969,"o":"m 408 -19 q 168 63 249 -19 q 88 294 88 144 q 99 417 88 356 l 197 972 l 374 972 l 286 476 q 272 340 272 399 q 311 200 274 249 q 438 151 349 151 q 617 237 558 151 q 704 476 676 322 l 792 972 l 969 972 l 871 417 q 717 97 835 213 q 408 -19 600 -19 z "},"Ú":{"ha":965,"x_min":88,"x_max":969,"o":"m 408 -19 q 168 63 249 -19 q 88 294 88 144 q 99 417 88 356 l 197 972 l 374 972 l 286 476 q 272 340 272 399 q 311 200 274 249 q 438 151 349 151 q 617 237 558 151 q 704 476 676 322 l 792 972 l 969 972 l 871 417 q 717 97 835 213 q 408 -19 600 -19 m 497 1185 l 778 1335 l 751 1161 l 474 1069 l 497 1185 z "},"Ŭ":{"ha":965,"x_min":88,"x_max":969,"o":"m 408 -19 q 168 63 249 -19 q 88 294 88 144 q 99 417 88 356 l 197 972 l 374 972 l 286 476 q 272 340 272 399 q 311 200 274 249 q 438 151 349 151 q 617 237 558 151 q 704 476 676 322 l 792 972 l 969 972 l 871 417 q 717 97 835 213 q 408 -19 600 -19 m 597 1063 q 462 1106 511 1063 q 413 1214 413 1149 q 415 1246 413 1224 l 533 1246 q 531 1224 531 1235 q 553 1174 531 1192 q 613 1157 575 1157 q 685 1181 656 1157 q 722 1246 715 1204 l 843 1246 q 763 1113 829 1163 q 597 1063 696 1063 z "},"Û":{"ha":965,"x_min":88,"x_max":969,"o":"m 408 -19 q 168 63 249 -19 q 88 294 88 144 q 99 417 88 356 l 197 972 l 374 972 l 286 476 q 272 340 272 399 q 311 200 274 249 q 438 151 349 151 q 617 237 558 151 q 704 476 676 322 l 792 972 l 969 972 l 871 417 q 717 97 835 213 q 408 -19 600 -19 m 464 1176 l 647 1313 l 800 1157 l 778 1047 l 618 1163 l 440 1064 l 464 1176 z "},"Ȕ":{"ha":965,"x_min":88,"x_max":969,"o":"m 408 -19 q 168 63 249 -19 q 88 294 88 144 q 99 417 88 356 l 197 972 l 374 972 l 286 476 q 272 340 272 399 q 311 200 274 249 q 438 151 349 151 q 617 237 558 151 q 704 476 676 322 l 792 972 l 969 972 l 871 417 q 717 97 835 213 q 408 -19 600 -19 m 446 1094 l 346 1313 l 503 1313 l 553 1094 l 446 1094 m 647 1094 l 558 1313 l 715 1313 l 754 1094 l 647 1094 z "},"Ü":{"ha":965,"x_min":88,"x_max":969,"o":"m 408 -19 q 168 63 249 -19 q 88 294 88 144 q 99 417 88 356 l 197 972 l 374 972 l 286 476 q 272 340 272 399 q 311 200 274 249 q 438 151 349 151 q 617 237 558 151 q 704 476 676 322 l 792 972 l 969 972 l 871 417 q 717 97 835 213 q 408 -19 600 -19 m 426 1224 l 557 1224 l 532 1099 l 401 1099 l 426 1224 m 701 1224 l 832 1224 l 807 1099 l 676 1099 l 701 1224 z "},"Ụ":{"ha":965,"x_min":88,"x_max":969,"o":"m 408 -19 q 168 63 249 -19 q 88 294 88 144 q 99 417 88 356 l 197 972 l 374 972 l 286 476 q 272 340 272 399 q 311 200 274 249 q 438 151 349 151 q 617 237 558 151 q 704 476 676 322 l 792 972 l 969 972 l 871 417 q 717 97 835 213 q 408 -19 600 -19 m 310 -112 l 449 -112 l 424 -247 l 285 -247 l 310 -112 z "},"Ù":{"ha":965,"x_min":88,"x_max":969,"o":"m 408 -19 q 168 63 249 -19 q 88 294 88 144 q 99 417 88 356 l 197 972 l 374 972 l 286 476 q 272 340 272 399 q 311 200 274 249 q 438 151 349 151 q 617 237 558 151 q 704 476 676 322 l 792 972 l 969 972 l 871 417 q 717 97 835 213 q 408 -19 600 -19 m 485 1175 l 513 1335 l 747 1179 l 728 1069 l 485 1175 z "},"Ủ":{"ha":965,"x_min":88,"x_max":969,"o":"m 408 -19 q 168 63 249 -19 q 88 294 88 144 q 99 417 88 356 l 197 972 l 374 972 l 286 476 q 272 340 272 399 q 311 200 274 249 q 438 151 349 151 q 617 237 558 151 q 704 476 676 322 l 792 972 l 969 972 l 871 417 q 717 97 835 213 q 408 -19 600 -19 m 569 1071 q 627 1121 607 1099 q 647 1168 647 1143 q 636 1196 647 1186 q 606 1206 625 1206 q 515 1181 571 1206 l 508 1263 q 622 1288 568 1288 q 706 1262 674 1288 q 738 1190 738 1236 q 705 1098 738 1138 q 611 1019 672 1058 l 569 1071 z "},"Ư":{"ha":965,"x_min":88,"x_max":1143,"o":"m 1143 1075 q 1078 953 1131 1006 q 953 876 1026 900 l 871 417 q 717 97 835 213 q 408 -19 600 -19 q 168 63 249 -19 q 88 294 88 144 q 99 417 88 356 l 197 972 l 374 972 l 286 476 q 272 340 272 399 q 311 200 274 249 q 438 151 349 151 q 617 237 558 151 q 704 476 676 322 l 792 972 l 867 972 q 996 1075 976 972 l 1143 1075 z "},"Ứ":{"ha":965,"x_min":88,"x_max":1143,"o":"m 1143 1075 q 1078 953 1131 1006 q 953 876 1026 900 l 871 417 q 717 97 835 213 q 408 -19 600 -19 q 168 63 249 -19 q 88 294 88 144 q 99 417 88 356 l 197 972 l 374 972 l 286 476 q 272 340 272 399 q 311 200 274 249 q 438 151 349 151 q 617 237 558 151 q 704 476 676 322 l 792 972 l 867 972 q 996 1075 976 972 l 1143 1075 m 497 1185 l 778 1335 l 751 1161 l 474 1069 l 497 1185 z "},"Ự":{"ha":965,"x_min":88,"x_max":1143,"o":"m 1143 1075 q 1078 953 1131 1006 q 953 876 1026 900 l 871 417 q 717 97 835 213 q 408 -19 600 -19 q 168 63 249 -19 q 88 294 88 144 q 99 417 88 356 l 197 972 l 374 972 l 286 476 q 272 340 272 399 q 311 200 274 249 q 438 151 349 151 q 617 237 558 151 q 704 476 676 322 l 792 972 l 867 972 q 996 1075 976 972 l 1143 1075 m 310 -112 l 449 -112 l 424 -247 l 285 -247 l 310 -112 z "},"Ừ":{"ha":965,"x_min":88,"x_max":1143,"o":"m 1143 1075 q 1078 953 1131 1006 q 953 876 1026 900 l 871 417 q 717 97 835 213 q 408 -19 600 -19 q 168 63 249 -19 q 88 294 88 144 q 99 417 88 356 l 197 972 l 374 972 l 286 476 q 272 340 272 399 q 311 200 274 249 q 438 151 349 151 q 617 237 558 151 q 704 476 676 322 l 792 972 l 867 972 q 996 1075 976 972 l 1143 1075 m 485 1175 l 513 1335 l 747 1179 l 728 1069 l 485 1175 z "},"Ử":{"ha":965,"x_min":88,"x_max":1143,"o":"m 1143 1075 q 1078 953 1131 1006 q 953 876 1026 900 l 871 417 q 717 97 835 213 q 408 -19 600 -19 q 168 63 249 -19 q 88 294 88 144 q 99 417 88 356 l 197 972 l 374 972 l 286 476 q 272 340 272 399 q 311 200 274 249 q 438 151 349 151 q 617 237 558 151 q 704 476 676 322 l 792 972 l 867 972 q 996 1075 976 972 l 1143 1075 m 569 1071 q 627 1121 607 1099 q 647 1168 647 1143 q 636 1196 647 1186 q 606 1206 625 1206 q 515 1181 571 1206 l 508 1263 q 622 1288 568 1288 q 706 1262 674 1288 q 738 1190 738 1236 q 705 1098 738 1138 q 611 1019 672 1058 l 569 1071 z "},"Ữ":{"ha":965,"x_min":88,"x_max":1143,"o":"m 1143 1075 q 1078 953 1131 1006 q 953 876 1026 900 l 871 417 q 717 97 835 213 q 408 -19 600 -19 q 168 63 249 -19 q 88 294 88 144 q 99 417 88 356 l 197 972 l 374 972 l 286 476 q 272 340 272 399 q 311 200 274 249 q 438 151 349 151 q 617 237 558 151 q 704 476 676 322 l 792 972 l 867 972 q 996 1075 976 972 l 1143 1075 m 728 1081 q 686 1088 707 1081 q 626 1113 665 1096 q 579 1132 603 1124 q 539 1140 556 1140 q 500 1127 515 1140 q 481 1092 485 1114 l 372 1092 q 421 1217 383 1174 q 517 1260 458 1260 q 565 1251 540 1260 q 619 1226 589 1242 q 700 1200 675 1200 q 753 1253 744 1200 l 867 1253 q 819 1123 853 1165 q 728 1081 785 1081 z "},"Ű":{"ha":965,"x_min":88,"x_max":969,"o":"m 408 -19 q 168 63 249 -19 q 88 294 88 144 q 99 417 88 356 l 197 972 l 374 972 l 286 476 q 272 340 272 399 q 311 200 274 249 q 438 151 349 151 q 617 237 558 151 q 704 476 676 322 l 792 972 l 969 972 l 871 417 q 717 97 835 213 q 408 -19 600 -19 m 556 1313 l 715 1313 l 549 1094 l 439 1094 l 556 1313 m 771 1313 l 931 1313 l 753 1094 l 643 1094 l 771 1313 z "},"Ȗ":{"ha":965,"x_min":88,"x_max":969,"o":"m 408 -19 q 168 63 249 -19 q 88 294 88 144 q 99 417 88 356 l 197 972 l 374 972 l 286 476 q 272 340 272 399 q 311 200 274 249 q 438 151 349 151 q 617 237 558 151 q 704 476 676 322 l 792 972 l 969 972 l 871 417 q 717 97 835 213 q 408 -19 600 -19 m 633 1267 q 768 1224 719 1267 q 817 1117 817 1182 q 814 1083 817 1106 l 696 1083 q 699 1104 699 1097 q 676 1155 699 1138 q 617 1172 654 1172 q 544 1149 574 1172 q 508 1083 515 1125 l 390 1083 q 471 1214 404 1161 q 633 1267 538 1267 z "},"Ū":{"ha":965,"x_min":88,"x_max":969,"o":"m 408 -19 q 168 63 249 -19 q 88 294 88 144 q 99 417 88 356 l 197 972 l 374 972 l 286 476 q 272 340 272 399 q 311 200 274 249 q 438 151 349 151 q 617 237 558 151 q 704 476 676 322 l 792 972 l 969 972 l 871 417 q 717 97 835 213 q 408 -19 600 -19 m 400 1207 l 844 1207 l 825 1101 l 381 1101 l 400 1207 z "},"Ṻ":{"ha":965,"x_min":88,"x_max":969,"o":"m 408 -19 q 168 63 249 -19 q 88 294 88 144 q 99 417 88 356 l 197 972 l 374 972 l 286 476 q 272 340 272 399 q 311 200 274 249 q 438 151 349 151 q 617 237 558 151 q 704 476 676 322 l 792 972 l 969 972 l 871 417 q 717 97 835 213 q 408 -19 600 -19 m 400 1207 l 844 1207 l 825 1101 l 381 1101 l 400 1207 m 465 1443 l 596 1443 l 574 1324 l 443 1324 l 465 1443 m 738 1443 l 868 1443 l 846 1324 l 715 1324 l 738 1443 z "},"Ų":{"ha":965,"x_min":88,"x_max":969,"o":"m 969 972 l 871 417 q 744 125 839 238 q 497 -12 650 13 q 381 -158 381 -93 q 394 -196 381 -183 q 432 -208 407 -208 q 514 -192 472 -208 l 524 -268 q 403 -293 468 -293 q 319 -267 351 -293 q 286 -196 288 -242 q 318 -102 286 -147 q 400 -19 350 -57 q 166 64 244 -18 q 88 294 88 146 q 99 417 88 356 l 197 972 l 374 972 l 286 476 q 272 340 272 399 q 311 200 274 249 q 438 151 349 151 q 617 237 558 151 q 704 476 676 322 l 792 972 l 969 972 z "},"Ů":{"ha":965,"x_min":88,"x_max":969,"o":"m 408 -19 q 168 63 249 -19 q 88 294 88 144 q 99 417 88 356 l 197 972 l 374 972 l 286 476 q 272 340 272 399 q 311 200 274 249 q 438 151 349 151 q 617 237 558 151 q 704 476 676 322 l 792 972 l 969 972 l 871 417 q 717 97 835 213 q 408 -19 600 -19 m 599 1047 q 510 1078 542 1047 q 478 1158 478 1110 q 526 1272 478 1225 q 639 1318 574 1318 q 727 1286 696 1318 q 758 1206 758 1254 q 712 1093 758 1139 q 599 1047 665 1047 m 607 1119 q 655 1142 635 1119 q 675 1190 675 1164 q 663 1230 675 1215 q 629 1244 650 1244 q 581 1222 601 1244 q 561 1169 561 1200 q 574 1133 561 1147 q 607 1119 588 1119 z "},"Ũ":{"ha":965,"x_min":88,"x_max":969,"o":"m 408 -19 q 168 63 249 -19 q 88 294 88 144 q 99 417 88 356 l 197 972 l 374 972 l 286 476 q 272 340 272 399 q 311 200 274 249 q 438 151 349 151 q 617 237 558 151 q 704 476 676 322 l 792 972 l 969 972 l 871 417 q 717 97 835 213 q 408 -19 600 -19 m 728 1081 q 686 1088 707 1081 q 626 1113 665 1096 q 579 1132 603 1124 q 539 1140 556 1140 q 500 1127 515 1140 q 481 1092 485 1114 l 372 1092 q 421 1217 383 1174 q 517 1260 458 1260 q 565 1251 540 1260 q 619 1226 589 1242 q 700 1200 675 1200 q 753 1253 744 1200 l 867 1253 q 819 1123 853 1165 q 728 1081 785 1081 z "},"Ṹ":{"ha":965,"x_min":88,"x_max":969,"o":"m 408 -19 q 168 63 249 -19 q 88 294 88 144 q 99 417 88 356 l 197 972 l 374 972 l 286 476 q 272 340 272 399 q 311 200 274 249 q 438 151 349 151 q 617 237 558 151 q 704 476 676 322 l 792 972 l 969 972 l 871 417 q 717 97 835 213 q 408 -19 600 -19 m 708 1079 q 665 1086 688 1079 q 611 1107 642 1093 q 569 1124 590 1117 q 532 1132 547 1132 q 486 1089 494 1132 l 381 1089 q 519 1235 408 1235 q 614 1207 553 1235 q 656 1190 635 1197 q 693 1182 678 1182 q 739 1228 731 1182 l 844 1228 q 799 1117 833 1154 q 708 1079 764 1079 m 529 1386 l 797 1518 l 772 1363 l 513 1282 l 529 1386 z "},"V":{"ha":886,"x_min":97,"x_max":974,"o":"m 97 972 l 282 972 l 410 207 l 790 972 l 974 972 l 478 0 l 258 0 l 97 972 z "},"W":{"ha":1297,"x_min":121,"x_max":1383,"o":"m 121 972 l 306 972 l 367 282 l 693 972 l 813 972 l 906 300 l 1199 972 l 1383 972 l 939 0 l 786 0 l 694 649 l 376 0 l 213 0 l 121 972 z "},"Ẃ":{"ha":1297,"x_min":121,"x_max":1383,"o":"m 121 972 l 306 972 l 367 282 l 693 972 l 813 972 l 906 300 l 1199 972 l 1383 972 l 939 0 l 786 0 l 694 649 l 376 0 l 213 0 l 121 972 m 663 1158 l 931 1290 l 906 1135 l 646 1054 l 663 1158 z "},"Ŵ":{"ha":1297,"x_min":121,"x_max":1383,"o":"m 121 972 l 306 972 l 367 282 l 693 972 l 813 972 l 906 300 l 1199 972 l 1383 972 l 939 0 l 786 0 l 694 649 l 376 0 l 213 0 l 121 972 m 965 1138 l 947 1035 l 782 1135 l 613 1051 l 631 1154 l 806 1265 l 965 1138 z "},"Ẅ":{"ha":1297,"x_min":121,"x_max":1383,"o":"m 121 972 l 306 972 l 367 282 l 693 972 l 813 972 l 906 300 l 1199 972 l 1383 972 l 939 0 l 786 0 l 694 649 l 376 0 l 213 0 l 121 972 m 593 1207 l 724 1207 l 701 1088 l 571 1088 l 593 1207 m 865 1207 l 996 1207 l 974 1088 l 843 1088 l 865 1207 z "},"Ẁ":{"ha":1297,"x_min":121,"x_max":1383,"o":"m 121 972 l 306 972 l 367 282 l 693 972 l 813 972 l 906 300 l 1199 972 l 1383 972 l 939 0 l 786 0 l 694 649 l 376 0 l 213 0 l 121 972 m 650 1135 l 678 1282 l 915 1150 l 896 1054 l 650 1135 z "},"X":{"ha":856,"x_min":-68,"x_max":932,"o":"m 346 500 l 121 972 l 326 972 l 471 622 l 725 972 l 932 972 l 547 493 l 782 0 l 574 0 l 417 357 l 138 0 l -68 0 l 346 500 z "},"Y":{"ha":838,"x_min":101,"x_max":926,"o":"m 329 431 l 101 972 l 290 972 l 449 583 l 738 972 l 926 972 l 507 431 l 431 0 l 254 0 l 329 431 z "},"Ý":{"ha":838,"x_min":101,"x_max":926,"o":"m 329 431 l 101 972 l 290 972 l 449 583 l 738 972 l 926 972 l 507 431 l 431 0 l 254 0 l 329 431 m 431 1185 l 711 1335 l 685 1161 l 407 1069 l 431 1185 z "},"Ŷ":{"ha":838,"x_min":101,"x_max":926,"o":"m 329 431 l 101 972 l 290 972 l 449 583 l 738 972 l 926 972 l 507 431 l 431 0 l 254 0 l 329 431 m 726 1138 l 708 1035 l 543 1135 l 374 1051 l 392 1154 l 567 1265 l 726 1138 z "},"Ÿ":{"ha":838,"x_min":101,"x_max":926,"o":"m 329 431 l 101 972 l 290 972 l 449 583 l 738 972 l 926 972 l 507 431 l 431 0 l 254 0 l 329 431 m 360 1224 l 490 1224 l 465 1099 l 335 1099 l 360 1224 m 635 1224 l 765 1224 l 740 1099 l 610 1099 l 635 1224 z "},"Ẏ":{"ha":838,"x_min":101,"x_max":926,"o":"m 329 431 l 101 972 l 290 972 l 449 583 l 738 972 l 926 972 l 507 431 l 431 0 l 254 0 l 329 431 m 490 1235 l 632 1235 l 607 1100 l 465 1100 l 490 1235 z "},"Ỵ":{"ha":838,"x_min":101,"x_max":926,"o":"m 329 431 l 101 972 l 290 972 l 449 583 l 738 972 l 926 972 l 507 431 l 431 0 l 254 0 l 329 431 m 257 -112 l 396 -112 l 371 -247 l 232 -247 l 257 -112 z "},"Ỳ":{"ha":838,"x_min":101,"x_max":926,"o":"m 329 431 l 101 972 l 290 972 l 449 583 l 738 972 l 926 972 l 507 431 l 431 0 l 254 0 l 329 431 m 418 1175 l 446 1335 l 681 1179 l 661 1069 l 418 1175 z "},"Ỷ":{"ha":838,"x_min":101,"x_max":926,"o":"m 329 431 l 101 972 l 290 972 l 449 583 l 738 972 l 926 972 l 507 431 l 431 0 l 254 0 l 329 431 m 503 1071 q 560 1121 540 1099 q 581 1168 581 1143 q 569 1196 581 1186 q 539 1206 558 1206 q 449 1181 504 1206 l 442 1263 q 556 1288 501 1288 q 639 1262 607 1288 q 671 1190 671 1236 q 638 1098 671 1138 q 544 1019 606 1058 l 503 1071 z "},"Ȳ":{"ha":838,"x_min":101,"x_max":926,"o":"m 329 431 l 101 972 l 290 972 l 449 583 l 738 972 l 926 972 l 507 431 l 431 0 l 254 0 l 329 431 m 333 1207 l 778 1207 l 758 1101 l 314 1101 l 333 1207 z "},"Ỹ":{"ha":838,"x_min":101,"x_max":926,"o":"m 329 431 l 101 972 l 290 972 l 449 583 l 738 972 l 926 972 l 507 431 l 431 0 l 254 0 l 329 431 m 661 1081 q 619 1088 640 1081 q 560 1113 599 1096 q 513 1132 536 1124 q 472 1140 489 1140 q 433 1127 449 1140 q 414 1092 418 1114 l 306 1092 q 354 1217 317 1174 q 450 1260 392 1260 q 498 1251 474 1260 q 553 1226 522 1242 q 633 1200 608 1200 q 686 1253 678 1200 l 800 1253 q 752 1123 786 1165 q 661 1081 718 1081 z "},"Z":{"ha":744,"x_min":-54,"x_max":828,"o":"m 504 800 l 147 800 l 178 972 l 828 972 l 269 172 l 626 172 l 596 0 l -54 0 l 504 800 z "},"Ź":{"ha":744,"x_min":-54,"x_max":828,"o":"m 504 800 l 147 800 l 178 972 l 828 972 l 269 172 l 626 172 l 596 0 l -54 0 l 504 800 m 413 1158 l 681 1290 l 656 1135 l 396 1054 l 413 1158 z "},"Ž":{"ha":744,"x_min":-54,"x_max":828,"o":"m 504 800 l 147 800 l 178 972 l 828 972 l 269 172 l 626 172 l 596 0 l -54 0 l 504 800 m 365 1210 l 388 1319 l 547 1204 l 746 1319 l 724 1197 l 518 1054 l 365 1210 z "},"Ż":{"ha":744,"x_min":-54,"x_max":828,"o":"m 504 800 l 147 800 l 178 972 l 828 972 l 269 172 l 626 172 l 596 0 l -54 0 l 504 800 m 479 1235 l 621 1235 l 596 1100 l 454 1100 l 479 1235 z "},"Ẓ":{"ha":744,"x_min":-54,"x_max":828,"o":"m 504 800 l 147 800 l 178 972 l 828 972 l 269 172 l 626 172 l 596 0 l -54 0 l 504 800 m 185 -112 l 324 -112 l 299 -247 l 160 -247 l 185 -112 z "},"a":{"ha":811,"x_min":25,"x_max":746,"o":"m 282 -14 q 94 67 164 -14 q 25 275 25 147 q 73 484 25 385 q 210 644 121 583 q 415 706 299 706 q 506 690 468 706 q 576 646 544 675 l 596 694 l 746 694 l 665 219 q 660 167 660 188 q 672 133 660 139 q 728 128 685 128 l 689 -14 q 580 -8 617 -14 q 524 15 543 -1 q 486 67 504 31 q 395 8 443 29 q 282 -14 347 -14 m 340 128 q 485 214 443 128 q 528 406 528 300 q 403 564 528 564 q 300 528 346 564 q 229 431 254 492 q 204 297 204 369 q 238 173 204 218 q 340 128 271 128 z "},"á":{"ha":811,"x_min":25,"x_max":746,"o":"m 282 -14 q 94 67 164 -14 q 25 275 25 147 q 73 484 25 385 q 210 644 121 583 q 415 706 299 706 q 506 690 468 706 q 576 646 544 675 l 596 694 l 746 694 l 665 219 q 660 167 660 188 q 672 133 660 139 q 728 128 685 128 l 689 -14 q 580 -8 617 -14 q 524 15 543 -1 q 486 67 504 31 q 395 8 443 29 q 282 -14 347 -14 m 340 128 q 485 214 443 128 q 528 406 528 300 q 403 564 528 564 q 300 528 346 564 q 229 431 254 492 q 204 297 204 369 q 238 173 204 218 q 340 128 271 128 m 379 907 l 660 1057 l 633 883 l 356 792 l 379 907 z "},"ă":{"ha":811,"x_min":25,"x_max":746,"o":"m 282 -14 q 94 67 164 -14 q 25 275 25 147 q 73 484 25 385 q 210 644 121 583 q 415 706 299 706 q 506 690 468 706 q 576 646 544 675 l 596 694 l 746 694 l 665 219 q 660 167 660 188 q 672 133 660 139 q 728 128 685 128 l 689 -14 q 580 -8 617 -14 q 524 15 543 -1 q 486 67 504 31 q 395 8 443 29 q 282 -14 347 -14 m 340 128 q 485 214 443 128 q 528 406 528 300 q 403 564 528 564 q 300 528 346 564 q 229 431 254 492 q 204 297 204 369 q 238 173 204 218 q 340 128 271 128 m 499 815 q 363 859 413 815 q 313 969 313 903 q 317 1008 313 992 l 428 1008 q 425 986 425 994 q 447 937 425 954 q 506 919 468 919 q 581 943 550 919 q 619 1008 611 967 l 744 1008 q 660 867 722 918 q 499 815 597 815 z "},"ắ":{"ha":811,"x_min":25,"x_max":746,"o":"m 282 -14 q 94 67 164 -14 q 25 275 25 147 q 73 484 25 385 q 210 644 121 583 q 415 706 299 706 q 506 690 468 706 q 576 646 544 675 l 596 694 l 746 694 l 665 219 q 660 167 660 188 q 672 133 660 139 q 728 128 685 128 l 689 -14 q 580 -8 617 -14 q 524 15 543 -1 q 486 67 504 31 q 395 8 443 29 q 282 -14 347 -14 m 340 128 q 485 214 443 128 q 528 406 528 300 q 403 564 528 564 q 300 528 346 564 q 229 431 254 492 q 204 297 204 369 q 238 173 204 218 q 340 128 271 128 m 490 785 q 355 828 404 785 q 306 936 306 871 q 308 968 306 946 l 426 968 q 424 946 424 957 q 446 897 424 914 q 506 879 468 879 q 578 903 549 879 q 615 968 608 926 l 736 968 q 656 835 722 885 q 490 785 589 785 m 447 1126 l 715 1258 l 690 1103 l 431 1022 l 447 1126 z "},"ặ":{"ha":811,"x_min":25,"x_max":746,"o":"m 282 -14 q 94 67 164 -14 q 25 275 25 147 q 73 484 25 385 q 210 644 121 583 q 415 706 299 706 q 506 690 468 706 q 576 646 544 675 l 596 694 l 746 694 l 665 219 q 660 167 660 188 q 672 133 660 139 q 728 128 685 128 l 689 -14 q 580 -8 617 -14 q 524 15 543 -1 q 486 67 504 31 q 395 8 443 29 q 282 -14 347 -14 m 340 128 q 485 214 443 128 q 528 406 528 300 q 403 564 528 564 q 300 528 346 564 q 229 431 254 492 q 204 297 204 369 q 238 173 204 218 q 340 128 271 128 m 499 815 q 363 859 413 815 q 313 969 313 903 q 317 1008 313 992 l 428 1008 q 425 986 425 994 q 447 937 425 954 q 506 919 468 919 q 581 943 550 919 q 619 1008 611 967 l 744 1008 q 660 867 722 918 q 499 815 597 815 m 218 -112 l 357 -112 l 332 -247 l 193 -247 l 218 -112 z "},"ằ":{"ha":811,"x_min":25,"x_max":746,"o":"m 282 -14 q 94 67 164 -14 q 25 275 25 147 q 73 484 25 385 q 210 644 121 583 q 415 706 299 706 q 506 690 468 706 q 576 646 544 675 l 596 694 l 746 694 l 665 219 q 660 167 660 188 q 672 133 660 139 q 728 128 685 128 l 689 -14 q 580 -8 617 -14 q 524 15 543 -1 q 486 67 504 31 q 395 8 443 29 q 282 -14 347 -14 m 340 128 q 485 214 443 128 q 528 406 528 300 q 403 564 528 564 q 300 528 346 564 q 229 431 254 492 q 204 297 204 369 q 238 173 204 218 q 340 128 271 128 m 478 785 q 342 828 392 785 q 293 936 293 871 q 296 968 293 946 l 414 968 q 411 946 411 957 q 433 897 411 914 q 493 879 456 879 q 566 903 536 879 q 603 968 596 926 l 724 968 q 643 835 710 885 q 478 785 576 785 m 422 1103 l 450 1250 l 688 1118 l 668 1022 l 422 1103 z "},"ẳ":{"ha":811,"x_min":25,"x_max":749,"o":"m 282 -14 q 94 67 164 -14 q 25 275 25 147 q 73 484 25 385 q 210 644 121 583 q 415 706 299 706 q 506 690 468 706 q 576 646 544 675 l 596 694 l 746 694 l 665 219 q 660 167 660 188 q 672 133 660 139 q 728 128 685 128 l 689 -14 q 580 -8 617 -14 q 524 15 543 -1 q 486 67 504 31 q 395 8 443 29 q 282 -14 347 -14 m 340 128 q 485 214 443 128 q 528 406 528 300 q 403 564 528 564 q 300 528 346 564 q 229 431 254 492 q 204 297 204 369 q 238 173 204 218 q 340 128 271 128 m 503 799 q 367 842 417 799 q 318 950 318 885 q 321 982 318 960 l 439 982 q 436 960 436 971 q 458 910 436 928 q 518 893 481 893 q 591 917 561 893 q 628 982 621 940 l 749 982 q 668 849 735 899 q 503 799 601 799 m 544 1064 q 604 1115 604 1078 q 560 1150 604 1150 q 472 1128 524 1150 l 463 1213 q 578 1235 521 1235 q 665 1210 632 1235 q 697 1140 697 1185 q 549 1003 697 1039 l 544 1064 z "},"ẵ":{"ha":811,"x_min":25,"x_max":796,"o":"m 282 -14 q 94 67 164 -14 q 25 275 25 147 q 73 484 25 385 q 210 644 121 583 q 415 706 299 706 q 506 690 468 706 q 576 646 544 675 l 596 694 l 746 694 l 665 219 q 660 167 660 188 q 672 133 660 139 q 728 128 685 128 l 689 -14 q 580 -8 617 -14 q 524 15 543 -1 q 486 67 504 31 q 395 8 443 29 q 282 -14 347 -14 m 340 128 q 485 214 443 128 q 528 406 528 300 q 403 564 528 564 q 300 528 346 564 q 229 431 254 492 q 204 297 204 369 q 238 173 204 218 q 340 128 271 128 m 499 785 q 363 828 413 785 q 314 936 314 871 q 317 968 314 946 l 435 968 q 432 946 432 957 q 454 897 432 914 q 514 879 476 879 q 587 903 557 879 q 624 968 617 926 l 744 968 q 664 835 731 885 q 499 785 597 785 m 660 1036 q 616 1043 639 1036 q 563 1064 593 1050 q 520 1081 542 1074 q 483 1089 499 1089 q 438 1046 446 1089 l 332 1046 q 471 1192 360 1192 q 565 1164 504 1192 q 608 1147 586 1154 q 644 1139 629 1139 q 690 1185 682 1139 l 796 1185 q 750 1074 785 1111 q 660 1036 715 1036 z "},"â":{"ha":811,"x_min":25,"x_max":746,"o":"m 282 -14 q 94 67 164 -14 q 25 275 25 147 q 73 484 25 385 q 210 644 121 583 q 415 706 299 706 q 506 690 468 706 q 576 646 544 675 l 596 694 l 746 694 l 665 219 q 660 167 660 188 q 672 133 660 139 q 728 128 685 128 l 689 -14 q 580 -8 617 -14 q 524 15 543 -1 q 486 67 504 31 q 395 8 443 29 q 282 -14 347 -14 m 340 128 q 485 214 443 128 q 528 406 528 300 q 403 564 528 564 q 300 528 346 564 q 229 431 254 492 q 204 297 204 369 q 238 173 204 218 q 340 128 271 128 m 346 899 l 529 1035 l 682 879 l 660 769 l 500 885 l 322 786 l 346 899 z "},"ấ":{"ha":811,"x_min":25,"x_max":854,"o":"m 282 -14 q 94 67 164 -14 q 25 275 25 147 q 73 484 25 385 q 210 644 121 583 q 415 706 299 706 q 506 690 468 706 q 576 646 544 675 l 596 694 l 746 694 l 665 219 q 660 167 660 188 q 672 133 660 139 q 728 128 685 128 l 689 -14 q 580 -8 617 -14 q 524 15 543 -1 q 486 67 504 31 q 395 8 443 29 q 282 -14 347 -14 m 340 128 q 485 214 443 128 q 528 406 528 300 q 403 564 528 564 q 300 528 346 564 q 229 431 254 492 q 204 297 204 369 q 238 173 204 218 q 340 128 271 128 m 694 1143 l 854 1143 l 700 981 l 590 981 l 694 1143 m 678 874 l 660 771 l 494 871 l 325 788 l 343 890 l 518 1001 l 678 874 z "},"ậ":{"ha":811,"x_min":25,"x_max":746,"o":"m 282 -14 q 94 67 164 -14 q 25 275 25 147 q 73 484 25 385 q 210 644 121 583 q 415 706 299 706 q 506 690 468 706 q 576 646 544 675 l 596 694 l 746 694 l 665 219 q 660 167 660 188 q 672 133 660 139 q 728 128 685 128 l 689 -14 q 580 -8 617 -14 q 524 15 543 -1 q 486 67 504 31 q 395 8 443 29 q 282 -14 347 -14 m 340 128 q 485 214 443 128 q 528 406 528 300 q 403 564 528 564 q 300 528 346 564 q 229 431 254 492 q 204 297 204 369 q 238 173 204 218 q 340 128 271 128 m 346 899 l 529 1035 l 682 879 l 660 769 l 500 885 l 322 786 l 346 899 m 218 -112 l 357 -112 l 332 -247 l 193 -247 l 218 -112 z "},"ầ":{"ha":811,"x_min":25,"x_max":746,"o":"m 282 -14 q 94 67 164 -14 q 25 275 25 147 q 73 484 25 385 q 210 644 121 583 q 415 706 299 706 q 506 690 468 706 q 576 646 544 675 l 596 694 l 746 694 l 665 219 q 660 167 660 188 q 672 133 660 139 q 728 128 685 128 l 689 -14 q 580 -8 617 -14 q 524 15 543 -1 q 486 67 504 31 q 395 8 443 29 q 282 -14 347 -14 m 340 128 q 485 214 443 128 q 528 406 528 300 q 403 564 528 564 q 300 528 346 564 q 229 431 254 492 q 204 297 204 369 q 238 173 204 218 q 340 128 271 128 m 613 981 l 529 1157 l 678 1157 l 718 981 l 613 981 m 676 874 l 658 771 l 493 871 l 324 788 l 342 890 l 517 1001 l 676 874 z "},"ẩ":{"ha":811,"x_min":25,"x_max":767,"o":"m 282 -14 q 94 67 164 -14 q 25 275 25 147 q 73 484 25 385 q 210 644 121 583 q 415 706 299 706 q 506 690 468 706 q 576 646 544 675 l 596 694 l 746 694 l 665 219 q 660 167 660 188 q 672 133 660 139 q 728 128 685 128 l 689 -14 q 580 -8 617 -14 q 524 15 543 -1 q 486 67 504 31 q 395 8 443 29 q 282 -14 347 -14 m 340 128 q 485 214 443 128 q 528 406 528 300 q 403 564 528 564 q 300 528 346 564 q 229 431 254 492 q 204 297 204 369 q 238 173 204 218 q 340 128 271 128 m 675 860 l 657 757 l 492 857 l 322 774 l 340 876 l 515 988 l 675 860 m 614 994 q 674 1046 674 1008 q 629 1081 674 1081 q 542 1058 593 1081 l 532 1143 q 647 1165 590 1165 q 734 1140 701 1165 q 767 1071 767 1115 q 618 933 767 969 l 614 994 z "},"ẫ":{"ha":811,"x_min":25,"x_max":775,"o":"m 282 -14 q 94 67 164 -14 q 25 275 25 147 q 73 484 25 385 q 210 644 121 583 q 415 706 299 706 q 506 690 468 706 q 576 646 544 675 l 596 694 l 746 694 l 665 219 q 660 167 660 188 q 672 133 660 139 q 728 128 685 128 l 689 -14 q 580 -8 617 -14 q 524 15 543 -1 q 486 67 504 31 q 395 8 443 29 q 282 -14 347 -14 m 340 128 q 485 214 443 128 q 528 406 528 300 q 403 564 528 564 q 300 528 346 564 q 229 431 254 492 q 204 297 204 369 q 238 173 204 218 q 340 128 271 128 m 675 860 l 657 757 l 492 857 l 322 774 l 340 876 l 515 988 l 675 860 m 639 1024 q 595 1031 618 1024 q 542 1051 572 1038 q 499 1069 521 1061 q 463 1076 478 1076 q 417 1033 425 1076 l 311 1033 q 450 1179 339 1179 q 544 1151 483 1179 q 587 1134 565 1142 q 624 1126 608 1126 q 669 1172 661 1126 l 775 1172 q 729 1061 764 1099 q 639 1024 694 1024 z "},"ȁ":{"ha":811,"x_min":25,"x_max":746,"o":"m 282 -14 q 94 67 164 -14 q 25 275 25 147 q 73 484 25 385 q 210 644 121 583 q 415 706 299 706 q 506 690 468 706 q 576 646 544 675 l 596 694 l 746 694 l 665 219 q 660 167 660 188 q 672 133 660 139 q 728 128 685 128 l 689 -14 q 580 -8 617 -14 q 524 15 543 -1 q 486 67 504 31 q 395 8 443 29 q 282 -14 347 -14 m 340 128 q 485 214 443 128 q 528 406 528 300 q 403 564 528 564 q 300 528 346 564 q 229 431 254 492 q 204 297 204 369 q 238 173 204 218 q 340 128 271 128 m 335 817 l 229 1063 l 389 1063 l 444 817 l 335 817 m 539 817 l 444 1063 l 604 1063 l 649 817 l 539 817 z "},"ä":{"ha":811,"x_min":25,"x_max":746,"o":"m 282 -14 q 94 67 164 -14 q 25 275 25 147 q 73 484 25 385 q 210 644 121 583 q 415 706 299 706 q 506 690 468 706 q 576 646 544 675 l 596 694 l 746 694 l 665 219 q 660 167 660 188 q 672 133 660 139 q 728 128 685 128 l 689 -14 q 580 -8 617 -14 q 524 15 543 -1 q 486 67 504 31 q 395 8 443 29 q 282 -14 347 -14 m 340 128 q 485 214 443 128 q 528 406 528 300 q 403 564 528 564 q 300 528 346 564 q 229 431 254 492 q 204 297 204 369 q 238 173 204 218 q 340 128 271 128 m 308 946 l 439 946 l 414 821 l 283 821 l 308 946 m 583 946 l 714 946 l 689 821 l 558 821 l 583 946 z "},"ạ":{"ha":811,"x_min":25,"x_max":746,"o":"m 282 -14 q 94 67 164 -14 q 25 275 25 147 q 73 484 25 385 q 210 644 121 583 q 415 706 299 706 q 506 690 468 706 q 576 646 544 675 l 596 694 l 746 694 l 665 219 q 660 167 660 188 q 672 133 660 139 q 728 128 685 128 l 689 -14 q 580 -8 617 -14 q 524 15 543 -1 q 486 67 504 31 q 395 8 443 29 q 282 -14 347 -14 m 340 128 q 485 214 443 128 q 528 406 528 300 q 403 564 528 564 q 300 528 346 564 q 229 431 254 492 q 204 297 204 369 q 238 173 204 218 q 340 128 271 128 m 218 -112 l 357 -112 l 332 -247 l 193 -247 l 218 -112 z "},"à":{"ha":811,"x_min":25,"x_max":746,"o":"m 282 -14 q 94 67 164 -14 q 25 275 25 147 q 73 484 25 385 q 210 644 121 583 q 415 706 299 706 q 506 690 468 706 q 576 646 544 675 l 596 694 l 746 694 l 665 219 q 660 167 660 188 q 672 133 660 139 q 728 128 685 128 l 689 -14 q 580 -8 617 -14 q 524 15 543 -1 q 486 67 504 31 q 395 8 443 29 q 282 -14 347 -14 m 340 128 q 485 214 443 128 q 528 406 528 300 q 403 564 528 564 q 300 528 346 564 q 229 431 254 492 q 204 297 204 369 q 238 173 204 218 q 340 128 271 128 m 367 897 l 394 1057 l 629 901 l 610 792 l 367 897 z "},"ả":{"ha":811,"x_min":25,"x_max":746,"o":"m 282 -14 q 94 67 164 -14 q 25 275 25 147 q 73 484 25 385 q 210 644 121 583 q 415 706 299 706 q 506 690 468 706 q 576 646 544 675 l 596 694 l 746 694 l 665 219 q 660 167 660 188 q 672 133 660 139 q 728 128 685 128 l 689 -14 q 580 -8 617 -14 q 524 15 543 -1 q 486 67 504 31 q 395 8 443 29 q 282 -14 347 -14 m 340 128 q 485 214 443 128 q 528 406 528 300 q 403 564 528 564 q 300 528 346 564 q 229 431 254 492 q 204 297 204 369 q 238 173 204 218 q 340 128 271 128 m 451 793 q 509 843 489 821 q 529 890 529 865 q 518 918 529 908 q 488 928 507 928 q 397 903 453 928 l 390 985 q 504 1010 450 1010 q 588 984 556 1010 q 619 913 619 958 q 587 820 619 860 q 493 742 554 781 l 451 793 z "},"ȃ":{"ha":811,"x_min":25,"x_max":746,"o":"m 282 -14 q 94 67 164 -14 q 25 275 25 147 q 73 484 25 385 q 210 644 121 583 q 415 706 299 706 q 506 690 468 706 q 576 646 544 675 l 596 694 l 746 694 l 665 219 q 660 167 660 188 q 672 133 660 139 q 728 128 685 128 l 689 -14 q 580 -8 617 -14 q 524 15 543 -1 q 486 67 504 31 q 395 8 443 29 q 282 -14 347 -14 m 340 128 q 485 214 443 128 q 528 406 528 300 q 403 564 528 564 q 300 528 346 564 q 229 431 254 492 q 204 297 204 369 q 238 173 204 218 q 340 128 271 128 m 518 1008 q 653 964 604 1008 q 701 850 701 919 q 699 815 701 840 l 582 815 l 583 835 q 562 886 583 868 q 500 904 540 904 q 426 881 456 904 q 389 815 396 857 l 271 815 q 353 953 285 897 q 518 1008 422 1008 z "},"ā":{"ha":811,"x_min":25,"x_max":746,"o":"m 282 -14 q 94 67 164 -14 q 25 275 25 147 q 73 484 25 385 q 210 644 121 583 q 415 706 299 706 q 506 690 468 706 q 576 646 544 675 l 596 694 l 746 694 l 665 219 q 660 167 660 188 q 672 133 660 139 q 728 128 685 128 l 689 -14 q 580 -8 617 -14 q 524 15 543 -1 q 486 67 504 31 q 395 8 443 29 q 282 -14 347 -14 m 340 128 q 485 214 443 128 q 528 406 528 300 q 403 564 528 564 q 300 528 346 564 q 229 431 254 492 q 204 297 204 369 q 238 173 204 218 q 340 128 271 128 m 290 947 l 735 947 l 713 835 l 268 835 l 290 947 z "},"ą":{"ha":811,"x_min":25,"x_max":746,"o":"m 660 167 q 672 133 660 139 q 728 128 685 128 l 689 -14 q 642 -12 656 -14 q 526 -158 526 -92 q 540 -196 526 -183 q 578 -208 553 -208 q 660 -192 618 -208 l 669 -268 q 549 -293 614 -293 q 465 -267 497 -293 q 432 -196 433 -242 q 470 -92 432 -142 q 567 -6 508 -43 q 520 19 538 3 q 486 67 503 35 q 395 8 443 29 q 282 -14 347 -14 q 94 67 164 -14 q 25 275 25 147 q 73 484 25 385 q 210 644 121 583 q 415 706 299 706 q 506 690 468 706 q 576 646 544 675 l 596 694 l 746 694 l 665 219 q 660 167 660 188 m 340 128 q 485 214 443 128 q 528 406 528 300 q 403 564 528 564 q 300 528 346 564 q 229 431 254 492 q 204 297 204 369 q 238 173 204 218 q 340 128 271 128 z "},"å":{"ha":811,"x_min":25,"x_max":746,"o":"m 282 -14 q 94 67 164 -14 q 25 275 25 147 q 73 484 25 385 q 210 644 121 583 q 415 706 299 706 q 506 690 468 706 q 576 646 544 675 l 596 694 l 746 694 l 665 219 q 660 167 660 188 q 672 133 660 139 q 728 128 685 128 l 689 -14 q 580 -8 617 -14 q 524 15 543 -1 q 486 67 504 31 q 395 8 443 29 q 282 -14 347 -14 m 340 128 q 485 214 443 128 q 528 406 528 300 q 403 564 528 564 q 300 528 346 564 q 229 431 254 492 q 204 297 204 369 q 238 173 204 218 q 340 128 271 128 m 482 792 q 395 822 426 792 q 364 900 364 853 q 388 981 364 943 q 450 1040 411 1018 q 535 1063 489 1063 q 622 1032 590 1063 q 653 954 653 1001 q 602 839 653 886 q 482 792 551 792 m 496 864 q 547 886 526 864 q 568 940 568 908 q 555 976 568 963 q 521 989 542 989 q 470 966 492 989 q 449 913 449 943 q 461 877 449 890 q 496 864 474 864 z "},"ǻ":{"ha":811,"x_min":25,"x_max":746,"o":"m 282 -14 q 94 67 164 -14 q 25 275 25 147 q 73 484 25 385 q 210 644 121 583 q 415 706 299 706 q 506 690 468 706 q 576 646 544 675 l 596 694 l 746 694 l 665 219 q 660 167 660 188 q 672 133 660 139 q 728 128 685 128 l 689 -14 q 580 -8 617 -14 q 524 15 543 -1 q 486 67 504 31 q 395 8 443 29 q 282 -14 347 -14 m 340 128 q 485 214 443 128 q 528 406 528 300 q 403 564 528 564 q 300 528 346 564 q 229 431 254 492 q 204 297 204 369 q 238 173 204 218 q 340 128 271 128 m 481 769 q 392 801 424 769 q 360 881 360 832 q 408 994 360 947 q 521 1040 456 1040 q 609 1008 578 1040 q 640 928 640 976 q 594 815 640 861 q 481 769 547 769 m 489 842 q 537 864 517 842 q 557 913 557 886 q 544 952 557 938 q 511 967 532 967 q 463 944 483 967 q 443 892 443 922 q 456 856 443 869 q 489 842 469 842 m 425 1181 l 693 1313 l 668 1157 l 408 1076 l 425 1181 z "},"ã":{"ha":811,"x_min":25,"x_max":749,"o":"m 282 -14 q 94 67 164 -14 q 25 275 25 147 q 73 484 25 385 q 210 644 121 583 q 415 706 299 706 q 506 690 468 706 q 576 646 544 675 l 596 694 l 746 694 l 665 219 q 660 167 660 188 q 672 133 660 139 q 728 128 685 128 l 689 -14 q 580 -8 617 -14 q 524 15 543 -1 q 486 67 504 31 q 395 8 443 29 q 282 -14 347 -14 m 340 128 q 485 214 443 128 q 528 406 528 300 q 403 564 528 564 q 300 528 346 564 q 229 431 254 492 q 204 297 204 369 q 238 173 204 218 q 340 128 271 128 m 610 803 q 568 810 589 803 q 508 835 547 818 q 461 854 485 846 q 421 863 438 863 q 382 849 397 863 q 363 814 367 836 l 254 814 q 303 939 265 896 q 399 982 340 982 q 447 973 422 982 q 501 949 471 964 q 582 922 557 922 q 635 975 626 922 l 749 975 q 701 845 735 888 q 610 803 667 803 z "},"æ":{"ha":1067,"x_min":-12,"x_max":1033,"o":"m 178 -21 q 37 22 86 -21 q -12 142 -12 65 q 119 365 -12 301 q 410 436 251 428 q 403 508 410 483 q 377 544 397 532 q 315 557 357 557 q 226 544 271 557 q 119 504 181 532 l 129 644 q 386 706 263 706 q 512 678 471 706 q 564 582 553 651 q 659 667 588 629 q 814 706 731 706 q 974 640 914 706 q 1033 465 1033 575 q 1026 394 1033 428 q 999 310 1018 361 l 579 310 q 583 261 579 285 q 635 161 594 194 q 733 128 676 128 q 845 144 781 128 q 953 185 910 161 l 933 39 q 828 1 889 15 q 701 -14 768 -14 q 541 21 603 -14 q 458 117 479 56 q 329 15 394 50 q 178 -21 264 -21 m 876 426 q 879 463 879 439 q 857 535 879 507 q 783 564 835 564 q 674 526 724 564 q 603 426 624 488 l 876 426 m 238 113 q 299 132 267 113 q 358 190 332 151 q 393 281 383 228 q 399 319 397 303 q 297 303 349 318 q 209 257 244 289 q 174 178 174 225 q 192 131 174 149 q 238 113 210 113 z "},"ǽ":{"ha":1067,"x_min":-12,"x_max":1033,"o":"m 178 -21 q 37 22 86 -21 q -12 142 -12 65 q 119 365 -12 301 q 410 436 251 428 q 403 508 410 483 q 377 544 397 532 q 315 557 357 557 q 226 544 271 557 q 119 504 181 532 l 129 644 q 386 706 263 706 q 512 678 471 706 q 564 582 553 651 q 659 667 588 629 q 814 706 731 706 q 974 640 914 706 q 1033 465 1033 575 q 1026 394 1033 428 q 999 310 1018 361 l 579 310 q 583 261 579 285 q 635 161 594 194 q 733 128 676 128 q 845 144 781 128 q 953 185 910 161 l 933 39 q 828 1 889 15 q 701 -14 768 -14 q 541 21 603 -14 q 458 117 479 56 q 329 15 394 50 q 178 -21 264 -21 m 876 426 q 879 463 879 439 q 857 535 879 507 q 783 564 835 564 q 674 526 724 564 q 603 426 624 488 l 876 426 m 238 113 q 299 132 267 113 q 358 190 332 151 q 393 281 383 228 q 399 319 397 303 q 297 303 349 318 q 209 257 244 289 q 174 178 174 225 q 192 131 174 149 q 238 113 210 113 m 518 907 l 799 1057 l 772 883 l 494 792 l 518 907 z "},"b":{"ha":778,"x_min":10,"x_max":731,"o":"m 382 -14 q 185 83 253 -14 l 164 0 l 10 0 l 193 1042 l 367 1042 l 294 636 q 379 688 332 669 q 478 706 426 706 q 664 623 597 706 q 731 410 731 540 q 689 203 731 300 q 568 46 647 106 q 382 -14 489 -14 m 358 128 q 460 164 415 128 q 528 260 504 200 q 553 393 553 321 q 522 518 553 472 q 428 564 492 564 q 319 526 364 564 q 251 425 274 488 q 228 290 228 363 q 258 169 228 211 q 358 128 289 128 z "},"c":{"ha":607,"x_min":25,"x_max":611,"o":"m 300 -14 q 92 67 160 -14 q 25 279 25 149 q 73 489 25 392 q 213 646 121 586 q 431 706 304 706 q 611 654 543 706 l 571 507 q 429 564 500 564 q 310 528 361 564 q 232 432 260 493 q 204 297 204 371 q 240 173 204 218 q 353 128 276 128 q 514 185 428 128 l 503 38 q 300 -14 422 -14 z "},"ć":{"ha":607,"x_min":25,"x_max":638,"o":"m 300 -14 q 92 67 160 -14 q 25 279 25 149 q 73 489 25 392 q 213 646 121 586 q 431 706 304 706 q 611 654 543 706 l 571 507 q 429 564 500 564 q 310 528 361 564 q 232 432 260 493 q 204 297 204 371 q 240 173 204 218 q 353 128 276 128 q 514 185 428 128 l 503 38 q 300 -14 422 -14 m 357 907 l 638 1057 l 611 883 l 333 792 l 357 907 z "},"č":{"ha":607,"x_min":25,"x_max":683,"o":"m 300 -14 q 92 67 160 -14 q 25 279 25 149 q 73 489 25 392 q 213 646 121 586 q 431 706 304 706 q 611 654 543 706 l 571 507 q 429 564 500 564 q 310 528 361 564 q 232 432 260 493 q 204 297 204 371 q 240 173 204 218 q 353 128 276 128 q 514 185 428 128 l 503 38 q 300 -14 422 -14 m 303 932 l 325 1042 l 485 926 l 683 1042 l 661 919 l 456 776 l 303 932 z "},"ç":{"ha":607,"x_min":25,"x_max":611,"o":"m 429 564 q 310 528 361 564 q 232 432 260 493 q 204 297 204 371 q 240 173 204 218 q 353 128 276 128 q 514 185 428 128 l 503 38 q 340 -12 436 -4 l 310 -75 l 318 -75 q 397 -101 368 -75 q 425 -175 425 -128 q 373 -288 425 -244 q 242 -332 321 -332 q 132 -306 179 -332 l 174 -224 q 260 -247 218 -247 q 315 -233 294 -247 q 335 -194 335 -218 q 271 -153 335 -153 q 201 -162 239 -153 l 264 -12 q 83 78 142 -1 q 25 279 25 157 q 73 489 25 392 q 213 646 121 586 q 431 706 304 706 q 611 654 543 706 l 571 507 q 429 564 500 564 z "},"ḉ":{"ha":607,"x_min":25,"x_max":638,"o":"m 638 1057 l 611 883 l 333 792 l 357 907 l 638 1057 m 25 279 q 73 489 25 392 q 213 646 121 586 q 431 706 304 706 q 611 654 543 706 l 571 507 q 429 564 500 564 q 310 528 361 564 q 232 432 260 493 q 204 297 204 371 q 240 173 204 218 q 353 128 276 128 q 514 185 428 128 l 503 38 q 340 -12 436 -4 l 310 -75 l 318 -75 q 397 -101 368 -75 q 425 -175 425 -128 q 373 -288 425 -244 q 242 -332 321 -332 q 132 -306 179 -332 l 174 -224 q 260 -247 218 -247 q 315 -233 294 -247 q 335 -194 335 -218 q 271 -153 335 -153 q 201 -162 239 -153 l 264 -12 q 83 78 142 -1 q 25 279 25 157 z "},"ĉ":{"ha":607,"x_min":25,"x_max":660,"o":"m 300 -14 q 92 67 160 -14 q 25 279 25 149 q 73 489 25 392 q 213 646 121 586 q 431 706 304 706 q 611 654 543 706 l 571 507 q 429 564 500 564 q 310 528 361 564 q 232 432 260 493 q 204 297 204 371 q 240 173 204 218 q 353 128 276 128 q 514 185 428 128 l 503 38 q 300 -14 422 -14 m 324 899 l 507 1035 l 660 879 l 638 769 l 478 885 l 300 786 l 324 899 z "},"ċ":{"ha":607,"x_min":25,"x_max":611,"o":"m 300 -14 q 92 67 160 -14 q 25 279 25 149 q 73 489 25 392 q 213 646 121 586 q 431 706 304 706 q 611 654 543 706 l 571 507 q 429 564 500 564 q 310 528 361 564 q 232 432 260 493 q 204 297 204 371 q 240 173 204 218 q 353 128 276 128 q 514 185 428 128 l 503 38 q 300 -14 422 -14 m 424 971 l 563 971 l 538 836 l 399 836 l 424 971 z "},"d":{"ha":779,"x_min":25,"x_max":808,"o":"m 808 1042 l 625 0 l 461 0 l 475 74 q 274 -14 381 -14 q 90 65 156 -14 q 25 267 25 143 q 69 481 25 379 q 194 644 113 582 q 385 706 276 706 q 561 621 500 706 l 636 1042 l 808 1042 m 333 128 q 442 169 399 128 q 507 275 486 211 q 528 406 528 339 q 404 564 528 564 q 300 527 346 564 q 229 428 254 490 q 204 290 204 365 q 236 171 204 214 q 333 128 268 128 z "},"ð":{"ha":694,"x_min":3,"x_max":642,"o":"m 532 789 q 642 447 642 643 q 598 207 642 313 q 472 42 554 101 q 275 -18 389 -18 q 133 15 194 -18 q 37 108 71 49 q 3 243 3 167 q 42 415 3 335 q 156 543 82 494 q 325 592 229 592 q 430 567 386 592 q 499 504 474 543 q 424 743 499 633 l 257 671 l 213 764 l 353 824 q 247 894 308 867 l 300 974 q 458 869 390 932 l 599 929 l 642 836 l 532 789 m 296 122 q 372 142 335 122 q 435 206 410 163 q 460 311 460 249 q 429 419 460 381 q 339 457 399 457 q 249 428 288 457 q 189 355 210 400 q 168 260 168 310 q 201 160 168 197 q 296 122 235 122 z "},"ď":{"ha":839,"x_min":25,"x_max":992,"o":"m 808 1042 l 625 0 l 461 0 l 475 74 q 274 -14 381 -14 q 90 65 156 -14 q 25 267 25 143 q 69 481 25 379 q 194 644 113 582 q 385 706 276 706 q 561 621 500 706 l 636 1042 l 808 1042 m 333 128 q 442 169 399 128 q 507 275 486 211 q 528 406 528 339 q 404 564 528 564 q 300 527 346 564 q 229 428 254 490 q 204 290 204 365 q 236 171 204 214 q 333 128 268 128 m 857 1042 l 992 1042 l 907 796 l 813 796 l 857 1042 z "},"đ":{"ha":779,"x_min":25,"x_max":861,"o":"m 842 825 l 771 825 l 625 0 l 461 0 l 475 74 q 274 -14 381 -14 q 90 65 156 -14 q 25 267 25 143 q 69 481 25 379 q 194 644 113 582 q 385 706 276 706 q 561 621 500 706 l 597 825 l 447 825 l 467 940 l 618 940 l 636 1042 l 808 1042 l 790 940 l 861 940 l 842 825 m 333 128 q 442 169 399 128 q 507 275 486 211 q 528 406 528 339 q 404 564 528 564 q 300 527 346 564 q 229 428 254 490 q 204 290 204 365 q 236 171 204 214 q 333 128 268 128 z "},"ḍ":{"ha":779,"x_min":25,"x_max":808,"o":"m 808 1042 l 625 0 l 461 0 l 475 74 q 274 -14 381 -14 q 90 65 156 -14 q 25 267 25 143 q 69 481 25 379 q 194 644 113 582 q 385 706 276 706 q 561 621 500 706 l 636 1042 l 808 1042 m 333 128 q 442 169 399 128 q 507 275 486 211 q 528 406 528 339 q 404 564 528 564 q 300 527 346 564 q 229 428 254 490 q 204 290 204 365 q 236 171 204 214 q 333 128 268 128 m 304 -112 l 443 -112 l 418 -247 l 279 -247 l 304 -112 z "},"ḏ":{"ha":779,"x_min":25,"x_max":808,"o":"m 808 1042 l 625 0 l 461 0 l 475 74 q 274 -14 381 -14 q 90 65 156 -14 q 25 267 25 143 q 69 481 25 379 q 194 644 113 582 q 385 706 276 706 q 561 621 500 706 l 636 1042 l 808 1042 m 333 128 q 442 169 399 128 q 507 275 486 211 q 528 406 528 339 q 404 564 528 564 q 300 527 346 564 q 229 428 254 490 q 204 290 204 365 q 236 171 204 214 q 333 128 268 128 m 146 -126 l 590 -126 l 568 -239 l 124 -239 l 146 -126 z "},"ǆ":{"ha":1419,"x_min":25,"x_max":1439,"o":"m 808 1042 l 625 0 l 461 0 l 475 74 q 274 -14 381 -14 q 90 65 156 -14 q 25 267 25 143 q 69 481 25 379 q 194 644 113 582 q 385 706 276 706 q 561 621 500 706 l 636 1042 l 808 1042 m 333 128 q 442 169 399 128 q 507 275 486 211 q 528 406 528 339 q 404 564 528 564 q 300 527 346 564 q 229 428 254 490 q 204 290 204 365 q 236 171 204 214 q 333 128 268 128 m 1122 542 l 849 542 l 876 694 l 1439 694 l 1057 153 l 1328 153 l 1300 0 l 740 0 l 1122 542 m 1021 932 l 1043 1042 l 1203 926 l 1401 1042 l 1379 919 l 1174 776 l 1021 932 z "},"e":{"ha":678,"x_min":25,"x_max":643,"o":"m 332 -14 q 103 69 181 -14 q 25 285 25 153 q 74 489 25 392 q 213 646 124 586 q 417 706 303 706 q 584 651 525 706 q 643 504 643 597 q 549 331 643 386 q 311 276 456 276 q 206 285 242 276 q 256 166 210 204 q 365 128 301 128 q 583 185 476 128 l 564 39 q 332 -14 465 -14 m 283 389 q 449 419 400 389 q 499 496 499 450 q 470 550 499 536 q 410 564 442 564 q 287 510 338 564 q 219 394 236 456 q 283 389 242 389 z "},"é":{"ha":678,"x_min":25,"x_max":643,"o":"m 332 -14 q 103 69 181 -14 q 25 285 25 153 q 74 489 25 392 q 213 646 124 586 q 417 706 303 706 q 584 651 525 706 q 643 504 643 597 q 549 331 643 386 q 311 276 456 276 q 206 285 242 276 q 256 166 210 204 q 365 128 301 128 q 583 185 476 128 l 564 39 q 332 -14 465 -14 m 283 389 q 449 419 400 389 q 499 496 499 450 q 470 550 499 536 q 410 564 442 564 q 287 510 338 564 q 219 394 236 456 q 283 389 242 389 m 344 907 l 625 1057 l 599 883 l 321 792 l 344 907 z "},"ĕ":{"ha":678,"x_min":25,"x_max":710,"o":"m 332 -14 q 103 69 181 -14 q 25 285 25 153 q 74 489 25 392 q 213 646 124 586 q 417 706 303 706 q 584 651 525 706 q 643 504 643 597 q 549 331 643 386 q 311 276 456 276 q 206 285 242 276 q 256 166 210 204 q 365 128 301 128 q 583 185 476 128 l 564 39 q 332 -14 465 -14 m 283 389 q 449 419 400 389 q 499 496 499 450 q 470 550 499 536 q 410 564 442 564 q 287 510 338 564 q 219 394 236 456 q 283 389 242 389 m 464 815 q 328 859 378 815 q 278 969 278 903 q 282 1008 278 992 l 393 1008 q 390 986 390 994 q 412 937 390 954 q 471 919 433 919 q 546 943 515 919 q 585 1008 576 967 l 710 1008 q 625 867 688 918 q 464 815 563 815 z "},"ě":{"ha":678,"x_min":25,"x_max":671,"o":"m 332 -14 q 103 69 181 -14 q 25 285 25 153 q 74 489 25 392 q 213 646 124 586 q 417 706 303 706 q 584 651 525 706 q 643 504 643 597 q 549 331 643 386 q 311 276 456 276 q 206 285 242 276 q 256 166 210 204 q 365 128 301 128 q 583 185 476 128 l 564 39 q 332 -14 465 -14 m 283 389 q 449 419 400 389 q 499 496 499 450 q 470 550 499 536 q 410 564 442 564 q 287 510 338 564 q 219 394 236 456 q 283 389 242 389 m 290 932 l 313 1042 l 472 926 l 671 1042 l 649 919 l 443 776 l 290 932 z "},"ḝ":{"ha":678,"x_min":25,"x_max":710,"o":"m 464 815 q 328 859 378 815 q 278 969 278 903 q 282 1008 278 992 l 393 1008 q 390 986 390 994 q 412 937 390 954 q 471 919 433 919 q 546 943 515 919 q 585 1008 576 967 l 710 1008 q 625 867 688 918 q 464 815 563 815 m 417 706 q 584 651 525 706 q 643 504 643 597 q 549 331 643 386 q 311 276 456 276 q 206 285 242 276 q 256 166 210 204 q 365 128 301 128 q 583 185 476 128 l 564 39 q 385 -11 486 -3 l 354 -75 l 363 -75 q 441 -101 413 -75 q 469 -175 469 -128 q 417 -288 469 -244 q 286 -332 365 -332 q 176 -306 224 -332 l 218 -224 q 304 -247 263 -247 q 359 -233 339 -247 q 379 -194 379 -218 q 315 -153 379 -153 q 246 -162 283 -153 l 308 -14 q 97 76 168 -7 q 25 285 25 158 q 74 489 25 392 q 213 646 124 586 q 417 706 303 706 m 283 389 q 449 419 400 389 q 499 496 499 450 q 470 550 499 536 q 410 564 442 564 q 287 510 338 564 q 219 394 236 456 q 283 389 242 389 z "},"ê":{"ha":678,"x_min":25,"x_max":647,"o":"m 332 -14 q 103 69 181 -14 q 25 285 25 153 q 74 489 25 392 q 213 646 124 586 q 417 706 303 706 q 584 651 525 706 q 643 504 643 597 q 549 331 643 386 q 311 276 456 276 q 206 285 242 276 q 256 166 210 204 q 365 128 301 128 q 583 185 476 128 l 564 39 q 332 -14 465 -14 m 283 389 q 449 419 400 389 q 499 496 499 450 q 470 550 499 536 q 410 564 442 564 q 287 510 338 564 q 219 394 236 456 q 283 389 242 389 m 311 899 l 494 1035 l 647 879 l 625 769 l 465 885 l 288 786 l 311 899 z "},"ế":{"ha":678,"x_min":25,"x_max":819,"o":"m 332 -14 q 103 69 181 -14 q 25 285 25 153 q 74 489 25 392 q 213 646 124 586 q 417 706 303 706 q 584 651 525 706 q 643 504 643 597 q 549 331 643 386 q 311 276 456 276 q 206 285 242 276 q 256 166 210 204 q 365 128 301 128 q 583 185 476 128 l 564 39 q 332 -14 465 -14 m 283 389 q 449 419 400 389 q 499 496 499 450 q 470 550 499 536 q 410 564 442 564 q 287 510 338 564 q 219 394 236 456 q 283 389 242 389 m 660 1143 l 819 1143 l 665 981 l 556 981 l 660 1143 m 643 874 l 625 771 l 460 871 l 290 788 l 308 890 l 483 1001 l 643 874 z "},"ệ":{"ha":678,"x_min":25,"x_max":647,"o":"m 332 -14 q 103 69 181 -14 q 25 285 25 153 q 74 489 25 392 q 213 646 124 586 q 417 706 303 706 q 584 651 525 706 q 643 504 643 597 q 549 331 643 386 q 311 276 456 276 q 206 285 242 276 q 256 166 210 204 q 365 128 301 128 q 583 185 476 128 l 564 39 q 332 -14 465 -14 m 283 389 q 449 419 400 389 q 499 496 499 450 q 470 550 499 536 q 410 564 442 564 q 287 510 338 564 q 219 394 236 456 q 283 389 242 389 m 311 899 l 494 1035 l 647 879 l 625 769 l 465 885 l 288 786 l 311 899 m 263 -112 l 401 -112 l 376 -247 l 238 -247 l 263 -112 z "},"ề":{"ha":678,"x_min":25,"x_max":683,"o":"m 332 -14 q 103 69 181 -14 q 25 285 25 153 q 74 489 25 392 q 213 646 124 586 q 417 706 303 706 q 584 651 525 706 q 643 504 643 597 q 549 331 643 386 q 311 276 456 276 q 206 285 242 276 q 256 166 210 204 q 365 128 301 128 q 583 185 476 128 l 564 39 q 332 -14 465 -14 m 283 389 q 449 419 400 389 q 499 496 499 450 q 470 550 499 536 q 410 564 442 564 q 287 510 338 564 q 219 394 236 456 q 283 389 242 389 m 578 981 l 494 1157 l 643 1157 l 683 981 l 578 981 m 642 874 l 624 771 l 458 871 l 289 788 l 307 890 l 482 1001 l 642 874 z "},"ể":{"ha":678,"x_min":25,"x_max":732,"o":"m 332 -14 q 103 69 181 -14 q 25 285 25 153 q 74 489 25 392 q 213 646 124 586 q 417 706 303 706 q 584 651 525 706 q 643 504 643 597 q 549 331 643 386 q 311 276 456 276 q 206 285 242 276 q 256 166 210 204 q 365 128 301 128 q 583 185 476 128 l 564 39 q 332 -14 465 -14 m 283 389 q 449 419 400 389 q 499 496 499 450 q 470 550 499 536 q 410 564 442 564 q 287 510 338 564 q 219 394 236 456 q 283 389 242 389 m 640 860 l 622 757 l 457 857 l 288 774 l 306 876 l 481 988 l 640 860 m 579 994 q 639 1046 639 1008 q 594 1081 639 1081 q 507 1058 558 1081 l 497 1143 q 613 1165 556 1165 q 699 1140 667 1165 q 732 1071 732 1115 q 583 933 732 969 l 579 994 z "},"ễ":{"ha":678,"x_min":25,"x_max":740,"o":"m 332 -14 q 103 69 181 -14 q 25 285 25 153 q 74 489 25 392 q 213 646 124 586 q 417 706 303 706 q 584 651 525 706 q 643 504 643 597 q 549 331 643 386 q 311 276 456 276 q 206 285 242 276 q 256 166 210 204 q 365 128 301 128 q 583 185 476 128 l 564 39 q 332 -14 465 -14 m 283 389 q 449 419 400 389 q 499 496 499 450 q 470 550 499 536 q 410 564 442 564 q 287 510 338 564 q 219 394 236 456 q 283 389 242 389 m 640 860 l 622 757 l 457 857 l 288 774 l 306 876 l 481 988 l 640 860 m 604 1024 q 560 1031 583 1024 q 507 1051 538 1038 q 465 1069 486 1061 q 428 1076 443 1076 q 382 1033 390 1076 l 276 1033 q 415 1179 304 1179 q 510 1151 449 1179 q 552 1134 531 1142 q 589 1126 574 1126 q 635 1172 626 1126 l 740 1172 q 694 1061 729 1099 q 604 1024 660 1024 z "},"ȅ":{"ha":678,"x_min":25,"x_max":643,"o":"m 332 -14 q 103 69 181 -14 q 25 285 25 153 q 74 489 25 392 q 213 646 124 586 q 417 706 303 706 q 584 651 525 706 q 643 504 643 597 q 549 331 643 386 q 311 276 456 276 q 206 285 242 276 q 256 166 210 204 q 365 128 301 128 q 583 185 476 128 l 564 39 q 332 -14 465 -14 m 283 389 q 449 419 400 389 q 499 496 499 450 q 470 550 499 536 q 410 564 442 564 q 287 510 338 564 q 219 394 236 456 q 283 389 242 389 m 300 817 l 194 1063 l 354 1063 l 410 817 l 300 817 m 504 817 l 410 1063 l 569 1063 l 614 817 l 504 817 z "},"ë":{"ha":678,"x_min":25,"x_max":679,"o":"m 332 -14 q 103 69 181 -14 q 25 285 25 153 q 74 489 25 392 q 213 646 124 586 q 417 706 303 706 q 584 651 525 706 q 643 504 643 597 q 549 331 643 386 q 311 276 456 276 q 206 285 242 276 q 256 166 210 204 q 365 128 301 128 q 583 185 476 128 l 564 39 q 332 -14 465 -14 m 283 389 q 449 419 400 389 q 499 496 499 450 q 470 550 499 536 q 410 564 442 564 q 287 510 338 564 q 219 394 236 456 q 283 389 242 389 m 274 946 l 404 946 l 379 821 l 249 821 l 274 946 m 549 946 l 679 946 l 654 821 l 524 821 l 549 946 z "},"ė":{"ha":678,"x_min":25,"x_max":643,"o":"m 332 -14 q 103 69 181 -14 q 25 285 25 153 q 74 489 25 392 q 213 646 124 586 q 417 706 303 706 q 584 651 525 706 q 643 504 643 597 q 549 331 643 386 q 311 276 456 276 q 206 285 242 276 q 256 166 210 204 q 365 128 301 128 q 583 185 476 128 l 564 39 q 332 -14 465 -14 m 283 389 q 449 419 400 389 q 499 496 499 450 q 470 550 499 536 q 410 564 442 564 q 287 510 338 564 q 219 394 236 456 q 283 389 242 389 m 411 971 l 550 971 l 525 836 l 386 836 l 411 971 z "},"ẹ":{"ha":678,"x_min":25,"x_max":643,"o":"m 332 -14 q 103 69 181 -14 q 25 285 25 153 q 74 489 25 392 q 213 646 124 586 q 417 706 303 706 q 584 651 525 706 q 643 504 643 597 q 549 331 643 386 q 311 276 456 276 q 206 285 242 276 q 256 166 210 204 q 365 128 301 128 q 583 185 476 128 l 564 39 q 332 -14 465 -14 m 283 389 q 449 419 400 389 q 499 496 499 450 q 470 550 499 536 q 410 564 442 564 q 287 510 338 564 q 219 394 236 456 q 283 389 242 389 m 263 -112 l 401 -112 l 376 -247 l 238 -247 l 263 -112 z "},"è":{"ha":678,"x_min":25,"x_max":643,"o":"m 332 -14 q 103 69 181 -14 q 25 285 25 153 q 74 489 25 392 q 213 646 124 586 q 417 706 303 706 q 584 651 525 706 q 643 504 643 597 q 549 331 643 386 q 311 276 456 276 q 206 285 242 276 q 256 166 210 204 q 365 128 301 128 q 583 185 476 128 l 564 39 q 332 -14 465 -14 m 283 389 q 449 419 400 389 q 499 496 499 450 q 470 550 499 536 q 410 564 442 564 q 287 510 338 564 q 219 394 236 456 q 283 389 242 389 m 332 897 l 360 1057 l 594 901 l 575 792 l 332 897 z "},"ẻ":{"ha":678,"x_min":25,"x_max":643,"o":"m 332 -14 q 103 69 181 -14 q 25 285 25 153 q 74 489 25 392 q 213 646 124 586 q 417 706 303 706 q 584 651 525 706 q 643 504 643 597 q 549 331 643 386 q 311 276 456 276 q 206 285 242 276 q 256 166 210 204 q 365 128 301 128 q 583 185 476 128 l 564 39 q 332 -14 465 -14 m 283 389 q 449 419 400 389 q 499 496 499 450 q 470 550 499 536 q 410 564 442 564 q 287 510 338 564 q 219 394 236 456 q 283 389 242 389 m 417 793 q 474 843 454 821 q 494 890 494 865 q 483 918 494 908 q 453 928 472 928 q 363 903 418 928 l 356 985 q 469 1010 415 1010 q 553 984 521 1010 q 585 913 585 958 q 552 820 585 860 q 458 742 519 781 l 417 793 z "},"ȇ":{"ha":678,"x_min":25,"x_max":667,"o":"m 332 -14 q 103 69 181 -14 q 25 285 25 153 q 74 489 25 392 q 213 646 124 586 q 417 706 303 706 q 584 651 525 706 q 643 504 643 597 q 549 331 643 386 q 311 276 456 276 q 206 285 242 276 q 256 166 210 204 q 365 128 301 128 q 583 185 476 128 l 564 39 q 332 -14 465 -14 m 283 389 q 449 419 400 389 q 499 496 499 450 q 470 550 499 536 q 410 564 442 564 q 287 510 338 564 q 219 394 236 456 q 283 389 242 389 m 483 1008 q 618 964 569 1008 q 667 850 667 919 q 664 815 667 840 l 547 815 l 549 835 q 527 886 549 868 q 465 904 506 904 q 391 881 421 904 q 354 815 361 857 l 236 815 q 319 953 250 897 q 483 1008 388 1008 z "},"ē":{"ha":678,"x_min":25,"x_max":700,"o":"m 332 -14 q 103 69 181 -14 q 25 285 25 153 q 74 489 25 392 q 213 646 124 586 q 417 706 303 706 q 584 651 525 706 q 643 504 643 597 q 549 331 643 386 q 311 276 456 276 q 206 285 242 276 q 256 166 210 204 q 365 128 301 128 q 583 185 476 128 l 564 39 q 332 -14 465 -14 m 283 389 q 449 419 400 389 q 499 496 499 450 q 470 550 499 536 q 410 564 442 564 q 287 510 338 564 q 219 394 236 456 q 283 389 242 389 m 256 947 l 700 947 l 678 835 l 233 835 l 256 947 z "},"ḗ":{"ha":678,"x_min":25,"x_max":692,"o":"m 332 -14 q 103 69 181 -14 q 25 285 25 153 q 74 489 25 392 q 213 646 124 586 q 417 706 303 706 q 584 651 525 706 q 643 504 643 597 q 549 331 643 386 q 311 276 456 276 q 206 285 242 276 q 256 166 210 204 q 365 128 301 128 q 583 185 476 128 l 564 39 q 332 -14 465 -14 m 283 389 q 449 419 400 389 q 499 496 499 450 q 470 550 499 536 q 410 564 442 564 q 287 510 338 564 q 219 394 236 456 q 283 389 242 389 m 247 929 l 692 929 l 672 824 l 228 824 l 247 929 m 382 1117 l 650 1249 l 625 1093 l 365 1013 l 382 1117 z "},"ḕ":{"ha":678,"x_min":25,"x_max":692,"o":"m 332 -14 q 103 69 181 -14 q 25 285 25 153 q 74 489 25 392 q 213 646 124 586 q 417 706 303 706 q 584 651 525 706 q 643 504 643 597 q 549 331 643 386 q 311 276 456 276 q 206 285 242 276 q 256 166 210 204 q 365 128 301 128 q 583 185 476 128 l 564 39 q 332 -14 465 -14 m 283 389 q 449 419 400 389 q 499 496 499 450 q 470 550 499 536 q 410 564 442 564 q 287 510 338 564 q 219 394 236 456 q 283 389 242 389 m 247 929 l 692 929 l 672 824 l 228 824 l 247 929 m 369 1093 l 397 1240 l 635 1108 l 615 1013 l 369 1093 z "},"ę":{"ha":678,"x_min":25,"x_max":643,"o":"m 643 504 q 549 331 643 386 q 311 276 456 276 q 206 285 242 276 q 256 166 210 204 q 365 128 301 128 q 583 185 476 128 l 564 39 q 429 -119 429 -49 q 442 -157 429 -144 q 481 -169 456 -169 q 563 -153 521 -169 l 572 -229 q 451 -254 517 -254 q 368 -228 400 -254 q 335 -157 336 -203 q 415 -8 335 -79 q 332 -14 363 -14 q 103 69 181 -14 q 25 285 25 153 q 74 489 25 392 q 213 646 124 586 q 417 706 303 706 q 584 651 525 706 q 643 504 643 597 m 219 394 q 283 389 242 389 q 449 419 400 389 q 499 496 499 450 q 470 550 499 536 q 410 564 442 564 q 287 510 338 564 q 219 394 236 456 z "},"ẽ":{"ha":678,"x_min":25,"x_max":714,"o":"m 332 -14 q 103 69 181 -14 q 25 285 25 153 q 74 489 25 392 q 213 646 124 586 q 417 706 303 706 q 584 651 525 706 q 643 504 643 597 q 549 331 643 386 q 311 276 456 276 q 206 285 242 276 q 256 166 210 204 q 365 128 301 128 q 583 185 476 128 l 564 39 q 332 -14 465 -14 m 283 389 q 449 419 400 389 q 499 496 499 450 q 470 550 499 536 q 410 564 442 564 q 287 510 338 564 q 219 394 236 456 q 283 389 242 389 m 575 803 q 533 810 554 803 q 474 835 513 818 q 426 854 450 846 q 386 863 403 863 q 347 849 363 863 q 328 814 332 836 l 219 814 q 268 939 231 896 q 364 982 306 982 q 412 973 388 982 q 467 949 436 964 q 547 922 522 922 q 600 975 592 922 l 714 975 q 666 845 700 888 q 575 803 632 803 z "},"f":{"ha":465,"x_min":49,"x_max":546,"o":"m 146 553 l 54 553 l 94 694 l 171 694 l 200 860 q 425 1042 231 1042 q 546 1033 465 1042 l 506 890 q 450 897 468 897 q 401 888 417 897 q 376 858 385 879 q 360 789 368 836 l 343 694 l 486 694 l 461 553 l 318 553 l 221 0 l 49 0 l 146 553 z "},"g":{"ha":676,"x_min":-64,"x_max":708,"o":"m 221 -347 q 7 -294 78 -347 q -64 -165 -64 -242 q -28 -65 -64 -108 q 75 14 8 -22 q 32 99 32 47 q 53 161 32 135 q 115 208 74 188 q 66 285 83 238 q 49 386 49 332 q 89 543 49 469 q 203 661 129 617 q 371 706 276 706 q 515 664 463 706 q 576 685 536 676 q 661 694 617 694 l 708 694 l 679 586 l 614 586 q 583 585 596 586 q 599 481 599 542 q 559 322 599 396 q 446 203 519 247 q 276 158 372 158 q 208 165 246 158 q 193 139 193 157 q 227 107 193 117 q 344 86 261 97 q 512 35 444 72 q 579 -99 579 -1 q 536 -226 579 -169 q 412 -315 493 -282 q 221 -347 331 -347 m 299 285 q 405 337 365 285 q 444 464 444 389 q 347 579 444 579 q 242 527 281 579 q 203 399 203 475 q 299 285 203 285 m 231 -225 q 367 -197 311 -225 q 424 -125 424 -169 q 374 -64 424 -82 q 240 -36 325 -46 q 189 -29 214 -35 q 81 -135 81 -65 q 119 -201 81 -178 q 231 -225 158 -225 z "},"ğ":{"ha":676,"x_min":-64,"x_max":708,"o":"m 221 -347 q 7 -294 78 -347 q -64 -165 -64 -242 q -28 -65 -64 -108 q 75 14 8 -22 q 32 99 32 47 q 53 161 32 135 q 115 208 74 188 q 66 285 83 238 q 49 386 49 332 q 89 543 49 469 q 203 661 129 617 q 371 706 276 706 q 515 664 463 706 q 576 685 536 676 q 661 694 617 694 l 708 694 l 679 586 l 614 586 q 583 585 596 586 q 599 481 599 542 q 559 322 599 396 q 446 203 519 247 q 276 158 372 158 q 208 165 246 158 q 193 139 193 157 q 227 107 193 117 q 344 86 261 97 q 512 35 444 72 q 579 -99 579 -1 q 536 -226 579 -169 q 412 -315 493 -282 q 221 -347 331 -347 m 299 285 q 405 337 365 285 q 444 464 444 389 q 347 579 444 579 q 242 527 281 579 q 203 399 203 475 q 299 285 203 285 m 231 -225 q 367 -197 311 -225 q 424 -125 424 -169 q 374 -64 424 -82 q 240 -36 325 -46 q 189 -29 214 -35 q 81 -135 81 -65 q 119 -201 81 -178 q 231 -225 158 -225 m 396 815 q 260 859 310 815 q 210 969 210 903 q 214 1008 210 992 l 325 1008 q 322 986 322 994 q 344 937 322 954 q 403 919 365 919 q 478 943 447 919 q 517 1008 508 967 l 642 1008 q 557 867 619 918 q 396 815 494 815 z "},"ǧ":{"ha":676,"x_min":-64,"x_max":708,"o":"m 221 -347 q 7 -294 78 -347 q -64 -165 -64 -242 q -28 -65 -64 -108 q 75 14 8 -22 q 32 99 32 47 q 53 161 32 135 q 115 208 74 188 q 66 285 83 238 q 49 386 49 332 q 89 543 49 469 q 203 661 129 617 q 371 706 276 706 q 515 664 463 706 q 576 685 536 676 q 661 694 617 694 l 708 694 l 679 586 l 614 586 q 583 585 596 586 q 599 481 599 542 q 559 322 599 396 q 446 203 519 247 q 276 158 372 158 q 208 165 246 158 q 193 139 193 157 q 227 107 193 117 q 344 86 261 97 q 512 35 444 72 q 579 -99 579 -1 q 536 -226 579 -169 q 412 -315 493 -282 q 221 -347 331 -347 m 299 285 q 405 337 365 285 q 444 464 444 389 q 347 579 444 579 q 242 527 281 579 q 203 399 203 475 q 299 285 203 285 m 231 -225 q 367 -197 311 -225 q 424 -125 424 -169 q 374 -64 424 -82 q 240 -36 325 -46 q 189 -29 214 -35 q 81 -135 81 -65 q 119 -201 81 -178 q 231 -225 158 -225 m 222 932 l 244 1042 l 404 926 l 603 1042 l 581 919 l 375 776 l 222 932 z "},"ĝ":{"ha":676,"x_min":-64,"x_max":708,"o":"m 221 -347 q 7 -294 78 -347 q -64 -165 -64 -242 q -28 -65 -64 -108 q 75 14 8 -22 q 32 99 32 47 q 53 161 32 135 q 115 208 74 188 q 66 285 83 238 q 49 386 49 332 q 89 543 49 469 q 203 661 129 617 q 371 706 276 706 q 515 664 463 706 q 576 685 536 676 q 661 694 617 694 l 708 694 l 679 586 l 614 586 q 583 585 596 586 q 599 481 599 542 q 559 322 599 396 q 446 203 519 247 q 276 158 372 158 q 208 165 246 158 q 193 139 193 157 q 227 107 193 117 q 344 86 261 97 q 512 35 444 72 q 579 -99 579 -1 q 536 -226 579 -169 q 412 -315 493 -282 q 221 -347 331 -347 m 299 285 q 405 337 365 285 q 444 464 444 389 q 347 579 444 579 q 242 527 281 579 q 203 399 203 475 q 299 285 203 285 m 231 -225 q 367 -197 311 -225 q 424 -125 424 -169 q 374 -64 424 -82 q 240 -36 325 -46 q 189 -29 214 -35 q 81 -135 81 -65 q 119 -201 81 -178 q 231 -225 158 -225 m 243 899 l 426 1035 l 579 879 l 557 769 l 397 885 l 219 786 l 243 899 z "},"ģ":{"ha":676,"x_min":-64,"x_max":708,"o":"m 221 -347 q 7 -294 78 -347 q -64 -165 -64 -242 q -28 -65 -64 -108 q 75 14 8 -22 q 32 99 32 47 q 53 161 32 135 q 115 208 74 188 q 66 285 83 238 q 49 386 49 332 q 89 543 49 469 q 203 661 129 617 q 371 706 276 706 q 515 664 463 706 q 576 685 536 676 q 661 694 617 694 l 708 694 l 679 586 l 614 586 q 583 585 596 586 q 599 481 599 542 q 559 322 599 396 q 446 203 519 247 q 276 158 372 158 q 208 165 246 158 q 193 139 193 157 q 227 107 193 117 q 344 86 261 97 q 512 35 444 72 q 579 -99 579 -1 q 536 -226 579 -169 q 412 -315 493 -282 q 221 -347 331 -347 m 299 285 q 405 337 365 285 q 444 464 444 389 q 347 579 444 579 q 242 527 281 579 q 203 399 203 475 q 299 285 203 285 m 231 -225 q 367 -197 311 -225 q 424 -125 424 -169 q 374 -64 424 -82 q 240 -36 325 -46 q 189 -29 214 -35 q 81 -135 81 -65 q 119 -201 81 -178 q 231 -225 158 -225 z "},"ġ":{"ha":676,"x_min":-64,"x_max":708,"o":"m 221 -347 q 7 -294 78 -347 q -64 -165 -64 -242 q -28 -65 -64 -108 q 75 14 8 -22 q 32 99 32 47 q 53 161 32 135 q 115 208 74 188 q 66 285 83 238 q 49 386 49 332 q 89 543 49 469 q 203 661 129 617 q 371 706 276 706 q 515 664 463 706 q 576 685 536 676 q 661 694 617 694 l 708 694 l 679 586 l 614 586 q 583 585 596 586 q 599 481 599 542 q 559 322 599 396 q 446 203 519 247 q 276 158 372 158 q 208 165 246 158 q 193 139 193 157 q 227 107 193 117 q 344 86 261 97 q 512 35 444 72 q 579 -99 579 -1 q 536 -226 579 -169 q 412 -315 493 -282 q 221 -347 331 -347 m 299 285 q 405 337 365 285 q 444 464 444 389 q 347 579 444 579 q 242 527 281 579 q 203 399 203 475 q 299 285 203 285 m 231 -225 q 367 -197 311 -225 q 424 -125 424 -169 q 374 -64 424 -82 q 240 -36 325 -46 q 189 -29 214 -35 q 81 -135 81 -65 q 119 -201 81 -178 q 231 -225 158 -225 m 343 971 l 482 971 l 457 836 l 318 836 l 343 971 z "},"ḡ":{"ha":676,"x_min":-64,"x_max":708,"o":"m 221 -347 q 7 -294 78 -347 q -64 -165 -64 -242 q -28 -65 -64 -108 q 75 14 8 -22 q 32 99 32 47 q 53 161 32 135 q 115 208 74 188 q 66 285 83 238 q 49 386 49 332 q 89 543 49 469 q 203 661 129 617 q 371 706 276 706 q 515 664 463 706 q 576 685 536 676 q 661 694 617 694 l 708 694 l 679 586 l 614 586 q 583 585 596 586 q 599 481 599 542 q 559 322 599 396 q 446 203 519 247 q 276 158 372 158 q 208 165 246 158 q 193 139 193 157 q 227 107 193 117 q 344 86 261 97 q 512 35 444 72 q 579 -99 579 -1 q 536 -226 579 -169 q 412 -315 493 -282 q 221 -347 331 -347 m 299 285 q 405 337 365 285 q 444 464 444 389 q 347 579 444 579 q 242 527 281 579 q 203 399 203 475 q 299 285 203 285 m 231 -225 q 367 -197 311 -225 q 424 -125 424 -169 q 374 -64 424 -82 q 240 -36 325 -46 q 189 -29 214 -35 q 81 -135 81 -65 q 119 -201 81 -178 q 231 -225 158 -225 m 188 947 l 632 947 l 610 835 l 165 835 l 188 947 z "},"h":{"ha":747,"x_min":10,"x_max":676,"o":"m 193 1042 l 365 1042 l 294 633 q 386 688 340 671 q 483 706 432 706 q 626 649 576 706 q 676 499 676 592 q 664 368 676 443 l 601 0 l 429 0 l 488 342 q 501 465 501 422 q 478 538 501 511 q 411 564 454 564 q 340 549 372 564 q 271 504 307 535 l 182 0 l 10 0 l 193 1042 z "},"ħ":{"ha":747,"x_min":-290,"x_max":676,"o":"m 193 1042 l 365 1042 l 294 633 q 386 688 340 671 q 483 706 432 706 q 626 649 576 706 q 676 499 676 592 q 664 368 676 443 l 601 0 l 429 0 l 488 342 q 501 465 501 422 q 478 538 501 511 q 411 564 454 564 q 340 549 372 564 q 271 504 307 535 l 182 0 l 10 0 l 193 1042 m -271 931 l 124 931 l 104 815 l -290 815 l -271 931 z "},"ḫ":{"ha":747,"x_min":10,"x_max":676,"o":"m 193 1042 l 365 1042 l 294 633 q 386 688 340 671 q 483 706 432 706 q 626 649 576 706 q 676 499 676 592 q 664 368 676 443 l 601 0 l 429 0 l 488 342 q 501 465 501 422 q 478 538 501 511 q 411 564 454 564 q 340 549 372 564 q 271 504 307 535 l 182 0 l 10 0 l 193 1042 m 265 -319 q 129 -276 179 -319 q 79 -165 79 -232 q 83 -126 79 -143 l 194 -126 q 192 -149 192 -140 q 213 -198 192 -181 q 272 -215 235 -215 q 347 -192 317 -215 q 386 -126 378 -168 l 511 -126 q 426 -268 489 -217 q 265 -319 364 -319 z "},"ĥ":{"ha":747,"x_min":10,"x_max":676,"o":"m 193 1042 l 365 1042 l 294 633 q 386 688 340 671 q 483 706 432 706 q 626 649 576 706 q 676 499 676 592 q 664 368 676 443 l 601 0 l 429 0 l 488 342 q 501 465 501 422 q 478 538 501 511 q 411 564 454 564 q 340 549 372 564 q 271 504 307 535 l 182 0 l 10 0 l 193 1042 m 492 1207 l 474 1104 l 308 1204 l 139 1121 l 157 1224 l 332 1335 l 492 1207 z "},"ḥ":{"ha":747,"x_min":10,"x_max":676,"o":"m 193 1042 l 365 1042 l 294 633 q 386 688 340 671 q 483 706 432 706 q 626 649 576 706 q 676 499 676 592 q 664 368 676 443 l 601 0 l 429 0 l 488 342 q 501 465 501 422 q 478 538 501 511 q 411 564 454 564 q 340 549 372 564 q 271 504 307 535 l 182 0 l 10 0 l 193 1042 m 219 -112 l 358 -112 l 333 -247 l 194 -247 l 219 -112 z "},"i":{"ha":336,"x_min":10,"x_max":354,"o":"m 181 972 l 354 972 l 324 800 l 151 800 l 181 972 m 132 694 l 304 694 l 182 0 l 10 0 l 132 694 z "},"ı":{"ha":336,"x_min":10,"x_max":304,"o":"m 132 694 l 304 694 l 182 0 l 10 0 l 132 694 z "},"í":{"ha":336,"x_min":10,"x_max":415,"o":"m 132 694 l 304 694 l 182 0 l 10 0 l 132 694 m 135 907 l 415 1057 l 389 883 l 111 792 l 135 907 z "},"ĭ":{"ha":336,"x_min":10,"x_max":500,"o":"m 132 694 l 304 694 l 182 0 l 10 0 l 132 694 m 254 815 q 118 859 168 815 q 68 969 68 903 q 72 1008 68 992 l 183 1008 q 181 986 181 994 q 202 937 181 954 q 261 919 224 919 q 336 943 306 919 q 375 1008 367 967 l 500 1008 q 415 867 478 918 q 254 815 353 815 z "},"î":{"ha":336,"x_min":10,"x_max":438,"o":"m 132 694 l 304 694 l 182 0 l 10 0 l 132 694 m 101 899 l 285 1035 l 438 879 l 415 769 l 256 885 l 78 786 l 101 899 z "},"ȉ":{"ha":336,"x_min":-15,"x_max":404,"o":"m 132 694 l 304 694 l 182 0 l 10 0 l 132 694 m 90 817 l -15 1063 l 144 1063 l 200 817 l 90 817 m 294 817 l 200 1063 l 360 1063 l 404 817 l 294 817 z "},"ï":{"ha":336,"x_min":10,"x_max":469,"o":"m 132 694 l 304 694 l 182 0 l 10 0 l 132 694 m 64 946 l 194 946 l 169 821 l 39 821 l 64 946 m 339 946 l 469 946 l 444 821 l 314 821 l 339 946 z "},"ḯ":{"ha":336,"x_min":10,"x_max":461,"o":"m 132 694 l 304 694 l 182 0 l 10 0 l 132 694 m 58 929 l 189 929 l 167 810 l 36 810 l 58 929 m 331 929 l 461 929 l 439 810 l 308 810 l 331 929 m 164 1089 l 432 1221 l 407 1065 l 147 985 l 164 1089 z "},"ị":{"ha":336,"x_min":-15,"x_max":354,"o":"m 181 972 l 354 972 l 324 800 l 151 800 l 181 972 m 132 694 l 304 694 l 182 0 l 10 0 l 132 694 m 10 -112 l 149 -112 l 124 -247 l -15 -247 l 10 -112 z "},"ì":{"ha":336,"x_min":10,"x_max":385,"o":"m 132 694 l 304 694 l 182 0 l 10 0 l 132 694 m 122 897 l 150 1057 l 385 901 l 365 792 l 122 897 z "},"ỉ":{"ha":336,"x_min":10,"x_max":375,"o":"m 132 694 l 304 694 l 182 0 l 10 0 l 132 694 m 207 793 q 265 843 244 821 q 285 890 285 865 q 274 918 285 908 q 243 928 263 928 q 153 903 208 928 l 146 985 q 260 1010 206 1010 q 343 984 311 1010 q 375 913 375 958 q 342 820 375 860 q 249 742 310 781 l 207 793 z "},"ȋ":{"ha":336,"x_min":10,"x_max":457,"o":"m 132 694 l 304 694 l 182 0 l 10 0 l 132 694 m 274 1008 q 408 964 360 1008 q 457 850 457 919 q 454 815 457 840 l 338 815 l 339 835 q 317 886 339 868 q 256 904 296 904 q 181 881 211 904 q 144 815 151 857 l 26 815 q 109 953 40 897 q 274 1008 178 1008 z "},"ĳ":{"ha":674,"x_min":10,"x_max":690,"o":"m 181 972 l 354 972 l 324 800 l 151 800 l 181 972 m 132 694 l 304 694 l 182 0 l 10 0 l 132 694 m 518 972 l 690 972 l 660 800 l 488 800 l 518 972 m 235 -194 q 288 -188 272 -194 q 313 -160 304 -182 q 332 -83 322 -139 l 469 694 l 642 694 l 492 -154 q 427 -286 476 -236 q 289 -336 378 -336 l 225 -336 l 235 -194 z "},"ī":{"ha":336,"x_min":10,"x_max":490,"o":"m 132 694 l 304 694 l 182 0 l 10 0 l 132 694 m 46 947 l 490 947 l 468 835 l 24 835 l 46 947 z "},"į":{"ha":336,"x_min":-47,"x_max":340,"o":"m 132 694 l 304 694 l 182 0 l 10 0 l 132 694 m 201 971 l 340 971 l 315 836 l 176 836 l 201 971 m 182 0 q 47 -158 47 -87 q 60 -196 47 -183 q 99 -208 74 -208 q 181 -192 139 -208 l 190 -268 q 69 -293 135 -293 q -14 -267 18 -293 q -47 -196 -46 -242 q -6 -89 -47 -140 q 96 0 35 -37 l 182 0 z "},"ĩ":{"ha":336,"x_min":10,"x_max":504,"o":"m 132 694 l 304 694 l 182 0 l 10 0 l 132 694 m 365 803 q 324 810 344 803 q 264 835 303 818 q 217 854 240 846 q 176 863 193 863 q 138 849 153 863 q 118 814 122 836 l 10 814 q 58 939 21 896 q 154 982 96 982 q 202 973 178 982 q 257 949 226 964 q 338 922 313 922 q 390 975 382 922 l 504 975 q 456 845 490 888 q 365 803 422 803 z "},"j":{"ha":338,"x_min":-111,"x_max":354,"o":"m 182 972 l 354 972 l 324 800 l 151 800 l 182 972 m -101 -194 q -48 -188 -64 -194 q -23 -160 -32 -182 q -4 -83 -14 -139 l 133 694 l 306 694 l 156 -154 q 91 -286 140 -236 q -47 -336 42 -336 l -111 -336 l -101 -194 z "},"ȷ":{"ha":338,"x_min":-111,"x_max":306,"o":"m -101 -194 q -47 -189 -62 -194 q -23 -162 -32 -183 q -4 -83 -14 -140 l 133 694 l 306 694 l 156 -154 q 91 -286 140 -236 q -47 -336 42 -336 l -111 -336 l -101 -194 z "},"ĵ":{"ha":338,"x_min":-111,"x_max":439,"o":"m -101 -194 q -47 -189 -62 -194 q -23 -162 -32 -183 q -4 -83 -14 -140 l 133 694 l 306 694 l 156 -154 q 91 -286 140 -236 q -47 -336 42 -336 l -111 -336 l -101 -194 m 103 899 l 286 1035 l 439 879 l 417 769 l 257 885 l 79 786 l 103 899 z "},"k":{"ha":667,"x_min":10,"x_max":706,"o":"m 193 1042 l 367 1042 l 254 410 l 513 694 l 706 694 l 407 361 l 582 0 l 389 0 l 236 308 l 182 0 l 10 0 l 193 1042 z "},"ķ":{"ha":667,"x_min":10,"x_max":706,"o":"m 193 1042 l 367 1042 l 254 410 l 513 694 l 706 694 l 407 361 l 582 0 l 389 0 l 236 308 l 182 0 l 10 0 l 193 1042 m 153 -385 l 222 -261 l 168 -261 l 192 -126 l 336 -126 l 313 -261 l 213 -385 l 153 -385 z "},"ĸ":{"ha":704,"x_min":10,"x_max":746,"o":"m 131 694 l 304 694 l 257 425 l 533 694 l 746 694 l 392 364 l 625 0 l 431 0 l 239 324 l 182 0 l 10 0 l 131 694 z "},"l":{"ha":367,"x_min":33,"x_max":364,"o":"m 176 -14 q 69 24 104 -14 q 33 124 33 61 q 53 257 33 149 l 192 1042 l 364 1042 l 224 243 q 214 171 214 189 q 228 135 214 142 q 279 128 243 128 l 239 -14 l 176 -14 z "},"ĺ":{"ha":367,"x_min":33,"x_max":456,"o":"m 176 -14 q 69 24 104 -14 q 33 124 33 61 q 53 257 33 149 l 192 1042 l 364 1042 l 224 243 q 214 171 214 189 q 228 135 214 142 q 279 128 243 128 l 239 -14 l 176 -14 m 188 1228 l 456 1360 l 431 1204 l 171 1124 l 188 1228 z "},"ľ":{"ha":404,"x_min":33,"x_max":549,"o":"m 176 -14 q 69 24 104 -14 q 33 124 33 61 q 53 257 33 149 l 192 1042 l 364 1042 l 224 243 q 214 171 214 189 q 228 135 214 142 q 279 128 243 128 l 239 -14 l 176 -14 m 414 1042 l 549 1042 l 464 796 l 369 796 l 414 1042 z "},"ļ":{"ha":367,"x_min":22,"x_max":364,"o":"m 176 -14 q 69 24 104 -14 q 33 124 33 61 q 53 257 33 149 l 192 1042 l 364 1042 l 224 243 q 214 171 214 189 q 228 135 214 142 q 279 128 243 128 l 239 -14 l 176 -14 m 22 -385 l 92 -261 l 38 -261 l 61 -126 l 206 -126 l 182 -261 l 82 -385 l 22 -385 z "},"ŀ":{"ha":451,"x_min":33,"x_max":507,"o":"m 176 -14 q 69 24 104 -14 q 33 124 33 61 q 53 257 33 149 l 192 1042 l 364 1042 l 224 243 q 214 171 214 189 q 228 135 214 142 q 279 128 243 128 l 239 -14 l 176 -14 m 368 660 l 507 660 l 476 493 l 338 493 l 368 660 z "},"ḷ":{"ha":367,"x_min":33,"x_max":364,"o":"m 176 -14 q 69 24 104 -14 q 33 124 33 61 q 53 257 33 149 l 192 1042 l 364 1042 l 224 243 q 214 171 214 189 q 228 135 214 142 q 279 128 243 128 l 239 -14 l 176 -14 m 69 -112 l 208 -112 l 183 -247 l 44 -247 l 69 -112 z "},"ǉ":{"ha":704,"x_min":33,"x_max":721,"o":"m 176 -14 q 69 24 104 -14 q 33 124 33 61 q 53 257 33 149 l 192 1042 l 364 1042 l 224 243 q 214 171 214 189 q 228 135 214 142 q 279 128 243 128 l 239 -14 l 176 -14 m 549 972 l 721 972 l 690 800 l 518 800 l 549 972 m 265 -194 q 319 -188 303 -194 q 344 -160 335 -182 q 363 -83 353 -139 l 500 694 l 672 694 l 522 -154 q 458 -286 507 -236 q 319 -336 408 -336 l 256 -336 l 265 -194 z "},"ḻ":{"ha":367,"x_min":-111,"x_max":364,"o":"m 176 -14 q 69 24 104 -14 q 33 124 33 61 q 53 257 33 149 l 192 1042 l 364 1042 l 224 243 q 214 171 214 189 q 228 135 214 142 q 279 128 243 128 l 239 -14 l 176 -14 m -89 -126 l 356 -126 l 333 -239 l -111 -239 l -89 -126 z "},"ł":{"ha":367,"x_min":0,"x_max":422,"o":"m 224 243 q 214 171 214 189 q 228 135 214 142 q 279 128 243 128 l 239 -14 l 176 -14 q 69 24 104 -14 q 33 124 33 61 q 53 257 33 149 l 96 500 l 0 464 l 22 585 l 117 621 l 192 1042 l 364 1042 l 301 690 l 422 735 l 400 614 l 281 569 l 224 243 z "},"m":{"ha":1161,"x_min":10,"x_max":1090,"o":"m 132 694 l 274 694 l 274 640 q 354 687 306 668 q 454 706 403 706 q 562 679 513 706 q 635 600 611 653 q 725 672 660 639 q 872 706 790 706 q 1035 643 981 706 q 1090 474 1090 581 q 1074 344 1090 447 q 1015 0 1057 242 l 843 0 q 901 335 885 239 q 917 450 917 431 q 893 540 917 515 q 824 564 869 564 q 719 525 754 564 q 674 429 683 486 l 599 0 l 428 0 l 456 160 q 492 373 481 303 q 504 464 504 443 q 397 564 504 564 q 330 549 360 564 q 272 507 300 535 l 182 0 l 10 0 l 132 694 z "},"ṃ":{"ha":1161,"x_min":10,"x_max":1090,"o":"m 132 694 l 274 694 l 274 640 q 354 687 306 668 q 454 706 403 706 q 562 679 513 706 q 635 600 611 653 q 725 672 660 639 q 872 706 790 706 q 1035 643 981 706 q 1090 474 1090 581 q 1074 344 1090 447 q 1015 0 1057 242 l 843 0 q 901 335 885 239 q 917 450 917 431 q 893 540 917 515 q 824 564 869 564 q 719 525 754 564 q 674 429 683 486 l 599 0 l 428 0 l 456 160 q 492 373 481 303 q 504 464 504 443 q 397 564 504 564 q 330 549 360 564 q 272 507 300 535 l 182 0 l 10 0 l 132 694 m 424 -112 l 563 -112 l 538 -247 l 399 -247 l 424 -112 z "},"n":{"ha":744,"x_min":10,"x_max":674,"o":"m 132 694 l 283 694 l 290 653 q 372 692 331 678 q 464 706 413 706 q 621 642 568 706 q 674 471 674 578 q 661 363 674 446 q 599 0 649 281 l 425 0 q 497 447 497 411 q 474 536 497 508 q 399 564 450 564 q 331 549 361 564 q 271 504 301 535 l 182 0 l 10 0 l 132 694 z "},"ń":{"ha":744,"x_min":10,"x_max":674,"o":"m 132 694 l 283 694 l 290 653 q 372 692 331 678 q 464 706 413 706 q 621 642 568 706 q 674 471 674 578 q 661 363 674 446 q 599 0 649 281 l 425 0 q 497 447 497 411 q 474 536 497 508 q 399 564 450 564 q 331 549 361 564 q 271 504 301 535 l 182 0 l 10 0 l 132 694 m 349 893 l 629 1043 l 603 869 l 325 778 l 349 893 z "},"ŉ":{"ha":833,"x_min":10,"x_max":674,"o":"m 42 714 l 111 838 l 57 838 l 81 972 l 225 972 l 201 838 l 101 714 l 42 714 m 132 694 l 283 694 l 290 653 q 372 692 331 678 q 464 706 413 706 q 621 642 568 706 q 674 471 674 578 q 661 363 674 446 q 599 0 649 281 l 425 0 q 497 447 497 411 q 474 536 497 508 q 399 564 450 564 q 331 549 361 564 q 271 504 301 535 l 182 0 l 10 0 l 132 694 z "},"ň":{"ha":744,"x_min":10,"x_max":675,"o":"m 132 694 l 283 694 l 290 653 q 372 692 331 678 q 464 706 413 706 q 621 642 568 706 q 674 471 674 578 q 661 363 674 446 q 599 0 649 281 l 425 0 q 497 447 497 411 q 474 536 497 508 q 399 564 450 564 q 331 549 361 564 q 271 504 301 535 l 182 0 l 10 0 l 132 694 m 294 918 l 317 1028 l 476 913 l 675 1028 l 653 906 l 447 763 l 294 918 z "},"ņ":{"ha":744,"x_min":10,"x_max":674,"o":"m 132 694 l 283 694 l 290 653 q 372 692 331 678 q 464 706 413 706 q 621 642 568 706 q 674 471 674 578 q 661 363 674 446 q 599 0 649 281 l 425 0 q 497 447 497 411 q 474 536 497 508 q 399 564 450 564 q 331 549 361 564 q 271 504 301 535 l 182 0 l 10 0 l 132 694 m 171 -385 l 240 -261 l 186 -261 l 210 -126 l 354 -126 l 331 -261 l 231 -385 l 171 -385 z "},"ṅ":{"ha":744,"x_min":10,"x_max":674,"o":"m 132 694 l 283 694 l 290 653 q 372 692 331 678 q 464 706 413 706 q 621 642 568 706 q 674 471 674 578 q 661 363 674 446 q 599 0 649 281 l 425 0 q 497 447 497 411 q 474 536 497 508 q 399 564 450 564 q 331 549 361 564 q 271 504 301 535 l 182 0 l 10 0 l 132 694 m 415 957 l 554 957 l 529 822 l 390 822 l 415 957 z "},"ṇ":{"ha":744,"x_min":10,"x_max":674,"o":"m 132 694 l 283 694 l 290 653 q 372 692 331 678 q 464 706 413 706 q 621 642 568 706 q 674 471 674 578 q 661 363 674 446 q 599 0 649 281 l 425 0 q 497 447 497 411 q 474 536 497 508 q 399 564 450 564 q 331 549 361 564 q 271 504 301 535 l 182 0 l 10 0 l 132 694 m 218 -112 l 357 -112 l 332 -247 l 193 -247 l 218 -112 z "},"ŋ":{"ha":804,"x_min":40,"x_max":704,"o":"m 631 17 q 533 -178 608 -108 q 336 -249 457 -249 q 194 -225 261 -249 l 238 -86 q 331 -107 289 -107 q 416 -78 385 -107 q 457 10 447 -50 l 521 374 q 529 447 529 415 q 506 535 529 507 q 435 564 483 564 q 303 513 369 564 l 213 0 l 40 0 l 163 694 l 324 694 l 318 646 q 511 706 414 706 q 656 644 607 706 q 704 479 704 582 q 696 388 704 436 l 631 17 z "},"ǌ":{"ha":1082,"x_min":10,"x_max":1099,"o":"m 132 694 l 283 694 l 290 653 q 372 692 331 678 q 464 706 413 706 q 621 642 568 706 q 674 471 674 578 q 661 363 674 446 q 599 0 649 281 l 425 0 q 497 447 497 411 q 474 536 497 508 q 399 564 450 564 q 331 549 361 564 q 271 504 301 535 l 182 0 l 10 0 l 132 694 m 926 972 l 1099 972 l 1068 800 l 896 800 l 926 972 m 643 -194 q 697 -188 681 -194 q 722 -160 713 -182 q 740 -83 731 -139 l 878 694 l 1050 694 l 900 -154 q 835 -286 885 -236 q 697 -336 786 -336 l 633 -336 l 643 -194 z "},"ṉ":{"ha":744,"x_min":10,"x_max":674,"o":"m 132 694 l 283 694 l 290 653 q 372 692 331 678 q 464 706 413 706 q 621 642 568 706 q 674 471 674 578 q 661 363 674 446 q 599 0 649 281 l 425 0 q 497 447 497 411 q 474 536 497 508 q 399 564 450 564 q 331 549 361 564 q 271 504 301 535 l 182 0 l 10 0 l 132 694 m 60 -126 l 504 -126 l 482 -239 l 38 -239 l 60 -126 z "},"ñ":{"ha":744,"x_min":10,"x_max":718,"o":"m 132 694 l 283 694 l 290 653 q 372 692 331 678 q 464 706 413 706 q 621 642 568 706 q 674 471 674 578 q 661 363 674 446 q 599 0 649 281 l 425 0 q 497 447 497 411 q 474 536 497 508 q 399 564 450 564 q 331 549 361 564 q 271 504 301 535 l 182 0 l 10 0 l 132 694 m 579 789 q 538 797 558 789 q 478 821 517 804 q 431 840 454 832 q 390 849 407 849 q 351 835 367 849 q 332 800 336 822 l 224 800 q 272 925 235 882 q 368 968 310 968 q 416 959 392 968 q 471 935 440 950 q 551 908 526 908 q 604 961 596 908 l 718 961 q 670 831 704 874 q 579 789 636 789 z "},"o":{"ha":763,"x_min":24,"x_max":717,"o":"m 311 -14 q 153 26 218 -14 q 56 133 89 65 q 24 285 24 200 q 76 491 24 394 q 221 647 128 588 q 429 706 314 706 q 587 666 522 706 q 684 559 651 626 q 717 407 717 492 q 665 201 717 297 q 519 45 613 104 q 311 -14 426 -14 m 335 128 q 440 164 393 128 q 513 262 486 200 q 539 394 539 324 q 505 519 539 475 q 406 564 471 564 q 301 528 347 564 q 228 431 254 492 q 201 299 201 371 q 235 173 201 218 q 335 128 269 128 z "},"ó":{"ha":763,"x_min":24,"x_max":717,"o":"m 311 -14 q 153 26 218 -14 q 56 133 89 65 q 24 285 24 200 q 76 491 24 394 q 221 647 128 588 q 429 706 314 706 q 587 666 522 706 q 684 559 651 626 q 717 407 717 492 q 665 201 717 297 q 519 45 613 104 q 311 -14 426 -14 m 335 128 q 440 164 393 128 q 513 262 486 200 q 539 394 539 324 q 505 519 539 475 q 406 564 471 564 q 301 528 347 564 q 228 431 254 492 q 201 299 201 371 q 235 173 201 218 q 335 128 269 128 m 358 907 l 639 1057 l 613 883 l 335 792 l 358 907 z "},"ŏ":{"ha":763,"x_min":24,"x_max":724,"o":"m 311 -14 q 153 26 218 -14 q 56 133 89 65 q 24 285 24 200 q 76 491 24 394 q 221 647 128 588 q 429 706 314 706 q 587 666 522 706 q 684 559 651 626 q 717 407 717 492 q 665 201 717 297 q 519 45 613 104 q 311 -14 426 -14 m 335 128 q 440 164 393 128 q 513 262 486 200 q 539 394 539 324 q 505 519 539 475 q 406 564 471 564 q 301 528 347 564 q 228 431 254 492 q 201 299 201 371 q 235 173 201 218 q 335 128 269 128 m 478 815 q 342 859 392 815 q 292 969 292 903 q 296 1008 292 992 l 407 1008 q 404 986 404 994 q 426 937 404 954 q 485 919 447 919 q 560 943 529 919 q 599 1008 590 967 l 724 1008 q 639 867 701 918 q 478 815 576 815 z "},"ô":{"ha":763,"x_min":24,"x_max":717,"o":"m 311 -14 q 153 26 218 -14 q 56 133 89 65 q 24 285 24 200 q 76 491 24 394 q 221 647 128 588 q 429 706 314 706 q 587 666 522 706 q 684 559 651 626 q 717 407 717 492 q 665 201 717 297 q 519 45 613 104 q 311 -14 426 -14 m 335 128 q 440 164 393 128 q 513 262 486 200 q 539 394 539 324 q 505 519 539 475 q 406 564 471 564 q 301 528 347 564 q 228 431 254 492 q 201 299 201 371 q 235 173 201 218 q 335 128 269 128 m 325 899 l 508 1035 l 661 879 l 639 769 l 479 885 l 301 786 l 325 899 z "},"ố":{"ha":763,"x_min":24,"x_max":833,"o":"m 311 -14 q 153 26 218 -14 q 56 133 89 65 q 24 285 24 200 q 76 491 24 394 q 221 647 128 588 q 429 706 314 706 q 587 666 522 706 q 684 559 651 626 q 717 407 717 492 q 665 201 717 297 q 519 45 613 104 q 311 -14 426 -14 m 335 128 q 440 164 393 128 q 513 262 486 200 q 539 394 539 324 q 505 519 539 475 q 406 564 471 564 q 301 528 347 564 q 228 431 254 492 q 201 299 201 371 q 235 173 201 218 q 335 128 269 128 m 674 1143 l 833 1143 l 679 981 l 569 981 l 674 1143 m 657 874 l 639 771 l 474 871 l 304 788 l 322 890 l 497 1001 l 657 874 z "},"ộ":{"ha":763,"x_min":24,"x_max":717,"o":"m 311 -14 q 153 26 218 -14 q 56 133 89 65 q 24 285 24 200 q 76 491 24 394 q 221 647 128 588 q 429 706 314 706 q 587 666 522 706 q 684 559 651 626 q 717 407 717 492 q 665 201 717 297 q 519 45 613 104 q 311 -14 426 -14 m 335 128 q 440 164 393 128 q 513 262 486 200 q 539 394 539 324 q 505 519 539 475 q 406 564 471 564 q 301 528 347 564 q 228 431 254 492 q 201 299 201 371 q 235 173 201 218 q 335 128 269 128 m 325 899 l 508 1035 l 661 879 l 639 769 l 479 885 l 301 786 l 325 899 m 214 -112 l 353 -112 l 328 -247 l 189 -247 l 214 -112 z "},"ồ":{"ha":763,"x_min":24,"x_max":717,"o":"m 311 -14 q 153 26 218 -14 q 56 133 89 65 q 24 285 24 200 q 76 491 24 394 q 221 647 128 588 q 429 706 314 706 q 587 666 522 706 q 684 559 651 626 q 717 407 717 492 q 665 201 717 297 q 519 45 613 104 q 311 -14 426 -14 m 335 128 q 440 164 393 128 q 513 262 486 200 q 539 394 539 324 q 505 519 539 475 q 406 564 471 564 q 301 528 347 564 q 228 431 254 492 q 201 299 201 371 q 235 173 201 218 q 335 128 269 128 m 592 981 l 508 1157 l 657 1157 l 697 981 l 592 981 m 656 874 l 638 771 l 472 871 l 303 788 l 321 890 l 496 1001 l 656 874 z "},"ổ":{"ha":763,"x_min":24,"x_max":746,"o":"m 311 -14 q 153 26 218 -14 q 56 133 89 65 q 24 285 24 200 q 76 491 24 394 q 221 647 128 588 q 429 706 314 706 q 587 666 522 706 q 684 559 651 626 q 717 407 717 492 q 665 201 717 297 q 519 45 613 104 q 311 -14 426 -14 m 335 128 q 440 164 393 128 q 513 262 486 200 q 539 394 539 324 q 505 519 539 475 q 406 564 471 564 q 301 528 347 564 q 228 431 254 492 q 201 299 201 371 q 235 173 201 218 q 335 128 269 128 m 654 860 l 636 757 l 471 857 l 301 774 l 319 876 l 494 988 l 654 860 m 593 994 q 653 1046 653 1008 q 608 1081 653 1081 q 521 1058 572 1081 l 511 1143 q 626 1165 569 1165 q 713 1140 681 1165 q 746 1071 746 1115 q 597 933 746 969 l 593 994 z "},"ỗ":{"ha":763,"x_min":24,"x_max":754,"o":"m 311 -14 q 153 26 218 -14 q 56 133 89 65 q 24 285 24 200 q 76 491 24 394 q 221 647 128 588 q 429 706 314 706 q 587 666 522 706 q 684 559 651 626 q 717 407 717 492 q 665 201 717 297 q 519 45 613 104 q 311 -14 426 -14 m 335 128 q 440 164 393 128 q 513 262 486 200 q 539 394 539 324 q 505 519 539 475 q 406 564 471 564 q 301 528 347 564 q 228 431 254 492 q 201 299 201 371 q 235 173 201 218 q 335 128 269 128 m 654 860 l 636 757 l 471 857 l 301 774 l 319 876 l 494 988 l 654 860 m 618 1024 q 574 1031 597 1024 q 521 1051 551 1038 q 478 1069 500 1061 q 442 1076 457 1076 q 396 1033 404 1076 l 290 1033 q 429 1179 318 1179 q 524 1151 463 1179 q 566 1134 544 1142 q 603 1126 588 1126 q 649 1172 640 1126 l 754 1172 q 708 1061 743 1099 q 618 1024 674 1024 z "},"ȍ":{"ha":763,"x_min":24,"x_max":717,"o":"m 311 -14 q 153 26 218 -14 q 56 133 89 65 q 24 285 24 200 q 76 491 24 394 q 221 647 128 588 q 429 706 314 706 q 587 666 522 706 q 684 559 651 626 q 717 407 717 492 q 665 201 717 297 q 519 45 613 104 q 311 -14 426 -14 m 335 128 q 440 164 393 128 q 513 262 486 200 q 539 394 539 324 q 505 519 539 475 q 406 564 471 564 q 301 528 347 564 q 228 431 254 492 q 201 299 201 371 q 235 173 201 218 q 335 128 269 128 m 314 817 l 208 1063 l 368 1063 l 424 817 l 314 817 m 518 817 l 424 1063 l 583 1063 l 628 817 l 518 817 z "},"ö":{"ha":763,"x_min":24,"x_max":717,"o":"m 311 -14 q 153 26 218 -14 q 56 133 89 65 q 24 285 24 200 q 76 491 24 394 q 221 647 128 588 q 429 706 314 706 q 587 666 522 706 q 684 559 651 626 q 717 407 717 492 q 665 201 717 297 q 519 45 613 104 q 311 -14 426 -14 m 335 128 q 440 164 393 128 q 513 262 486 200 q 539 394 539 324 q 505 519 539 475 q 406 564 471 564 q 301 528 347 564 q 228 431 254 492 q 201 299 201 371 q 235 173 201 218 q 335 128 269 128 m 288 946 l 418 946 l 393 821 l 263 821 l 288 946 m 563 946 l 693 946 l 668 821 l 538 821 l 563 946 z "},"ȫ":{"ha":763,"x_min":24,"x_max":742,"o":"m 311 -14 q 153 26 218 -14 q 56 133 89 65 q 24 285 24 200 q 76 491 24 394 q 221 647 128 588 q 429 706 314 706 q 587 666 522 706 q 684 559 651 626 q 717 407 717 492 q 665 201 717 297 q 519 45 613 104 q 311 -14 426 -14 m 335 128 q 440 164 393 128 q 513 262 486 200 q 539 394 539 324 q 505 519 539 475 q 406 564 471 564 q 301 528 347 564 q 228 431 254 492 q 201 299 201 371 q 235 173 201 218 q 335 128 269 128 m 282 929 l 413 929 l 390 810 l 260 810 l 282 929 m 554 929 l 685 929 l 663 810 l 532 810 l 554 929 m 297 1138 l 742 1138 l 722 1032 l 278 1032 l 297 1138 z "},"ȱ":{"ha":763,"x_min":24,"x_max":750,"o":"m 311 -14 q 153 26 218 -14 q 56 133 89 65 q 24 285 24 200 q 76 491 24 394 q 221 647 128 588 q 429 706 314 706 q 587 666 522 706 q 684 559 651 626 q 717 407 717 492 q 665 201 717 297 q 519 45 613 104 q 311 -14 426 -14 m 335 128 q 440 164 393 128 q 513 262 486 200 q 539 394 539 324 q 505 519 539 475 q 406 564 471 564 q 301 528 347 564 q 228 431 254 492 q 201 299 201 371 q 235 173 201 218 q 335 128 269 128 m 418 957 l 560 957 l 535 822 l 393 822 l 418 957 m 306 1179 l 750 1179 l 731 1074 l 286 1074 l 306 1179 z "},"ọ":{"ha":763,"x_min":24,"x_max":717,"o":"m 311 -14 q 153 26 218 -14 q 56 133 89 65 q 24 285 24 200 q 76 491 24 394 q 221 647 128 588 q 429 706 314 706 q 587 666 522 706 q 684 559 651 626 q 717 407 717 492 q 665 201 717 297 q 519 45 613 104 q 311 -14 426 -14 m 335 128 q 440 164 393 128 q 513 262 486 200 q 539 394 539 324 q 505 519 539 475 q 406 564 471 564 q 301 528 347 564 q 228 431 254 492 q 201 299 201 371 q 235 173 201 218 q 335 128 269 128 m 214 -112 l 353 -112 l 328 -247 l 189 -247 l 214 -112 z "},"ò":{"ha":763,"x_min":24,"x_max":717,"o":"m 311 -14 q 153 26 218 -14 q 56 133 89 65 q 24 285 24 200 q 76 491 24 394 q 221 647 128 588 q 429 706 314 706 q 587 666 522 706 q 684 559 651 626 q 717 407 717 492 q 665 201 717 297 q 519 45 613 104 q 311 -14 426 -14 m 335 128 q 440 164 393 128 q 513 262 486 200 q 539 394 539 324 q 505 519 539 475 q 406 564 471 564 q 301 528 347 564 q 228 431 254 492 q 201 299 201 371 q 235 173 201 218 q 335 128 269 128 m 346 897 l 374 1057 l 608 901 l 589 792 l 346 897 z "},"ỏ":{"ha":763,"x_min":24,"x_max":717,"o":"m 311 -14 q 153 26 218 -14 q 56 133 89 65 q 24 285 24 200 q 76 491 24 394 q 221 647 128 588 q 429 706 314 706 q 587 666 522 706 q 684 559 651 626 q 717 407 717 492 q 665 201 717 297 q 519 45 613 104 q 311 -14 426 -14 m 335 128 q 440 164 393 128 q 513 262 486 200 q 539 394 539 324 q 505 519 539 475 q 406 564 471 564 q 301 528 347 564 q 228 431 254 492 q 201 299 201 371 q 235 173 201 218 q 335 128 269 128 m 431 793 q 488 843 468 821 q 508 890 508 865 q 497 918 508 908 q 467 928 486 928 q 376 903 432 928 l 369 985 q 483 1010 429 1010 q 567 984 535 1010 q 599 913 599 958 q 566 820 599 860 q 472 742 533 781 l 431 793 z "},"ơ":{"ha":763,"x_min":24,"x_max":774,"o":"m 774 797 q 728 697 764 742 q 640 624 693 653 q 697 528 678 583 q 717 407 717 472 q 665 201 717 297 q 519 45 613 104 q 311 -14 426 -14 q 153 26 218 -14 q 56 133 89 65 q 24 285 24 200 q 76 491 24 394 q 221 647 128 588 q 429 706 314 706 q 515 696 472 706 q 626 797 608 703 l 774 797 m 335 128 q 440 164 393 128 q 513 262 486 200 q 539 394 539 324 q 505 519 539 475 q 406 564 471 564 q 301 528 347 564 q 228 431 254 492 q 201 299 201 371 q 235 173 201 218 q 335 128 269 128 z "},"ớ":{"ha":763,"x_min":24,"x_max":774,"o":"m 774 797 q 728 697 764 742 q 640 624 693 653 q 697 528 678 583 q 717 407 717 472 q 665 201 717 297 q 519 45 613 104 q 311 -14 426 -14 q 153 26 218 -14 q 56 133 89 65 q 24 285 24 200 q 76 491 24 394 q 221 647 128 588 q 429 706 314 706 q 515 696 472 706 q 626 797 608 703 l 774 797 m 335 128 q 440 164 393 128 q 513 262 486 200 q 539 394 539 324 q 505 519 539 475 q 406 564 471 564 q 301 528 347 564 q 228 431 254 492 q 201 299 201 371 q 235 173 201 218 q 335 128 269 128 m 358 907 l 639 1057 l 613 883 l 335 792 l 358 907 z "},"ợ":{"ha":763,"x_min":24,"x_max":774,"o":"m 774 797 q 728 697 764 742 q 640 624 693 653 q 697 528 678 583 q 717 407 717 472 q 665 201 717 297 q 519 45 613 104 q 311 -14 426 -14 q 153 26 218 -14 q 56 133 89 65 q 24 285 24 200 q 76 491 24 394 q 221 647 128 588 q 429 706 314 706 q 515 696 472 706 q 626 797 608 703 l 774 797 m 335 128 q 440 164 393 128 q 513 262 486 200 q 539 394 539 324 q 505 519 539 475 q 406 564 471 564 q 301 528 347 564 q 228 431 254 492 q 201 299 201 371 q 235 173 201 218 q 335 128 269 128 m 214 -112 l 353 -112 l 328 -247 l 189 -247 l 214 -112 z "},"ờ":{"ha":763,"x_min":24,"x_max":774,"o":"m 774 797 q 728 697 764 742 q 640 624 693 653 q 697 528 678 583 q 717 407 717 472 q 665 201 717 297 q 519 45 613 104 q 311 -14 426 -14 q 153 26 218 -14 q 56 133 89 65 q 24 285 24 200 q 76 491 24 394 q 221 647 128 588 q 429 706 314 706 q 515 696 472 706 q 626 797 608 703 l 774 797 m 335 128 q 440 164 393 128 q 513 262 486 200 q 539 394 539 324 q 505 519 539 475 q 406 564 471 564 q 301 528 347 564 q 228 431 254 492 q 201 299 201 371 q 235 173 201 218 q 335 128 269 128 m 346 897 l 374 1057 l 608 901 l 589 792 l 346 897 z "},"ở":{"ha":763,"x_min":24,"x_max":774,"o":"m 774 797 q 728 697 764 742 q 640 624 693 653 q 697 528 678 583 q 717 407 717 472 q 665 201 717 297 q 519 45 613 104 q 311 -14 426 -14 q 153 26 218 -14 q 56 133 89 65 q 24 285 24 200 q 76 491 24 394 q 221 647 128 588 q 429 706 314 706 q 515 696 472 706 q 626 797 608 703 l 774 797 m 335 128 q 440 164 393 128 q 513 262 486 200 q 539 394 539 324 q 505 519 539 475 q 406 564 471 564 q 301 528 347 564 q 228 431 254 492 q 201 299 201 371 q 235 173 201 218 q 335 128 269 128 m 431 793 q 488 843 468 821 q 508 890 508 865 q 497 918 508 908 q 467 928 486 928 q 376 903 432 928 l 369 985 q 483 1010 429 1010 q 567 984 535 1010 q 599 913 599 958 q 566 820 599 860 q 472 742 533 781 l 431 793 z "},"ỡ":{"ha":763,"x_min":24,"x_max":774,"o":"m 774 797 q 728 697 764 742 q 640 624 693 653 q 697 528 678 583 q 717 407 717 472 q 665 201 717 297 q 519 45 613 104 q 311 -14 426 -14 q 153 26 218 -14 q 56 133 89 65 q 24 285 24 200 q 76 491 24 394 q 221 647 128 588 q 429 706 314 706 q 515 696 472 706 q 626 797 608 703 l 774 797 m 335 128 q 440 164 393 128 q 513 262 486 200 q 539 394 539 324 q 505 519 539 475 q 406 564 471 564 q 301 528 347 564 q 228 431 254 492 q 201 299 201 371 q 235 173 201 218 q 335 128 269 128 m 589 803 q 547 810 568 803 q 488 835 526 818 q 440 854 464 846 q 400 863 417 863 q 361 849 376 863 q 342 814 346 836 l 233 814 q 282 939 244 896 q 378 982 319 982 q 426 973 401 982 q 481 949 450 964 q 561 922 536 922 q 614 975 606 922 l 728 975 q 680 845 714 888 q 589 803 646 803 z "},"ő":{"ha":763,"x_min":24,"x_max":825,"o":"m 311 -14 q 153 26 218 -14 q 56 133 89 65 q 24 285 24 200 q 76 491 24 394 q 221 647 128 588 q 429 706 314 706 q 587 666 522 706 q 684 559 651 626 q 717 407 717 492 q 665 201 717 297 q 519 45 613 104 q 311 -14 426 -14 m 335 128 q 440 164 393 128 q 513 262 486 200 q 539 394 539 324 q 505 519 539 475 q 406 564 471 564 q 301 528 347 564 q 228 431 254 492 q 201 299 201 371 q 235 173 201 218 q 335 128 269 128 m 450 1063 l 610 1063 l 413 817 l 303 817 l 450 1063 m 665 1063 l 825 1063 l 617 817 l 507 817 l 665 1063 z "},"ȏ":{"ha":763,"x_min":24,"x_max":717,"o":"m 311 -14 q 153 26 218 -14 q 56 133 89 65 q 24 285 24 200 q 76 491 24 394 q 221 647 128 588 q 429 706 314 706 q 587 666 522 706 q 684 559 651 626 q 717 407 717 492 q 665 201 717 297 q 519 45 613 104 q 311 -14 426 -14 m 335 128 q 440 164 393 128 q 513 262 486 200 q 539 394 539 324 q 505 519 539 475 q 406 564 471 564 q 301 528 347 564 q 228 431 254 492 q 201 299 201 371 q 235 173 201 218 q 335 128 269 128 m 497 1008 q 632 964 583 1008 q 681 850 681 919 q 678 815 681 840 l 561 815 l 563 835 q 541 886 563 868 q 479 904 519 904 q 405 881 435 904 q 368 815 375 857 l 250 815 q 333 953 264 897 q 497 1008 401 1008 z "},"ō":{"ha":763,"x_min":24,"x_max":717,"o":"m 311 -14 q 153 26 218 -14 q 56 133 89 65 q 24 285 24 200 q 76 491 24 394 q 221 647 128 588 q 429 706 314 706 q 587 666 522 706 q 684 559 651 626 q 717 407 717 492 q 665 201 717 297 q 519 45 613 104 q 311 -14 426 -14 m 335 128 q 440 164 393 128 q 513 262 486 200 q 539 394 539 324 q 505 519 539 475 q 406 564 471 564 q 301 528 347 564 q 228 431 254 492 q 201 299 201 371 q 235 173 201 218 q 335 128 269 128 m 269 947 l 714 947 l 692 835 l 247 835 l 269 947 z "},"ṓ":{"ha":763,"x_min":24,"x_max":717,"o":"m 311 -14 q 153 26 218 -14 q 56 133 89 65 q 24 285 24 200 q 76 491 24 394 q 221 647 128 588 q 429 706 314 706 q 587 666 522 706 q 684 559 651 626 q 717 407 717 492 q 665 201 717 297 q 519 45 613 104 q 311 -14 426 -14 m 335 128 q 440 164 393 128 q 513 262 486 200 q 539 394 539 324 q 505 519 539 475 q 406 564 471 564 q 301 528 347 564 q 228 431 254 492 q 201 299 201 371 q 235 173 201 218 q 335 128 269 128 m 261 929 l 706 929 l 686 824 l 242 824 l 261 929 m 396 1117 l 664 1249 l 639 1093 l 379 1013 l 396 1117 z "},"ṑ":{"ha":763,"x_min":24,"x_max":717,"o":"m 311 -14 q 153 26 218 -14 q 56 133 89 65 q 24 285 24 200 q 76 491 24 394 q 221 647 128 588 q 429 706 314 706 q 587 666 522 706 q 684 559 651 626 q 717 407 717 492 q 665 201 717 297 q 519 45 613 104 q 311 -14 426 -14 m 335 128 q 440 164 393 128 q 513 262 486 200 q 539 394 539 324 q 505 519 539 475 q 406 564 471 564 q 301 528 347 564 q 228 431 254 492 q 201 299 201 371 q 235 173 201 218 q 335 128 269 128 m 261 929 l 706 929 l 686 824 l 242 824 l 261 929 m 383 1093 l 411 1240 l 649 1108 l 629 1013 l 383 1093 z "},"ǫ":{"ha":763,"x_min":24,"x_max":717,"o":"m 388 -7 q 263 -158 263 -89 q 276 -196 263 -183 q 314 -208 289 -208 q 396 -192 354 -208 l 406 -268 q 285 -293 350 -293 q 201 -267 233 -293 q 168 -196 169 -242 q 203 -99 168 -146 q 290 -14 238 -51 q 92 76 161 -7 q 24 285 24 160 q 76 491 24 394 q 221 647 128 588 q 429 706 314 706 q 587 666 522 706 q 684 559 651 626 q 717 407 717 492 q 675 222 717 310 q 558 72 633 133 q 388 -7 483 11 m 201 299 q 235 173 201 218 q 335 128 269 128 q 440 164 393 128 q 513 262 486 200 q 539 394 539 324 q 505 519 539 475 q 406 564 471 564 q 301 528 347 564 q 228 431 254 492 q 201 299 201 371 z "},"ø":{"ha":763,"x_min":21,"x_max":726,"o":"m 642 622 q 698 526 679 581 q 717 407 717 471 q 665 201 717 297 q 519 45 613 104 q 311 -14 426 -14 q 189 8 244 -14 l 142 -56 l 21 -56 l 107 61 q 44 160 65 103 q 24 285 24 217 q 76 491 24 394 q 221 647 128 588 q 429 706 314 706 q 563 679 503 706 l 606 736 l 726 736 l 642 622 m 201 299 q 215 208 201 244 l 468 550 q 406 564 442 564 q 301 528 347 564 q 228 431 254 492 q 201 299 201 371 m 539 394 q 529 469 539 439 l 283 136 q 335 128 307 128 q 440 164 393 128 q 513 262 486 200 q 539 394 539 324 z "},"ǿ":{"ha":763,"x_min":21,"x_max":726,"o":"m 642 622 q 698 526 679 581 q 717 407 717 471 q 665 201 717 297 q 519 45 613 104 q 311 -14 426 -14 q 189 8 244 -14 l 142 -56 l 21 -56 l 107 61 q 44 160 65 103 q 24 285 24 217 q 76 491 24 394 q 221 647 128 588 q 429 706 314 706 q 563 679 503 706 l 606 736 l 726 736 l 642 622 m 201 299 q 215 208 201 244 l 468 550 q 406 564 442 564 q 301 528 347 564 q 228 431 254 492 q 201 299 201 371 m 539 394 q 529 469 539 439 l 283 136 q 335 128 307 128 q 440 164 393 128 q 513 262 486 200 q 539 394 539 324 m 358 907 l 639 1057 l 613 883 l 335 792 l 358 907 z "},"õ":{"ha":763,"x_min":24,"x_max":728,"o":"m 311 -14 q 153 26 218 -14 q 56 133 89 65 q 24 285 24 200 q 76 491 24 394 q 221 647 128 588 q 429 706 314 706 q 587 666 522 706 q 684 559 651 626 q 717 407 717 492 q 665 201 717 297 q 519 45 613 104 q 311 -14 426 -14 m 335 128 q 440 164 393 128 q 513 262 486 200 q 539 394 539 324 q 505 519 539 475 q 406 564 471 564 q 301 528 347 564 q 228 431 254 492 q 201 299 201 371 q 235 173 201 218 q 335 128 269 128 m 589 803 q 547 810 568 803 q 488 835 526 818 q 440 854 464 846 q 400 863 417 863 q 361 849 376 863 q 342 814 346 836 l 233 814 q 282 939 244 896 q 378 982 319 982 q 426 973 401 982 q 481 949 450 964 q 561 922 536 922 q 614 975 606 922 l 728 975 q 680 845 714 888 q 589 803 646 803 z "},"ṍ":{"ha":763,"x_min":24,"x_max":717,"o":"m 311 -14 q 153 26 218 -14 q 56 133 89 65 q 24 285 24 200 q 76 491 24 394 q 221 647 128 588 q 429 706 314 706 q 587 666 522 706 q 684 559 651 626 q 717 407 717 492 q 665 201 717 297 q 519 45 613 104 q 311 -14 426 -14 m 335 128 q 440 164 393 128 q 513 262 486 200 q 539 394 539 324 q 505 519 539 475 q 406 564 471 564 q 301 528 347 564 q 228 431 254 492 q 201 299 201 371 q 235 173 201 218 q 335 128 269 128 m 569 801 q 526 808 549 801 q 472 829 503 815 q 430 847 451 839 q 393 854 408 854 q 347 811 356 854 l 242 811 q 381 957 269 957 q 475 929 414 957 q 517 912 496 919 q 554 904 539 904 q 600 950 592 904 l 706 950 q 660 839 694 876 q 569 801 625 801 m 390 1108 l 658 1240 l 633 1085 l 374 1004 l 390 1108 z "},"ṏ":{"ha":763,"x_min":24,"x_max":724,"o":"m 311 -14 q 153 26 218 -14 q 56 133 89 65 q 24 285 24 200 q 76 491 24 394 q 221 647 128 588 q 429 706 314 706 q 587 666 522 706 q 684 559 651 626 q 717 407 717 492 q 665 201 717 297 q 519 45 613 104 q 311 -14 426 -14 m 335 128 q 440 164 393 128 q 513 262 486 200 q 539 394 539 324 q 505 519 539 475 q 406 564 471 564 q 301 528 347 564 q 228 431 254 492 q 201 299 201 371 q 235 173 201 218 q 335 128 269 128 m 569 801 q 526 808 549 801 q 472 829 503 815 q 430 847 451 839 q 393 854 408 854 q 347 811 356 854 l 242 811 q 381 957 269 957 q 475 929 414 957 q 517 912 496 919 q 554 904 539 904 q 600 950 592 904 l 706 950 q 660 839 694 876 q 569 801 625 801 m 321 1157 l 451 1157 l 429 1038 l 299 1038 l 321 1157 m 593 1157 l 724 1157 l 701 1038 l 571 1038 l 593 1157 z "},"ȭ":{"ha":763,"x_min":24,"x_max":744,"o":"m 311 -14 q 153 26 218 -14 q 56 133 89 65 q 24 285 24 200 q 76 491 24 394 q 221 647 128 588 q 429 706 314 706 q 587 666 522 706 q 684 559 651 626 q 717 407 717 492 q 665 201 717 297 q 519 45 613 104 q 311 -14 426 -14 m 335 128 q 440 164 393 128 q 513 262 486 200 q 539 394 539 324 q 505 519 539 475 q 406 564 471 564 q 301 528 347 564 q 228 431 254 492 q 201 299 201 371 q 235 173 201 218 q 335 128 269 128 m 569 801 q 526 808 549 801 q 472 829 503 815 q 430 847 451 839 q 393 854 408 854 q 347 811 356 854 l 242 811 q 381 957 269 957 q 475 929 414 957 q 517 912 496 919 q 554 904 539 904 q 600 950 592 904 l 706 950 q 660 839 694 876 q 569 801 625 801 m 300 1157 l 744 1157 l 725 1051 l 281 1051 l 300 1157 z "},"œ":{"ha":1200,"x_min":24,"x_max":1167,"o":"m 306 -14 q 152 26 215 -14 q 56 133 89 65 q 24 283 24 200 q 76 490 24 393 q 221 647 128 588 q 432 706 314 706 q 663 596 582 706 q 919 706 772 706 q 1099 638 1031 706 q 1167 457 1167 569 q 1158 386 1167 417 q 1132 310 1150 356 l 706 310 q 710 264 706 285 q 765 161 722 194 q 871 128 808 128 q 978 144 915 128 q 1086 185 1040 161 l 1068 39 q 832 -14 960 -14 q 681 16 746 -14 q 578 99 617 46 q 306 -14 458 -14 m 331 128 q 438 163 390 128 q 511 260 485 199 q 538 397 538 322 q 503 519 538 474 q 407 564 469 564 q 300 528 347 564 q 227 431 253 492 q 201 294 201 369 q 235 173 201 218 q 331 128 268 128 m 989 426 q 993 467 993 447 q 972 535 993 507 q 900 564 951 564 q 797 526 840 564 q 731 426 754 489 l 989 426 z "},"p":{"ha":778,"x_min":-50,"x_max":731,"o":"m 132 694 l 283 694 l 285 633 q 486 706 378 706 q 666 626 601 706 q 731 413 731 547 q 688 190 731 286 q 567 40 646 93 q 383 -14 489 -14 q 269 11 317 -14 q 194 78 222 36 l 122 -336 l -50 -336 l 132 694 m 369 128 q 502 203 451 128 q 553 396 553 278 q 523 519 553 474 q 432 564 493 564 q 283 483 339 564 q 226 283 226 403 q 369 128 226 128 z "},"þ":{"ha":778,"x_min":-50,"x_max":731,"o":"m 193 1042 l 365 1042 l 294 642 q 486 706 385 706 q 666 626 601 706 q 731 413 731 547 q 688 190 731 286 q 567 40 646 93 q 383 -14 489 -14 q 269 11 317 -14 q 194 78 222 36 l 122 -336 l -50 -336 l 193 1042 m 369 128 q 502 203 451 128 q 553 396 553 278 q 523 519 553 474 q 432 564 493 564 q 283 483 339 564 q 226 283 226 403 q 369 128 226 128 z "},"q":{"ha":779,"x_min":25,"x_max":747,"o":"m 460 51 q 375 2 418 18 q 279 -14 332 -14 q 90 69 156 -14 q 25 282 25 151 q 71 489 25 392 q 201 646 117 586 q 394 706 285 706 q 501 684 458 706 q 575 615 543 663 l 613 694 l 747 694 l 565 -336 l 392 -336 l 460 51 m 340 128 q 481 206 432 128 q 529 406 529 285 q 406 564 529 564 q 300 528 346 564 q 228 432 254 493 q 203 299 203 371 q 237 173 203 218 q 340 128 271 128 z "},"r":{"ha":472,"x_min":10,"x_max":519,"o":"m 132 694 l 296 694 l 285 621 q 367 679 315 653 q 471 706 418 706 l 519 706 l 458 543 l 393 543 q 319 524 354 543 q 265 474 283 504 l 181 0 l 10 0 l 132 694 z "},"ŕ":{"ha":472,"x_min":10,"x_max":519,"o":"m 132 694 l 296 694 l 285 621 q 367 679 315 653 q 471 706 418 706 l 519 706 l 458 543 l 393 543 q 319 524 354 543 q 265 474 283 504 l 181 0 l 10 0 l 132 694 m 236 907 l 517 1057 l 490 883 l 213 792 l 236 907 z "},"ř":{"ha":472,"x_min":10,"x_max":563,"o":"m 132 694 l 296 694 l 285 621 q 367 679 315 653 q 471 706 418 706 l 519 706 l 458 543 l 393 543 q 319 524 354 543 q 265 474 283 504 l 181 0 l 10 0 l 132 694 m 182 932 l 204 1042 l 364 926 l 563 1042 l 540 919 l 335 776 l 182 932 z "},"ŗ":{"ha":472,"x_min":-37,"x_max":519,"o":"m 132 694 l 296 694 l 285 621 q 367 679 315 653 q 471 706 418 706 l 519 706 l 458 543 l 393 543 q 319 524 354 543 q 265 474 283 504 l 181 0 l 10 0 l 132 694 m -37 -385 l 32 -261 l -22 -261 l 1 -126 l 146 -126 l 122 -261 l 22 -385 l -37 -385 z "},"ȑ":{"ha":472,"x_min":10,"x_max":519,"o":"m 132 694 l 296 694 l 285 621 q 367 679 315 653 q 471 706 418 706 l 519 706 l 458 543 l 393 543 q 319 524 354 543 q 265 474 283 504 l 181 0 l 10 0 l 132 694 m 192 817 l 86 1063 l 246 1063 l 301 817 l 192 817 m 396 817 l 301 1063 l 461 1063 l 506 817 l 396 817 z "},"ṛ":{"ha":472,"x_min":-15,"x_max":519,"o":"m 132 694 l 296 694 l 285 621 q 367 679 315 653 q 471 706 418 706 l 519 706 l 458 543 l 393 543 q 319 524 354 543 q 265 474 283 504 l 181 0 l 10 0 l 132 694 m 10 -112 l 149 -112 l 124 -247 l -15 -247 l 10 -112 z "},"ȓ":{"ha":472,"x_min":10,"x_max":558,"o":"m 132 694 l 296 694 l 285 621 q 367 679 315 653 q 471 706 418 706 l 519 706 l 458 543 l 393 543 q 319 524 354 543 q 265 474 283 504 l 181 0 l 10 0 l 132 694 m 375 1008 q 510 964 461 1008 q 558 850 558 919 q 556 815 558 840 l 439 815 l 440 835 q 419 886 440 868 q 357 904 397 904 q 283 881 313 904 q 246 815 253 857 l 128 815 q 210 953 142 897 q 375 1008 279 1008 z "},"ṟ":{"ha":472,"x_min":-171,"x_max":519,"o":"m 132 694 l 296 694 l 285 621 q 367 679 315 653 q 471 706 418 706 l 519 706 l 458 543 l 393 543 q 319 524 354 543 q 265 474 283 504 l 181 0 l 10 0 l 132 694 m -149 -126 l 296 -126 l 274 -239 l -171 -239 l -149 -126 z "},"s":{"ha":578,"x_min":-18,"x_max":554,"o":"m 213 -14 q -18 38 94 -14 l 22 185 q 225 115 135 115 q 302 138 276 115 q 328 194 328 160 q 304 251 328 232 q 222 290 281 271 q 99 357 140 318 q 57 471 57 396 q 134 640 57 574 q 347 706 211 706 q 554 654 464 706 l 517 515 q 328 582 424 582 q 248 563 278 582 q 218 506 218 544 q 234 460 218 478 q 270 434 250 443 q 353 403 290 425 q 467 332 431 375 q 503 215 503 289 q 469 99 503 151 q 370 17 436 47 q 213 -14 304 -14 z "},"ś":{"ha":578,"x_min":-18,"x_max":554,"o":"m 213 -14 q -18 38 94 -14 l 22 185 q 225 115 135 115 q 302 138 276 115 q 328 194 328 160 q 304 251 328 232 q 222 290 281 271 q 99 357 140 318 q 57 471 57 396 q 134 640 57 574 q 347 706 211 706 q 554 654 464 706 l 517 515 q 328 582 424 582 q 248 563 278 582 q 218 506 218 544 q 234 460 218 478 q 270 434 250 443 q 353 403 290 425 q 467 332 431 375 q 503 215 503 289 q 469 99 503 151 q 370 17 436 47 q 213 -14 304 -14 m 268 893 l 549 1043 l 522 869 l 244 778 l 268 893 z "},"ṥ":{"ha":578,"x_min":-18,"x_max":554,"o":"m 213 -14 q -18 38 94 -14 l 22 185 q 225 115 135 115 q 302 138 276 115 q 328 194 328 160 q 304 251 328 232 q 222 290 281 271 q 99 357 140 318 q 57 471 57 396 q 134 640 57 574 q 347 706 211 706 q 554 654 464 706 l 517 515 q 328 582 424 582 q 248 563 278 582 q 218 506 218 544 q 234 460 218 478 q 270 434 250 443 q 353 403 290 425 q 467 332 431 375 q 503 215 503 289 q 469 99 503 151 q 370 17 436 47 q 213 -14 304 -14 m 261 867 l 529 999 l 504 843 l 244 763 l 261 867 m 376 1196 l 518 1196 l 493 1061 l 351 1061 l 376 1196 z "},"š":{"ha":578,"x_min":-18,"x_max":594,"o":"m 213 -14 q -18 38 94 -14 l 22 185 q 225 115 135 115 q 302 138 276 115 q 328 194 328 160 q 304 251 328 232 q 222 290 281 271 q 99 357 140 318 q 57 471 57 396 q 134 640 57 574 q 347 706 211 706 q 554 654 464 706 l 517 515 q 328 582 424 582 q 248 563 278 582 q 218 506 218 544 q 234 460 218 478 q 270 434 250 443 q 353 403 290 425 q 467 332 431 375 q 503 215 503 289 q 469 99 503 151 q 370 17 436 47 q 213 -14 304 -14 m 214 918 l 236 1028 l 396 913 l 594 1028 l 572 906 l 367 763 l 214 918 z "},"ṧ":{"ha":578,"x_min":-18,"x_max":554,"o":"m 213 -14 q -18 38 94 -14 l 22 185 q 225 115 135 115 q 302 138 276 115 q 328 194 328 160 q 304 251 328 232 q 222 290 281 271 q 99 357 140 318 q 57 471 57 396 q 134 640 57 574 q 347 706 211 706 q 554 654 464 706 l 517 515 q 328 582 424 582 q 248 563 278 582 q 218 506 218 544 q 234 460 218 478 q 270 434 250 443 q 353 403 290 425 q 467 332 431 375 q 503 215 503 289 q 469 99 503 151 q 370 17 436 47 q 213 -14 304 -14 m 199 871 l 217 974 l 378 865 l 550 971 l 529 853 l 358 743 l 199 871 m 354 1150 l 496 1150 l 471 1015 l 329 1015 l 354 1150 z "},"ş":{"ha":578,"x_min":-18,"x_max":554,"o":"m 328 582 q 248 563 278 582 q 218 506 218 544 q 234 460 218 478 q 270 434 250 443 q 353 403 290 425 q 467 332 431 375 q 503 215 503 289 q 437 60 503 124 q 251 -12 371 -3 l 221 -75 l 229 -75 q 308 -101 279 -75 q 336 -175 336 -128 q 284 -288 336 -244 q 153 -332 232 -332 q 43 -306 90 -332 l 85 -224 q 171 -247 129 -247 q 226 -233 206 -247 q 246 -194 246 -218 q 182 -153 246 -153 q 113 -162 150 -153 l 175 -12 q -18 38 74 -4 l 22 185 q 225 115 135 115 q 302 138 276 115 q 328 194 328 160 q 304 251 328 232 q 222 290 281 271 q 99 357 140 318 q 57 471 57 396 q 134 640 57 574 q 347 706 211 706 q 554 654 464 706 l 517 515 q 328 582 424 582 z "},"ŝ":{"ha":578,"x_min":-18,"x_max":571,"o":"m 213 -14 q -18 38 94 -14 l 22 185 q 225 115 135 115 q 302 138 276 115 q 328 194 328 160 q 304 251 328 232 q 222 290 281 271 q 99 357 140 318 q 57 471 57 396 q 134 640 57 574 q 347 706 211 706 q 554 654 464 706 l 517 515 q 328 582 424 582 q 248 563 278 582 q 218 506 218 544 q 234 460 218 478 q 270 434 250 443 q 353 403 290 425 q 467 332 431 375 q 503 215 503 289 q 469 99 503 151 q 370 17 436 47 q 213 -14 304 -14 m 235 885 l 418 1021 l 571 865 l 549 756 l 389 871 l 211 772 l 235 885 z "},"ș":{"ha":578,"x_min":-18,"x_max":554,"o":"m 213 -14 q -18 38 94 -14 l 22 185 q 225 115 135 115 q 302 138 276 115 q 328 194 328 160 q 304 251 328 232 q 222 290 281 271 q 99 357 140 318 q 57 471 57 396 q 134 640 57 574 q 347 706 211 706 q 554 654 464 706 l 517 515 q 328 582 424 582 q 248 563 278 582 q 218 506 218 544 q 234 460 218 478 q 270 434 250 443 q 353 403 290 425 q 467 332 431 375 q 503 215 503 289 q 469 99 503 151 q 370 17 436 47 q 213 -14 304 -14 m 82 -385 l 151 -261 l 97 -261 l 121 -126 l 265 -126 l 242 -261 l 142 -385 l 82 -385 z "},"ṡ":{"ha":578,"x_min":-18,"x_max":554,"o":"m 213 -14 q -18 38 94 -14 l 22 185 q 225 115 135 115 q 302 138 276 115 q 328 194 328 160 q 304 251 328 232 q 222 290 281 271 q 99 357 140 318 q 57 471 57 396 q 134 640 57 574 q 347 706 211 706 q 554 654 464 706 l 517 515 q 328 582 424 582 q 248 563 278 582 q 218 506 218 544 q 234 460 218 478 q 270 434 250 443 q 353 403 290 425 q 467 332 431 375 q 503 215 503 289 q 469 99 503 151 q 370 17 436 47 q 213 -14 304 -14 m 335 957 l 474 957 l 449 822 l 310 822 l 335 957 z "},"ṣ":{"ha":578,"x_min":-18,"x_max":554,"o":"m 213 -14 q -18 38 94 -14 l 22 185 q 225 115 135 115 q 302 138 276 115 q 328 194 328 160 q 304 251 328 232 q 222 290 281 271 q 99 357 140 318 q 57 471 57 396 q 134 640 57 574 q 347 706 211 706 q 554 654 464 706 l 517 515 q 328 582 424 582 q 248 563 278 582 q 218 506 218 544 q 234 460 218 478 q 270 434 250 443 q 353 403 290 425 q 467 332 431 375 q 503 215 503 289 q 469 99 503 151 q 370 17 436 47 q 213 -14 304 -14 m 129 -112 l 268 -112 l 243 -247 l 104 -247 l 129 -112 z "},"ṩ":{"ha":578,"x_min":-18,"x_max":554,"o":"m 213 -14 q -18 38 94 -14 l 22 185 q 225 115 135 115 q 302 138 276 115 q 328 194 328 160 q 304 251 328 232 q 222 290 281 271 q 99 357 140 318 q 57 471 57 396 q 134 640 57 574 q 347 706 211 706 q 554 654 464 706 l 517 515 q 328 582 424 582 q 248 563 278 582 q 218 506 218 544 q 234 460 218 478 q 270 434 250 443 q 353 403 290 425 q 467 332 431 375 q 503 215 503 289 q 469 99 503 151 q 370 17 436 47 q 213 -14 304 -14 m 335 957 l 474 957 l 449 822 l 310 822 l 335 957 m 129 -112 l 268 -112 l 243 -247 l 104 -247 l 129 -112 z "},"ß":{"ha":876,"x_min":47,"x_max":835,"o":"m 443 -19 q 308 -7 378 -19 l 333 135 q 469 122 400 122 q 587 156 540 122 q 633 253 633 190 q 608 324 633 296 q 533 386 582 353 q 459 447 485 419 q 433 518 433 475 q 464 603 433 563 q 556 697 494 644 q 635 774 613 746 q 657 840 657 803 q 628 899 657 878 q 543 919 599 919 q 415 872 464 919 q 351 739 367 825 l 221 0 l 47 0 l 144 553 l 53 553 l 93 694 l 169 694 l 176 736 q 310 978 204 896 q 571 1061 417 1061 q 764 1012 693 1061 q 835 876 835 963 q 807 770 835 814 q 718 674 779 726 l 693 651 q 635 596 654 619 q 615 546 615 572 q 634 499 615 519 q 692 450 653 478 q 780 368 749 408 q 811 263 811 328 q 760 113 811 176 q 624 15 708 49 q 443 -19 539 -19 z "},"ə":{"ha":678,"x_min":35,"x_max":653,"o":"m 346 708 q 575 625 497 708 q 653 410 653 542 q 603 206 653 303 q 465 49 554 108 q 261 -11 375 -11 q 94 43 153 -11 q 35 190 35 97 q 128 363 35 308 q 367 418 222 418 q 472 410 436 418 q 422 528 468 490 q 313 567 376 567 q 94 510 201 567 l 114 656 q 346 708 213 708 m 394 306 q 228 275 278 306 q 179 199 179 244 q 208 144 179 158 q 268 131 236 131 q 391 185 340 131 q 458 300 442 239 q 394 306 436 306 z "},"t":{"ha":469,"x_min":54,"x_max":486,"o":"m 226 -14 q 113 27 150 -14 q 75 132 75 68 q 146 553 75 154 l 54 553 l 94 694 l 171 694 l 199 847 l 374 865 l 343 694 l 486 694 l 461 553 l 319 553 q 256 172 256 193 q 272 135 256 143 q 339 128 289 128 l 388 128 l 346 -14 l 226 -14 z "},"ŧ":{"ha":483,"x_min":25,"x_max":500,"o":"m 333 553 l 311 426 l 450 426 l 428 311 l 290 311 q 269 172 269 188 q 286 135 269 143 q 353 128 303 128 l 401 128 l 360 -14 l 240 -14 q 126 27 164 -14 q 89 132 89 68 q 117 311 89 146 l 25 311 l 47 426 l 138 426 l 160 553 l 68 553 l 108 694 l 185 694 l 213 847 l 388 865 l 357 694 l 500 694 l 475 553 l 333 553 z "},"ť":{"ha":469,"x_min":54,"x_max":597,"o":"m 226 -14 q 113 27 150 -14 q 75 132 75 68 q 146 553 75 154 l 54 553 l 94 694 l 171 694 l 199 847 l 374 865 l 343 694 l 486 694 l 461 553 l 319 553 q 256 172 256 193 q 272 135 256 143 q 339 128 289 128 l 388 128 l 346 -14 l 226 -14 m 463 1003 l 597 1003 l 513 757 l 418 757 l 463 1003 z "},"ţ":{"ha":469,"x_min":54,"x_max":486,"o":"m 319 553 q 256 172 256 193 q 272 135 256 143 q 339 128 289 128 l 388 128 l 346 -14 l 271 -14 l 242 -75 l 250 -75 q 328 -101 300 -75 q 357 -175 357 -128 q 305 -288 357 -244 q 174 -332 253 -332 q 64 -306 111 -332 l 106 -224 q 192 -247 150 -247 q 247 -233 226 -247 q 267 -194 267 -218 q 203 -153 267 -153 q 133 -162 171 -153 l 196 -12 q 105 35 135 -4 q 75 132 75 75 q 146 553 75 154 l 54 553 l 94 694 l 171 694 l 199 847 l 374 865 l 343 694 l 486 694 l 461 553 l 319 553 z "},"ț":{"ha":469,"x_min":54,"x_max":486,"o":"m 226 -14 q 113 27 150 -14 q 75 132 75 68 q 146 553 75 154 l 54 553 l 94 694 l 171 694 l 199 847 l 374 865 l 343 694 l 486 694 l 461 553 l 319 553 q 256 172 256 193 q 272 135 256 143 q 339 128 289 128 l 388 128 l 346 -14 l 226 -14 m 103 -385 l 172 -261 l 118 -261 l 142 -126 l 286 -126 l 263 -261 l 163 -385 l 103 -385 z "},"ẗ":{"ha":469,"x_min":54,"x_max":538,"o":"m 226 -14 q 113 27 150 -14 q 75 132 75 68 q 146 553 75 154 l 54 553 l 94 694 l 171 694 l 199 847 l 374 865 l 343 694 l 486 694 l 461 553 l 319 553 q 256 172 256 193 q 272 135 256 143 q 339 128 289 128 l 388 128 l 346 -14 l 226 -14 m 132 1104 l 263 1104 l 238 979 l 107 979 l 132 1104 m 407 1104 l 538 1104 l 513 979 l 382 979 l 407 1104 z "},"ṭ":{"ha":469,"x_min":54,"x_max":486,"o":"m 226 -14 q 113 27 150 -14 q 75 132 75 68 q 146 553 75 154 l 54 553 l 94 694 l 171 694 l 199 847 l 374 865 l 343 694 l 486 694 l 461 553 l 319 553 q 256 172 256 193 q 272 135 256 143 q 339 128 289 128 l 388 128 l 346 -14 l 226 -14 m 150 -112 l 289 -112 l 264 -247 l 125 -247 l 150 -112 z "},"ṯ":{"ha":469,"x_min":-31,"x_max":486,"o":"m 226 -14 q 113 27 150 -14 q 75 132 75 68 q 146 553 75 154 l 54 553 l 94 694 l 171 694 l 199 847 l 374 865 l 343 694 l 486 694 l 461 553 l 319 553 q 256 172 256 193 q 272 135 256 143 q 339 128 289 128 l 388 128 l 346 -14 l 226 -14 m -8 -126 l 436 -126 l 414 -239 l -31 -239 l -8 -126 z "},"u":{"ha":751,"x_min":49,"x_max":719,"o":"m 272 -14 q 105 49 161 -14 q 49 224 49 113 q 58 315 49 260 l 124 694 l 296 694 l 233 328 q 224 247 224 275 q 249 159 224 188 q 326 131 275 131 q 457 189 401 131 l 547 694 l 719 694 l 597 0 l 435 0 l 442 51 q 360 3 400 19 q 272 -14 321 -14 z "},"ú":{"ha":751,"x_min":49,"x_max":719,"o":"m 272 -14 q 105 49 161 -14 q 49 224 49 113 q 58 315 49 260 l 124 694 l 296 694 l 233 328 q 224 247 224 275 q 249 159 224 188 q 326 131 275 131 q 457 189 401 131 l 547 694 l 719 694 l 597 0 l 435 0 l 442 51 q 360 3 400 19 q 272 -14 321 -14 m 339 907 l 619 1057 l 593 883 l 315 792 l 339 907 z "},"ŭ":{"ha":751,"x_min":49,"x_max":719,"o":"m 272 -14 q 105 49 161 -14 q 49 224 49 113 q 58 315 49 260 l 124 694 l 296 694 l 233 328 q 224 247 224 275 q 249 159 224 188 q 326 131 275 131 q 457 189 401 131 l 547 694 l 719 694 l 597 0 l 435 0 l 442 51 q 360 3 400 19 q 272 -14 321 -14 m 458 815 q 322 859 372 815 q 272 969 272 903 q 276 1008 272 992 l 388 1008 q 385 986 385 994 q 406 937 385 954 q 465 919 428 919 q 540 943 510 919 q 579 1008 571 967 l 704 1008 q 619 867 682 918 q 458 815 557 815 z "},"û":{"ha":751,"x_min":49,"x_max":719,"o":"m 272 -14 q 105 49 161 -14 q 49 224 49 113 q 58 315 49 260 l 124 694 l 296 694 l 233 328 q 224 247 224 275 q 249 159 224 188 q 326 131 275 131 q 457 189 401 131 l 547 694 l 719 694 l 597 0 l 435 0 l 442 51 q 360 3 400 19 q 272 -14 321 -14 m 306 899 l 489 1035 l 642 879 l 619 769 l 460 885 l 282 786 l 306 899 z "},"ȕ":{"ha":751,"x_min":49,"x_max":719,"o":"m 272 -14 q 105 49 161 -14 q 49 224 49 113 q 58 315 49 260 l 124 694 l 296 694 l 233 328 q 224 247 224 275 q 249 159 224 188 q 326 131 275 131 q 457 189 401 131 l 547 694 l 719 694 l 597 0 l 435 0 l 442 51 q 360 3 400 19 q 272 -14 321 -14 m 294 817 l 189 1063 l 349 1063 l 404 817 l 294 817 m 499 817 l 404 1063 l 564 1063 l 608 817 l 499 817 z "},"ü":{"ha":751,"x_min":49,"x_max":719,"o":"m 272 -14 q 105 49 161 -14 q 49 224 49 113 q 58 315 49 260 l 124 694 l 296 694 l 233 328 q 224 247 224 275 q 249 159 224 188 q 326 131 275 131 q 457 189 401 131 l 547 694 l 719 694 l 597 0 l 435 0 l 442 51 q 360 3 400 19 q 272 -14 321 -14 m 268 946 l 399 946 l 374 821 l 243 821 l 268 946 m 543 946 l 674 946 l 649 821 l 518 821 l 543 946 z "},"ụ":{"ha":751,"x_min":49,"x_max":719,"o":"m 272 -14 q 105 49 161 -14 q 49 224 49 113 q 58 315 49 260 l 124 694 l 296 694 l 233 328 q 224 247 224 275 q 249 159 224 188 q 326 131 275 131 q 457 189 401 131 l 547 694 l 719 694 l 597 0 l 435 0 l 442 51 q 360 3 400 19 q 272 -14 321 -14 m 171 -112 l 310 -112 l 285 -247 l 146 -247 l 171 -112 z "},"ù":{"ha":751,"x_min":49,"x_max":719,"o":"m 272 -14 q 105 49 161 -14 q 49 224 49 113 q 58 315 49 260 l 124 694 l 296 694 l 233 328 q 224 247 224 275 q 249 159 224 188 q 326 131 275 131 q 457 189 401 131 l 547 694 l 719 694 l 597 0 l 435 0 l 442 51 q 360 3 400 19 q 272 -14 321 -14 m 326 897 l 354 1057 l 589 901 l 569 792 l 326 897 z "},"ủ":{"ha":751,"x_min":49,"x_max":719,"o":"m 272 -14 q 105 49 161 -14 q 49 224 49 113 q 58 315 49 260 l 124 694 l 296 694 l 233 328 q 224 247 224 275 q 249 159 224 188 q 326 131 275 131 q 457 189 401 131 l 547 694 l 719 694 l 597 0 l 435 0 l 442 51 q 360 3 400 19 q 272 -14 321 -14 m 411 793 q 469 843 449 821 q 489 890 489 865 q 478 918 489 908 q 447 928 467 928 q 357 903 413 928 l 350 985 q 464 1010 410 1010 q 547 984 515 1010 q 579 913 579 958 q 547 820 579 860 q 453 742 514 781 l 411 793 z "},"ư":{"ha":751,"x_min":49,"x_max":896,"o":"m 896 797 q 830 674 883 726 q 703 597 776 621 l 597 0 l 435 0 l 442 51 q 360 3 400 19 q 272 -14 321 -14 q 105 49 161 -14 q 49 224 49 113 q 58 315 49 260 l 124 694 l 296 694 l 233 328 q 224 247 224 275 q 249 159 224 188 q 326 131 275 131 q 457 189 401 131 l 547 694 l 619 694 q 749 797 729 694 l 896 797 z "},"ứ":{"ha":751,"x_min":49,"x_max":896,"o":"m 896 797 q 830 674 883 726 q 703 597 776 621 l 597 0 l 435 0 l 442 51 q 360 3 400 19 q 272 -14 321 -14 q 105 49 161 -14 q 49 224 49 113 q 58 315 49 260 l 124 694 l 296 694 l 233 328 q 224 247 224 275 q 249 159 224 188 q 326 131 275 131 q 457 189 401 131 l 547 694 l 619 694 q 749 797 729 694 l 896 797 m 339 907 l 619 1057 l 593 883 l 315 792 l 339 907 z "},"ự":{"ha":751,"x_min":49,"x_max":896,"o":"m 896 797 q 830 674 883 726 q 703 597 776 621 l 597 0 l 435 0 l 442 51 q 360 3 400 19 q 272 -14 321 -14 q 105 49 161 -14 q 49 224 49 113 q 58 315 49 260 l 124 694 l 296 694 l 233 328 q 224 247 224 275 q 249 159 224 188 q 326 131 275 131 q 457 189 401 131 l 547 694 l 619 694 q 749 797 729 694 l 896 797 m 171 -112 l 310 -112 l 285 -247 l 146 -247 l 171 -112 z "},"ừ":{"ha":751,"x_min":49,"x_max":896,"o":"m 896 797 q 830 674 883 726 q 703 597 776 621 l 597 0 l 435 0 l 442 51 q 360 3 400 19 q 272 -14 321 -14 q 105 49 161 -14 q 49 224 49 113 q 58 315 49 260 l 124 694 l 296 694 l 233 328 q 224 247 224 275 q 249 159 224 188 q 326 131 275 131 q 457 189 401 131 l 547 694 l 619 694 q 749 797 729 694 l 896 797 m 326 897 l 354 1057 l 589 901 l 569 792 l 326 897 z "},"ử":{"ha":751,"x_min":49,"x_max":896,"o":"m 896 797 q 830 674 883 726 q 703 597 776 621 l 597 0 l 435 0 l 442 51 q 360 3 400 19 q 272 -14 321 -14 q 105 49 161 -14 q 49 224 49 113 q 58 315 49 260 l 124 694 l 296 694 l 233 328 q 224 247 224 275 q 249 159 224 188 q 326 131 275 131 q 457 189 401 131 l 547 694 l 619 694 q 749 797 729 694 l 896 797 m 411 793 q 469 843 449 821 q 489 890 489 865 q 478 918 489 908 q 447 928 467 928 q 357 903 413 928 l 350 985 q 464 1010 410 1010 q 547 984 515 1010 q 579 913 579 958 q 547 820 579 860 q 453 742 514 781 l 411 793 z "},"ữ":{"ha":751,"x_min":49,"x_max":896,"o":"m 896 797 q 830 674 883 726 q 703 597 776 621 l 597 0 l 435 0 l 442 51 q 360 3 400 19 q 272 -14 321 -14 q 105 49 161 -14 q 49 224 49 113 q 58 315 49 260 l 124 694 l 296 694 l 233 328 q 224 247 224 275 q 249 159 224 188 q 326 131 275 131 q 457 189 401 131 l 547 694 l 619 694 q 749 797 729 694 l 896 797 m 569 803 q 528 810 549 803 q 468 835 507 818 q 421 854 444 846 q 381 863 397 863 q 342 849 357 863 q 322 814 326 836 l 214 814 q 263 939 225 896 q 358 982 300 982 q 406 973 382 982 q 461 949 431 964 q 542 922 517 922 q 594 975 586 922 l 708 975 q 660 845 694 888 q 569 803 626 803 z "},"ű":{"ha":751,"x_min":49,"x_max":806,"o":"m 272 -14 q 105 49 161 -14 q 49 224 49 113 q 58 315 49 260 l 124 694 l 296 694 l 233 328 q 224 247 224 275 q 249 159 224 188 q 326 131 275 131 q 457 189 401 131 l 547 694 l 719 694 l 597 0 l 435 0 l 442 51 q 360 3 400 19 q 272 -14 321 -14 m 431 1063 l 590 1063 l 393 817 l 283 817 l 431 1063 m 646 1063 l 806 1063 l 597 817 l 488 817 l 646 1063 z "},"ȗ":{"ha":751,"x_min":49,"x_max":719,"o":"m 272 -14 q 105 49 161 -14 q 49 224 49 113 q 58 315 49 260 l 124 694 l 296 694 l 233 328 q 224 247 224 275 q 249 159 224 188 q 326 131 275 131 q 457 189 401 131 l 547 694 l 719 694 l 597 0 l 435 0 l 442 51 q 360 3 400 19 q 272 -14 321 -14 m 478 1008 q 613 964 564 1008 q 661 850 661 919 q 658 815 661 840 l 542 815 l 543 835 q 522 886 543 868 q 460 904 500 904 q 385 881 415 904 q 349 815 356 857 l 231 815 q 313 953 244 897 q 478 1008 382 1008 z "},"ū":{"ha":751,"x_min":49,"x_max":719,"o":"m 272 -14 q 105 49 161 -14 q 49 224 49 113 q 58 315 49 260 l 124 694 l 296 694 l 233 328 q 224 247 224 275 q 249 159 224 188 q 326 131 275 131 q 457 189 401 131 l 547 694 l 719 694 l 597 0 l 435 0 l 442 51 q 360 3 400 19 q 272 -14 321 -14 m 250 947 l 694 947 l 672 835 l 228 835 l 250 947 z "},"ṻ":{"ha":751,"x_min":49,"x_max":719,"o":"m 272 -14 q 105 49 161 -14 q 49 224 49 113 q 58 315 49 260 l 124 694 l 296 694 l 233 328 q 224 247 224 275 q 249 159 224 188 q 326 131 275 131 q 457 189 401 131 l 547 694 l 719 694 l 597 0 l 435 0 l 442 51 q 360 3 400 19 q 272 -14 321 -14 m 242 929 l 686 929 l 667 824 l 222 824 l 242 929 m 307 1165 l 438 1165 l 415 1046 l 285 1046 l 307 1165 m 579 1165 l 710 1165 l 688 1046 l 557 1046 l 579 1165 z "},"ų":{"ha":751,"x_min":49,"x_max":729,"o":"m 272 -14 q 105 49 161 -14 q 49 224 49 113 q 58 315 49 260 l 124 694 l 296 694 l 233 328 q 224 247 224 275 q 249 159 224 188 q 326 131 275 131 q 457 189 401 131 l 547 694 l 719 694 l 597 0 l 435 0 l 442 51 q 360 3 400 19 q 272 -14 321 -14 m 721 14 q 586 -144 586 -74 q 599 -182 586 -169 q 638 -194 613 -194 q 719 -178 678 -194 l 729 -254 q 608 -279 674 -279 q 525 -253 557 -279 q 492 -182 493 -228 q 533 -75 492 -126 q 635 14 574 -24 l 721 14 z "},"ů":{"ha":751,"x_min":49,"x_max":719,"o":"m 272 -14 q 105 49 161 -14 q 49 224 49 113 q 58 315 49 260 l 124 694 l 296 694 l 233 328 q 224 247 224 275 q 249 159 224 188 q 326 131 275 131 q 457 189 401 131 l 547 694 l 719 694 l 597 0 l 435 0 l 442 51 q 360 3 400 19 q 272 -14 321 -14 m 442 792 q 355 822 386 792 q 324 900 324 853 q 347 981 324 943 q 410 1040 371 1018 q 494 1063 449 1063 q 581 1032 550 1063 q 613 954 613 1001 q 562 839 613 886 q 442 792 511 792 m 456 864 q 507 886 486 864 q 528 940 528 908 q 515 976 528 963 q 481 989 501 989 q 430 966 451 989 q 408 913 408 943 q 421 877 408 890 q 456 864 433 864 z "},"ũ":{"ha":751,"x_min":49,"x_max":719,"o":"m 272 -14 q 105 49 161 -14 q 49 224 49 113 q 58 315 49 260 l 124 694 l 296 694 l 233 328 q 224 247 224 275 q 249 159 224 188 q 326 131 275 131 q 457 189 401 131 l 547 694 l 719 694 l 597 0 l 435 0 l 442 51 q 360 3 400 19 q 272 -14 321 -14 m 569 803 q 528 810 549 803 q 468 835 507 818 q 421 854 444 846 q 381 863 397 863 q 342 849 357 863 q 322 814 326 836 l 214 814 q 263 939 225 896 q 358 982 300 982 q 406 973 382 982 q 461 949 431 964 q 542 922 517 922 q 594 975 586 922 l 708 975 q 660 845 694 888 q 569 803 626 803 z "}}}
